<svg xmlns="http://www.w3.org/2000/svg" xmlns:xlink="http://www.w3.org/1999/xlink" viewBox="0 0 1009.13 326.69"><defs><linearGradient id="cc08da72-0dad-4138-8592-816d298dd5e4" x1="182.94" y1="-64.36" x2="82.44" y2="108.89" gradientTransform="matrix(-1, 0.04, 0.04, 1, 337.38, 27.52)" gradientUnits="userSpaceOnUse"><stop offset="0" stop-color="#757575"/><stop offset="0.54" stop-color="#999"/><stop offset="1" stop-color="#b3b3b3"/></linearGradient><linearGradient id="28404fac-59bc-45d3-8469-8d8cc2729a6e" x1="286.95" y1="-4.01" x2="186.44" y2="169.23" xlink:href="#cc08da72-0dad-4138-8592-816d298dd5e4"/><linearGradient id="18b8a3a6-1717-4966-908d-6ec381a8e47d" x1="323.13" y1="16.98" x2="222.63" y2="190.22" xlink:href="#cc08da72-0dad-4138-8592-816d298dd5e4"/><linearGradient id="2e684bf5-9546-4186-ae91-e99214c6e34d" x1="276.31" y1="-10.19" x2="175.8" y2="163.05" xlink:href="#cc08da72-0dad-4138-8592-816d298dd5e4"/><linearGradient id="7af71c0a-3e0d-4f3f-bf2d-010134f0cac4" x1="17.05" y1="-160.6" x2="-83.46" y2="12.64" xlink:href="#cc08da72-0dad-4138-8592-816d298dd5e4"/><linearGradient id="028c3772-38ba-4962-8310-7099dc9ff723" x1="181.23" y1="-65.35" x2="80.72" y2="107.89" xlink:href="#cc08da72-0dad-4138-8592-816d298dd5e4"/><linearGradient id="89d3d931-b294-4fc1-b641-d41a4105ae50" x1="162.13" y1="-76.43" x2="61.63" y2="96.82" xlink:href="#cc08da72-0dad-4138-8592-816d298dd5e4"/><linearGradient id="f3e8c31d-c83d-48e5-9082-302f7735dfb3" x1="-42.16" y1="-194.95" x2="-142.66" y2="-21.7" xlink:href="#cc08da72-0dad-4138-8592-816d298dd5e4"/><linearGradient id="bd4bce78-1016-4762-9977-54bcc80a2fe5" x1="201.83" y1="-53.4" x2="101.32" y2="119.84" xlink:href="#cc08da72-0dad-4138-8592-816d298dd5e4"/><linearGradient id="d25c8f7a-2aca-4407-a348-e546cd41781c" x1="121.41" y1="-100.05" x2="20.9" y2="73.19" xlink:href="#cc08da72-0dad-4138-8592-816d298dd5e4"/><linearGradient id="0385a25e-ca6b-40d8-a554-745c14385cbd" x1="349.34" y1="32.18" x2="248.84" y2="205.43" xlink:href="#cc08da72-0dad-4138-8592-816d298dd5e4"/><linearGradient id="f2e726eb-c478-4840-8d98-c62d487edf6d" x1="383.95" y1="52.26" x2="283.44" y2="225.5" xlink:href="#cc08da72-0dad-4138-8592-816d298dd5e4"/><linearGradient id="5214e178-6589-431b-b604-326728a1b5c1" x1="312.11" y1="10.58" x2="211.61" y2="183.83" xlink:href="#cc08da72-0dad-4138-8592-816d298dd5e4"/><linearGradient id="b04db507-ec83-4478-bed0-bf43ab95867b" x1="271.05" y1="-13.24" x2="170.54" y2="160" xlink:href="#cc08da72-0dad-4138-8592-816d298dd5e4"/><linearGradient id="73b8715e-0ed7-47c0-ac84-2f50334ded60" x1="399.1" y1="61.05" x2="298.59" y2="234.29" xlink:href="#cc08da72-0dad-4138-8592-816d298dd5e4"/><linearGradient id="b797d842-f1e3-405c-98ec-5c62c4d4c0fe" x1="322.35" y1="16.52" x2="221.85" y2="189.77" xlink:href="#cc08da72-0dad-4138-8592-816d298dd5e4"/><linearGradient id="6e33ea92-c108-4bd8-844b-c238503a25d1" x1="372.48" y1="45.6" x2="271.97" y2="218.85" xlink:href="#cc08da72-0dad-4138-8592-816d298dd5e4"/><linearGradient id="eab936eb-c155-4070-a0e7-a6cf335443c4" x1="294.55" y1="0.39" x2="194.04" y2="173.64" xlink:href="#cc08da72-0dad-4138-8592-816d298dd5e4"/><linearGradient id="4f91e0b4-b879-49b2-859c-4f375f5d9868" x1="232.02" y1="-35.88" x2="131.52" y2="137.36" xlink:href="#cc08da72-0dad-4138-8592-816d298dd5e4"/><linearGradient id="078f44f8-2163-4ebe-afdb-d020fca526d8" x1="79.23" y1="46" x2="-21.28" y2="219.24" gradientTransform="translate(-13.98 40.79) rotate(-2.16)" xlink:href="#cc08da72-0dad-4138-8592-816d298dd5e4"/><linearGradient id="6eb22fc9-d713-4e2a-9f50-e25e39e2cc65" x1="64.9" y1="35.93" x2="-35.61" y2="209.17" gradientTransform="translate(-13.98 40.79) rotate(-2.16)" xlink:href="#cc08da72-0dad-4138-8592-816d298dd5e4"/><linearGradient id="e4f66b0f-96dc-4a26-8bb4-08deff71f347" x1="451.02" y1="-143.36" x2="350.51" y2="29.89" gradientTransform="translate(-13.98 40.79) rotate(-2.16)" xlink:href="#cc08da72-0dad-4138-8592-816d298dd5e4"/><linearGradient id="e9485bc5-2176-474b-b937-987b669b8157" x1="523.26" y1="-160.96" x2="422.75" y2="12.29" gradientTransform="translate(-13.98 40.79) rotate(-2.16)" xlink:href="#cc08da72-0dad-4138-8592-816d298dd5e4"/><linearGradient id="d68ee15f-3e36-4659-b0ca-2e4f9b6776fb" x1="26.46" y1="9.32" x2="-74.04" y2="182.57" gradientTransform="translate(-13.98 40.79) rotate(-2.16)" xlink:href="#cc08da72-0dad-4138-8592-816d298dd5e4"/><linearGradient id="09aca21c-ece3-41ee-8b71-8e1c4c707742" x1="715.7" y1="-235.45" x2="615.19" y2="-62.21" gradientTransform="translate(-13.98 40.79) rotate(-2.16)" xlink:href="#cc08da72-0dad-4138-8592-816d298dd5e4"/><linearGradient id="5def99a2-b376-4baf-af43-6616ea394eb5" x1="137.09" y1="-22.79" x2="36.58" y2="150.45" gradientTransform="translate(-13.98 40.79) rotate(-2.16)" xlink:href="#cc08da72-0dad-4138-8592-816d298dd5e4"/><linearGradient id="7e91fc4e-4a93-4234-81d1-e88898d11aec" x1="313.72" y1="-77.72" x2="213.21" y2="95.52" gradientTransform="translate(-13.98 40.79) rotate(-2.16)" xlink:href="#cc08da72-0dad-4138-8592-816d298dd5e4"/><linearGradient id="b90c60ce-0c01-429e-b0f5-7eb682873279" x1="21.32" y1="27.4" x2="-79.18" y2="200.65" gradientTransform="translate(-13.98 40.79) rotate(-2.16)" xlink:href="#cc08da72-0dad-4138-8592-816d298dd5e4"/><linearGradient id="92b6ece6-38cd-4489-bab1-92129b9bd244" x1="477.53" y1="-141.2" x2="377.02" y2="32.04" gradientTransform="translate(-13.98 40.79) rotate(-2.16)" xlink:href="#cc08da72-0dad-4138-8592-816d298dd5e4"/><linearGradient id="80f9dc8b-3c28-44c2-8273-2c4a275b9458" x1="246.64" y1="-39.14" x2="146.13" y2="134.11" gradientTransform="translate(-13.98 40.79) rotate(-2.16)" xlink:href="#cc08da72-0dad-4138-8592-816d298dd5e4"/><linearGradient id="ff0a93c9-95fb-4207-8b20-0b6346e6c74b" x1="126.13" y1="18.11" x2="25.62" y2="191.35" gradientTransform="translate(-13.98 40.79) rotate(-2.16)" xlink:href="#cc08da72-0dad-4138-8592-816d298dd5e4"/><linearGradient id="d071eab6-7fc5-4a4c-9d92-be991ac2de06" x1="430.78" y1="-127.22" x2="330.27" y2="46.02" gradientTransform="translate(-13.98 40.79) rotate(-2.16)" xlink:href="#cc08da72-0dad-4138-8592-816d298dd5e4"/><linearGradient id="51a05013-5352-450e-a7ed-efdc96462de1" x1="-34.86" y1="38.56" x2="-135.37" y2="211.8" gradientTransform="translate(-13.98 40.79) rotate(-2.16)" xlink:href="#cc08da72-0dad-4138-8592-816d298dd5e4"/><linearGradient id="1fdff782-adc8-4380-b9c4-6243d38d4826" x1="570.48" y1="-184.17" x2="469.98" y2="-10.92" gradientTransform="translate(-13.98 40.79) rotate(-2.16)" xlink:href="#cc08da72-0dad-4138-8592-816d298dd5e4"/><linearGradient id="ca07111b-e2c9-448b-815e-58246d11b226" x1="295.88" y1="-82.76" x2="195.37" y2="90.49" gradientTransform="translate(-13.98 40.79) rotate(-2.16)" xlink:href="#cc08da72-0dad-4138-8592-816d298dd5e4"/><linearGradient id="3b867a7e-da6e-4023-b369-ced8b2f559d1" x1="249.87" y1="-21.89" x2="149.36" y2="151.36" gradientTransform="translate(-13.98 40.79) rotate(-2.16)" xlink:href="#cc08da72-0dad-4138-8592-816d298dd5e4"/><linearGradient id="12a3a558-0bd4-4920-99e2-b1fc6ad224cf" x1="263.97" y1="-64.83" x2="163.46" y2="108.41" gradientTransform="translate(-13.98 40.79) rotate(-2.16)" xlink:href="#cc08da72-0dad-4138-8592-816d298dd5e4"/><linearGradient id="d567ec0f-9aff-4dce-873f-eee8fe5e5216" x1="283.45" y1="-51.99" x2="182.94" y2="121.25" gradientTransform="translate(-13.98 40.79) rotate(-2.16)" xlink:href="#cc08da72-0dad-4138-8592-816d298dd5e4"/><linearGradient id="414604ef-b606-45dd-be23-b1fad21facd7" x1="401.29" y1="-114.66" x2="300.78" y2="58.58" gradientTransform="translate(-13.98 40.79) rotate(-2.16)" xlink:href="#cc08da72-0dad-4138-8592-816d298dd5e4"/><linearGradient id="49e9f0c9-3314-41af-8282-17aaf852fb1f" x1="122.72" y1="-9.15" x2="22.21" y2="164.09" gradientTransform="translate(-13.98 40.79) rotate(-2.16)" xlink:href="#cc08da72-0dad-4138-8592-816d298dd5e4"/><linearGradient id="37d30e0a-cfee-46d7-85ff-c7f3184a61ef" x1="203.33" y1="-2.55" x2="102.83" y2="170.7" gradientTransform="translate(-13.98 40.79) rotate(-2.16)" xlink:href="#cc08da72-0dad-4138-8592-816d298dd5e4"/><linearGradient id="91ccf84e-f346-4096-934f-1abce1780599" x1="221.76" y1="-42.01" x2="121.26" y2="131.23" gradientTransform="translate(-13.98 40.79) rotate(-2.16)" xlink:href="#cc08da72-0dad-4138-8592-816d298dd5e4"/><linearGradient id="e8feaab9-10ac-43fa-9f7c-2323901e9da4" x1="361.93" y1="-106.79" x2="261.42" y2="66.45" gradientTransform="translate(-13.98 40.79) rotate(-2.16)" xlink:href="#cc08da72-0dad-4138-8592-816d298dd5e4"/><linearGradient id="a6d86dbb-2c62-4ec9-8795-68d7726cccb8" x1="73.91" y1="-127.61" x2="-26.6" y2="45.63" xlink:href="#cc08da72-0dad-4138-8592-816d298dd5e4"/><linearGradient id="4532ceb7-d0dd-44d7-82ce-30f8cd001a71" x1="227.98" y1="-38.23" x2="127.47" y2="135.02" xlink:href="#cc08da72-0dad-4138-8592-816d298dd5e4"/><linearGradient id="629c142d-a834-47ba-baee-e616ee1cd89f" x1="311.94" y1="10.48" x2="211.43" y2="183.72" xlink:href="#cc08da72-0dad-4138-8592-816d298dd5e4"/><linearGradient id="07f1305d-e23e-41b2-bc9e-93887fe5e0b2" x1="349.87" y1="32.49" x2="249.36" y2="205.73" xlink:href="#cc08da72-0dad-4138-8592-816d298dd5e4"/><linearGradient id="f07fe40c-f77a-496b-9185-293dcc32468c" x1="208.92" y1="-49.29" x2="108.41" y2="123.96" xlink:href="#cc08da72-0dad-4138-8592-816d298dd5e4"/><linearGradient id="1dbd17ee-4c1c-41a4-8851-251b1b28c6a7" x1="280.4" y1="-7.81" x2="179.9" y2="165.43" xlink:href="#cc08da72-0dad-4138-8592-816d298dd5e4"/><linearGradient id="4dd6535e-a065-4bf4-9ac8-3694158d3bdd" x1="322.27" y1="16.48" x2="221.76" y2="189.72" xlink:href="#cc08da72-0dad-4138-8592-816d298dd5e4"/><linearGradient id="aa30b864-bc06-4e66-940d-94ff9df86925" x1="48.54" y1="-142.33" x2="-51.97" y2="30.91" xlink:href="#cc08da72-0dad-4138-8592-816d298dd5e4"/><linearGradient id="df8de740-07da-4f2e-8032-30cbb66f13a5" x1="299.91" y1="3.5" x2="199.4" y2="176.75" xlink:href="#cc08da72-0dad-4138-8592-816d298dd5e4"/><linearGradient id="5e046b67-5eac-4a78-baa8-460b0dd5f6a9" x1="223.17" y1="-41.02" x2="122.66" y2="132.23" xlink:href="#cc08da72-0dad-4138-8592-816d298dd5e4"/><linearGradient id="222ceccc-e3a0-47e6-8c7f-983758308826" x1="140.02" y1="-89.26" x2="39.51" y2="83.99" xlink:href="#cc08da72-0dad-4138-8592-816d298dd5e4"/><linearGradient id="1eedf00e-cd56-4001-ad90-9e40d27ef71a" x1="306.3" y1="7.21" x2="205.79" y2="180.46" xlink:href="#cc08da72-0dad-4138-8592-816d298dd5e4"/><linearGradient id="c522bd33-8533-4970-ab54-533fcfba0bf3" x1="-72.32" y1="-212.45" x2="-172.83" y2="-39.2" xlink:href="#cc08da72-0dad-4138-8592-816d298dd5e4"/><linearGradient id="001688d1-1a92-44b1-aa0a-b5c9801f0614" x1="122.03" y1="-99.69" x2="21.52" y2="73.55" xlink:href="#cc08da72-0dad-4138-8592-816d298dd5e4"/><linearGradient id="907a2a41-21e0-4b5e-a617-093f370fc267" x1="258.65" y1="-20.44" x2="158.14" y2="152.81" xlink:href="#cc08da72-0dad-4138-8592-816d298dd5e4"/><linearGradient id="a97a0255-4be1-43d0-859e-5c2f22e5a8b2" x1="133.33" y1="-93.14" x2="32.83" y2="80.11" xlink:href="#cc08da72-0dad-4138-8592-816d298dd5e4"/><linearGradient id="e6b55eca-6366-4ddb-9604-afd3b54366cd" x1="346.53" y1="30.55" x2="246.02" y2="203.79" xlink:href="#cc08da72-0dad-4138-8592-816d298dd5e4"/><linearGradient id="9f9d686a-093e-455a-bc36-47b5cf2ad957" x1="248.79" y1="-26.15" x2="148.28" y2="147.09" xlink:href="#cc08da72-0dad-4138-8592-816d298dd5e4"/><linearGradient id="d5cb9d26-41b6-4dc1-bf00-91e8abd9bade" x1="379.84" y1="49.87" x2="279.33" y2="223.12" xlink:href="#cc08da72-0dad-4138-8592-816d298dd5e4"/><linearGradient id="ed3c39d2-cb5c-40a2-b75b-ccda4cb8e5b2" x1="140.35" y1="-89.07" x2="39.84" y2="84.17" xlink:href="#cc08da72-0dad-4138-8592-816d298dd5e4"/><linearGradient id="b7bcd432-4d89-4879-bbdd-93b0e8edb595" x1="311.52" y1="10.24" x2="211.01" y2="183.49" xlink:href="#cc08da72-0dad-4138-8592-816d298dd5e4"/><linearGradient id="78d191e7-9bc5-483e-bdef-06aa8ed5ac32" x1="246.84" y1="-27.29" x2="146.33" y2="145.96" xlink:href="#cc08da72-0dad-4138-8592-816d298dd5e4"/></defs><title>ba2</title><g style="isolation:isolate"><g id="3fdf438f-d0d0-47c6-aad3-2ba6288806b5" data-name="Layer 1"><g style="opacity:0.2"><polygon points="173.31 3.61 180.09 3.35 183.7 9.1 180.54 15.09 173.76 15.35 170.15 9.61 173.31 3.61" style="mix-blend-mode:multiply;fill:url(#cc08da72-0dad-4138-8592-816d298dd5e4)"/><polygon points="96.09 106.5 107.39 106.07 113.41 115.64 108.13 125.64 96.83 126.06 90.82 116.49 96.09 106.5" style="mix-blend-mode:multiply;fill:url(#28404fac-59bc-45d3-8469-8d8cc2729a6e)"/><polygon points="38.98 94.35 66.32 93.32 80.89 116.48 68.11 140.67 40.77 141.71 26.21 118.54 38.98 94.35" style="mix-blend-mode:multiply;fill:url(#18b8a3a6-1717-4966-908d-6ec381a8e47d)"/><polygon points="64.06 32.76 73.03 32.42 77.81 40.02 73.61 47.96 64.64 48.3 59.86 40.7 64.06 32.76" style="mix-blend-mode:multiply;fill:url(#2e684bf5-9546-4186-ae91-e99214c6e34d)"/><polygon points="394.85 -4.84 403.25 -5.15 407.73 1.97 403.8 9.4 395.39 9.72 390.92 2.6 394.85 -4.84" style="mix-blend-mode:multiply;fill:url(#7af71c0a-3e0d-4f3f-bf2d-010134f0cac4)"/><polygon points="206.16 51.75 246.1 50.24 267.38 84.08 248.72 119.43 208.77 120.94 187.49 87.09 206.16 51.75" style="mix-blend-mode:multiply;fill:url(#028c3772-38ba-4962-8310-7099dc9ff723)"/><polygon points="202.78 5.21 210.82 4.9 215.11 11.71 211.35 18.83 203.31 19.13 199.02 12.32 202.78 5.21" style="mix-blend-mode:multiply;fill:url(#89d3d931-b294-4fc1-b641-d41a4105ae50)"/><polygon points="490.38 18.25 496.08 18.04 499.11 22.86 496.45 27.9 490.75 28.12 487.72 23.29 490.38 18.25" style="mix-blend-mode:multiply;fill:url(#f3e8c31d-c83d-48e5-9082-302f7735dfb3)"/><polygon points="165.99 32.91 171.58 32.7 174.55 37.43 171.94 42.37 166.36 42.58 163.38 37.85 165.99 32.91" style="mix-blend-mode:multiply;fill:url(#bd4bce78-1016-4762-9977-54bcc80a2fe5)"/><polygon points="286.38 49.32 309.58 48.44 321.95 68.1 311.1 88.64 287.89 89.52 275.53 69.86 286.38 49.32" style="mix-blend-mode:multiply;fill:url(#d25c8f7a-2aca-4407-a348-e546cd41781c)"/><polygon points="47.38 164.36 81.62 163.06 99.86 192.07 83.86 222.36 49.62 223.65 31.39 194.65 47.38 164.36" style="mix-blend-mode:multiply;fill:url(#0385a25e-ca6b-40d8-a554-745c14385cbd)"/><polygon points="-20.3 132.16 5 131.2 18.48 152.63 6.66 175.02 -18.64 175.98 -32.12 154.54 -20.3 132.16" style="mix-blend-mode:multiply;fill:url(#f2e726eb-c478-4840-8d98-c62d487edf6d)"/><polygon points="0.6 9.82 5.9 9.62 8.73 14.12 6.25 18.81 0.94 19.01 -1.88 14.52 0.6 9.82" style="mix-blend-mode:multiply;fill:url(#5214e178-6589-431b-b604-326728a1b5c1)"/><polygon points="109.87 93.78 146.01 92.42 165.26 123.03 148.37 155.01 112.24 156.37 92.99 125.76 109.87 93.78" style="mix-blend-mode:multiply;fill:url(#b04db507-ec83-4478-bed0-bf43ab95867b)"/><polygon points="-10.8 180.06 -2.65 179.75 1.69 186.65 -2.12 193.86 -10.27 194.17 -14.61 187.27 -10.8 180.06" style="mix-blend-mode:multiply;fill:url(#73b8715e-0ed7-47c0-ac84-2f50334ded60)"/><polygon points="19.08 61.12 56.83 59.69 76.94 91.67 59.3 125.08 21.55 126.5 1.44 94.52 19.08 61.12" style="mix-blend-mode:multiply;fill:url(#b797d842-f1e3-405c-98ec-5c62c4d4c0fe)"/><polygon points="-30.58 91.01 6.87 89.59 26.82 121.32 9.32 154.47 -28.13 155.88 -48.09 124.15 -30.58 91.01" style="mix-blend-mode:multiply;fill:url(#6e33ea92-c108-4bd8-844b-c238503a25d1)"/><polygon points="69.53 80.84 90.34 80.06 101.43 97.69 91.7 116.11 70.89 116.89 59.8 99.26 69.53 80.84" style="mix-blend-mode:multiply;fill:url(#eab936eb-c155-4070-a0e7-a6cf335443c4)"/><polygon points="120.46 26.14 140.6 25.38 151.32 42.43 141.91 60.25 121.78 61.01 111.06 43.95 120.46 26.14" style="mix-blend-mode:multiply;fill:url(#4f91e0b4-b879-49b2-859c-4f375f5d9868)"/><g style="mix-blend-mode:multiply"><path d="M4.19,147.56l-13.74,26L6.11,198.48l29.4-1.11,13.74-26-15.66-24.9-29.4,1.11M3,145.69l31.61-1.2,16.84,26.78-14.77,28L5.08,200.43l-16.84-26.77L3,145.69Z" style="fill:url(#078f44f8-2163-4ebe-afdb-d020fca526d8)"/></g><g style="mix-blend-mode:multiply"><path d="M-.19,103l-17.67,33.46,20.14,32,37.81-1.43,17.67-33.46-20.14-32L-.19,103m-1.51-2.4L39,99.07,60.6,133.51l-19,36L1,171-20.7,136.58l19-36Z" style="fill:url(#6eb22fc9-d713-4e2a-9f50-e25e39e2cc65)"/></g><g style="mix-blend-mode:multiply"><path d="M357.3.08l-5,9.49L358,18.66l10.73-.4,5-9.5L368-.33,357.3.08m-.42-.69L368.41-1l6.15,9.77-5.39,10.21-11.54.44L351.48,9.6l5.4-10.21Z" style="fill:url(#e4f66b0f-96dc-4a26-8bb4-08deff71f347)"/></g><g style="mix-blend-mode:multiply"><path d="M412.58,21.92l-2.1,4,2.39,3.81,4.5-.17,2.1-4-2.4-3.81-4.49.17m-.18-.28,4.83-.18,2.57,4.09-2.25,4.27-4.83.18-2.58-4.09,2.26-4.27Z" style="fill:url(#e9485bc5-2176-474b-b937-987b669b8157)"/></g><g style="mix-blend-mode:multiply"><path d="M3.18,9.11-11.5,36.91,5.24,63.53l31.41-1.19,14.68-27.8L34.6,7.92,3.18,9.11m-1.26-2L35.7,5.84l18,28.61L37.91,64.34,4.13,65.61-13.86,37,1.92,7.11Z" style="fill:url(#d68ee15f-3e36-4659-b0ca-2e4f9b6776fb)"/></g><g style="mix-blend-mode:multiply"><path d="M571.91-3.83,569.6.56l2.64,4.2,5-.19L579.51.19,576.87-4l-5,.18m-.19-.31,5.33-.2L579.88.17l-2.49,4.72-5.33.2L569.23.57l2.49-4.71Z" style="fill:url(#09aca21c-ece3-41ee-8b71-8e1c4c707742)"/></g><g style="mix-blend-mode:multiply"><path d="M100.49,43.42l-2.58,4.89L100.85,53l5.53-.21L109,47.89,106,43.21l-5.52.21m-.22-.35,5.94-.22,3.16,5-2.77,5.25-5.94.23-3.17-5,2.78-5.25Z" style="fill:url(#5def99a2-b376-4baf-af43-6616ea394eb5)"/></g><g style="mix-blend-mode:multiply"><path d="M235.51,52.19,231.94,59,236,65.44l7.65-.29,3.58-6.77-4.08-6.48-7.65.29m-.31-.49,8.23-.31,4.38,7L244,65.63l-8.23.31-4.38-7,3.84-7.28Z" style="fill:url(#7e91fc4e-4a93-4234-81d1-e88898d11aec)"/></g><g style="mix-blend-mode:multiply"><path d="M-1.37,69.46l-4.09,7.76,4.67,7.43L8,84.32l4.1-7.76L7.4,69.13l-8.77.33m-.35-.56,9.43-.35,5,8-4.4,8.34-9.43.35-5-8,4.4-8.35Z" style="fill:url(#b90c60ce-0c01-429e-b0f5-7eb682873279)"/></g><g style="mix-blend-mode:multiply"><path d="M371.72,31l-3.29,6.24,3.75,6,7.05-.27,3.29-6.23-3.75-6-7,.26m-.28-.45,7.58-.28,4,6.42-3.54,6.7-7.58.29-4-6.42,3.54-6.71Z" style="fill:url(#92b6ece6-38cd-4489-bab1-92129b9bd244)"/></g><g style="mix-blend-mode:multiply"><path d="M153.59,66.34l-18.15,34.37,20.69,32.91L195,132.15l18.15-34.37-20.69-32.9-38.84,1.46M152,63.87l41.76-1.57L216,97.67l-19.51,37-41.76,1.58-22.24-35.38L152,63.87Z" style="fill:url(#80f9dc8b-3c28-44c2-8273-2c4a275b9458)"/></g><g style="mix-blend-mode:multiply"><path d="M49.78,115.67,35.37,143,51.8,169.08l30.84-1.16,14.41-27.29L80.62,114.5l-30.84,1.17m-1.23-2,33.15-1.26,17.66,28.09L83.87,169.88l-33.15,1.25L33.06,143l15.49-29.33Z" style="fill:url(#ff0a93c9-95fb-4207-8b20-0b6346e6c74b)"/></g><g style="mix-blend-mode:multiply"><path d="M334.3,23.86l-4.89,9.25L335,42l10.45-.39,4.89-9.26-5.57-8.85-10.45.39m-.42-.66,11.24-.43,6,9.53-5.26,9.94-11.24.43-6-9.53,5.25-9.94Z" style="fill:url(#d071eab6-7fc5-4a4c-9d92-be991ac2de06)"/></g><g style="mix-blend-mode:multiply"><path d="M-54.93,26.18-72.27,59-52.5,90.47l37.12-1.4L2,56.22-17.81,24.78l-37.12,1.4m-1.48-2.36,39.9-1.5L4.75,56.12-13.9,91.43l-39.9,1.51L-75.06,59.13l18.65-35.31Z" style="fill:url(#51a05013-5352-450e-a7ed-efdc96462de1)"/></g><g style="mix-blend-mode:multiply"><path d="M446.72-10.69,436.9,7.9l11.2,17.8,21-.79,9.82-18.6-11.19-17.8-21,.8M445.88-12l22.59-.85,12,19.13L470,26.24l-22.59.86L435.33,8l10.55-20Z" style="fill:url(#1fdff782-adc8-4380-b9c4-6243d38d4826)"/></g><g style="mix-blend-mode:multiply"><path d="M213.92-.89,196.34,32.39l20,31.86L254,62.83l17.58-33.28-20-31.86L213.92-.89m-1.51-2.4,40.44-1.52,21.54,34.25-18.9,35.78-40.43,1.53L193.52,32.5,212.41-3.29Z" style="fill:url(#ca07111b-e2c9-448b-815e-58246d11b226)"/></g><g style="mix-blend-mode:multiply"><path d="M153.17,130.13l-8.41,15.93,9.59,15.25,18-.68,8.41-15.93-9.59-15.25-18,.68m-.72-1.14,19.35-.73,10.31,16.39-9,17.13-19.36.73-10.31-16.4,9-17.12Z" style="fill:url(#3b867a7e-da6e-4023-b369-ced8b2f559d1)"/></g><g style="mix-blend-mode:multiply"><path d="M199.74,43.67l-3.06,5.78L200.16,55l6.54-.24L209.75,49l-3.48-5.54-6.53.25m-.27-.42,7-.26,3.74,5.95L207,55.15l-7,.27-3.74-6,3.28-6.22Z" style="fill:url(#12a3a558-0bd4-4920-99e2-b1fc6ad224cf)"/></g><g style="mix-blend-mode:multiply"><path d="M194.6,83.38l-8,15.17,9.13,14.52,17.14-.64,8-15.18-9.13-14.52-17.14.65m-.69-1.09,18.43-.7,9.82,15.62-8.61,16.31-18.43.69L185.3,98.6l8.61-16.31Z" style="fill:url(#d567ec0f-9aff-4dce-873f-eee8fe5e5216)"/></g><g style="mix-blend-mode:multiply"><path d="M294.88,8.22,277.64,40.87,297.3,72.12l36.89-1.39,17.25-32.65L331.78,6.82l-36.9,1.4m-1.47-2.35,39.66-1.5L354.21,38,335.67,73.08,296,74.57,274.87,41l18.54-35.1Z" style="fill:url(#414604ef-b606-45dd-be23-b1fad21facd7)"/></g><g style="mix-blend-mode:multiply"><path d="M73.26,51.13l-10.58,20L74.74,90.35l22.64-.85,10.59-20L95.9,50.27l-22.64.86m-.91-1.44,24.35-.92,13,20.62L98.29,90.94l-24.35.92L61,71.23,72.35,49.69Z" style="fill:url(#49e9f0c9-3314-41af-8282-17aaf852fb1f)"/></g><g style="mix-blend-mode:multiply"><path d="M102.35,121.77,84.11,156.32l20.8,33.07,39-1.47,18.24-34.55-20.8-33.08-39,1.48m-1.56-2.49,42-1.58,22.36,35.56L145.51,190.4l-42,1.58L81.18,156.43l19.61-37.15Z" style="fill:url(#37d30e0a-cfee-46d7-85ff-c7f3184a61ef)"/></g><g style="mix-blend-mode:multiply"><path d="M145.8,43.32l-15.31,29L147.94,100l32.75-1.23,15.3-29L178.55,42.08,145.8,43.32m-1.31-2.09,35.21-1.32,18.75,29.82L182,100.89l-35.21,1.33L128,72.39l16.45-31.16Z" style="fill:url(#91ccf84e-f346-4096-934f-1abce1780599)"/></g><g style="mix-blend-mode:multiply"><path d="M269.32-2.87l-16,30.28,18.23,29,34.22-1.29,16-30.28-18.23-29L269.32-2.87M268-5l36.78-1.39,19.6,31.17L307.15,57.28l-36.79,1.39-19.6-31.16L268-5Z" style="fill:url(#e8feaab9-10ac-43fa-9f7c-2323901e9da4)"/></g><g style="mix-blend-mode:multiply"><path d="M321,3a.95.95,0,1,0,.91-1A.94.94,0,0,0,321,3Z" style="fill:url(#a6d86dbb-2c62-4ec9-8795-68d7726cccb8)"/></g><g style="mix-blend-mode:multiply"><path d="M190.36,131a1.78,1.78,0,1,0,1.71-1.84A1.77,1.77,0,0,0,190.36,131Z" style="fill:url(#4532ceb7-d0dd-44d7-82ce-30f8cd001a71)"/></g><g style="mix-blend-mode:multiply"><path d="M118.17,201.46a3.64,3.64,0,1,0,3.5-3.78A3.63,3.63,0,0,0,118.17,201.46Z" style="fill:url(#629c142d-a834-47ba-baee-e616ee1cd89f)"/></g><g style="mix-blend-mode:multiply"><path d="M43.37,160.58a.81.81,0,0,0,1.61-.06.81.81,0,0,0-.84-.78A.81.81,0,0,0,43.37,160.58Z" style="fill:url(#07f1305d-e23e-41b2-bc9e-93887fe5e0b2)"/></g><g style="mix-blend-mode:multiply"><path d="M144.36,14.82a.49.49,0,0,0,1,0,.49.49,0,0,0-.51-.47A.48.48,0,0,0,144.36,14.82Z" style="fill:url(#f07fe40c-f77a-496b-9185-293dcc32468c)"/></g><g style="mix-blend-mode:multiply"><circle cx="48.5" cy="17.03" r="0.72" style="fill:url(#1dbd17ee-4c1c-41a4-8851-251b1b28c6a7)"/></g><g style="mix-blend-mode:multiply"><path d="M93.8,180.1a.47.47,0,0,0,.93,0,.47.47,0,1,0-.93,0Z" style="fill:url(#4dd6535e-a065-4bf4-9ac8-3694158d3bdd)"/></g><g style="mix-blend-mode:multiply"><path d="M390.3,57.91a1.07,1.07,0,1,0,1-1.11A1.06,1.06,0,0,0,390.3,57.91Z" style="fill:url(#aa30b864-bc06-4e66-940d-94ff9df86925)"/></g><g style="mix-blend-mode:multiply"><path d="M56,72a.52.52,0,0,0,.54.5.52.52,0,0,0,.5-.54.52.52,0,0,0-1,0Z" style="fill:url(#df8de740-07da-4f2e-8032-30cbb66f13a5)"/></g><g style="mix-blend-mode:multiply"><circle cx="121.14" cy="8.12" r="2.11" style="fill:url(#5e046b67-5eac-4a78-baa8-460b0dd5f6a9)"/></g><g style="mix-blend-mode:multiply"><path d="M293.84,104.58a1.9,1.9,0,1,0,1.82-2A1.91,1.91,0,0,0,293.84,104.58Z" style="fill:url(#222ceccc-e3a0-47e6-8c7f-983758308826)"/></g><g style="mix-blend-mode:multiply"><path d="M92.55,143.91a.68.68,0,0,0,1.35,0,.68.68,0,0,0-1.35,0Z" style="fill:url(#1eedf00e-cd56-4001-ad90-9e40d27ef71a)"/></g><g style="mix-blend-mode:multiply"><path d="M522.9,9a2.78,2.78,0,1,0,2.67-2.88A2.77,2.77,0,0,0,522.9,9Z" style="fill:url(#c522bd33-8533-4970-ab54-533fcfba0bf3)"/></g><g style="mix-blend-mode:multiply"><path d="M263.75,16.13a.75.75,0,1,0,.71-.77A.73.73,0,0,0,263.75,16.13Z" style="fill:url(#001688d1-1a92-44b1-aa0a-b5c9801f0614)"/></g><g style="mix-blend-mode:multiply"><path d="M119.33,86a2.41,2.41,0,1,0,2.32-2.5A2.41,2.41,0,0,0,119.33,86Z" style="fill:url(#907a2a41-21e0-4b5e-a617-093f370fc267)"/></g><g style="mix-blend-mode:multiply"><path d="M238.6,4.05a2.75,2.75,0,1,0,2.64-2.86A2.75,2.75,0,0,0,238.6,4.05Z" style="fill:url(#a97a0255-4be1-43d0-859e-5c2f22e5a8b2)"/></g><g style="mix-blend-mode:multiply"><path d="M12.79,105.71a1.28,1.28,0,0,0,1.33,1.23,1.28,1.28,0,1,0-1.33-1.23Z" style="fill:url(#e6b55eca-6366-4ddb-9604-afd3b54366cd)"/></g><g style="mix-blend-mode:multiply"><circle cx="153.01" cy="114.03" r="2.48" style="fill:url(#9f9d686a-093e-455a-bc36-47b5cf2ad957)"/></g><g style="mix-blend-mode:multiply"><path d="M29,202.07a.44.44,0,0,0,.88,0,.44.44,0,1,0-.88,0Z" style="fill:url(#d5cb9d26-41b6-4dc1-bf00-91e8abd9bade)"/></g><g style="mix-blend-mode:multiply"><circle cx="268.32" cy="61.82" r="2.2" style="fill:url(#ed3c39d2-cb5c-40a2-b75b-ccda4cb8e5b2)"/></g><g style="mix-blend-mode:multiply"><circle cx="32.36" cy="58.84" r="0.54" style="fill:url(#b7bcd432-4d89-4879-bbdd-93b0e8edb595)"/></g><g style="mix-blend-mode:multiply"><path d="M91.35,14.73a1.56,1.56,0,1,0,1.5-1.62A1.56,1.56,0,0,0,91.35,14.73Z" style="fill:url(#78d191e7-9bc5-483e-bdef-06aa8ed5ac32)"/></g></g></g></g></svg>