<svg id="d8ebb228-57a9-4ab4-90e5-37c17e643fb5" data-name="teist" xmlns="http://www.w3.org/2000/svg" viewBox="0 0 57.64 57.64"><polygon points="9.14 0.7 14.76 0.7 14.76 14.76 0.7 14.76 0.7 9.14 9.14 9.14 9.14 0.7"/><polygon points="14.76 42.88 14.76 56.94 9.14 56.94 9.14 48.5 0.7 48.5 0.7 42.88 14.76 42.88"/><path d="M17.57,17.57v22.5h22.5V17.57ZM34.44,34.44H23.2V23.2H34.44Z"/><polygon points="56.94 9.14 56.94 14.76 42.88 14.76 42.88 0.7 48.5 0.7 48.5 9.14 56.94 9.14"/><polygon points="56.94 42.88 56.94 48.5 48.5 48.5 48.5 56.94 42.88 56.94 42.88 42.88 56.94 42.88"/></svg>