<svg id="edeb0e7b-be38-42fa-8f43-f041740903ee" data-name="Design" xmlns="http://www.w3.org/2000/svg" viewBox="0 0 288 288"><title>vo4</title><polygon points="-1.47 140.63 1.12 136.15 3.71 140.63 -1.47 140.63" style="fill:#333"/><polygon points="1.12 150.9 -1.42 146.51 3.65 146.51 1.12 150.9" style="fill:#333"/><polygon points="6.23 153.85 8.77 149.46 11.3 153.85 6.23 153.85" style="fill:#333"/><polygon points="16.42 151.04 13.76 146.43 19.08 146.43 16.42 151.04" style="fill:#333"/><polygon points="13.68 140.72 16.42 135.97 19.16 140.72 13.68 140.72" style="fill:#333"/><polygon points="8.77 137.84 6.07 133.16 11.47 133.16 8.77 137.84" style="fill:#333"/><polygon points="8.77 164.14 6.24 159.76 11.3 159.76 8.77 164.14" style="fill:#333"/><polygon points="21.3 153.99 24.07 149.19 26.84 153.99 21.3 153.99" style="fill:#333"/><polygon points="24.07 137.96 21.26 133.1 26.88 133.1 24.07 137.96" style="fill:#333"/><polygon points="5.99 127.49 8.77 122.67 11.55 127.49 5.99 127.49" style="fill:#333"/><polygon points="-1.51 167.16 1.12 162.61 3.74 167.16 -1.51 167.16" style="fill:#333"/><polygon points="13.76 167.18 16.42 162.56 19.08 167.18 13.76 167.18" style="fill:#333"/><polygon points="24.07 164.38 21.34 159.64 26.8 159.64 24.07 164.38" style="fill:#333"/><polygon points="31.72 151.5 28.67 146.21 34.77 146.21 31.72 151.5" style="fill:#333"/><polygon points="28.62 140.93 31.72 135.55 34.83 140.93 28.62 140.93" style="fill:#333"/><polygon points="21.29 127.49 24.07 122.67 26.85 127.49 21.29 127.49" style="fill:#333"/><polygon points="16.42 124.68 13.64 119.86 19.2 119.86 16.42 124.68" style="fill:#333"/><polygon points="1.12 124.64 -1.63 119.88 3.87 119.88 1.12 124.64" style="fill:#333"/><polygon points="1.12 177.66 -1.64 172.88 3.88 172.88 1.12 177.66" style="fill:#333"/><polygon points="6.03 180.47 8.77 175.73 11.51 180.47 6.03 180.47" style="fill:#333"/><polygon points="16.42 177.61 13.7 172.9 19.14 172.9 16.42 177.61" style="fill:#333"/><polygon points="28.92 167.26 31.72 162.41 34.52 167.26 28.92 167.26" style="fill:#333"/><polygon points="39.37 164.53 36.5 159.57 42.24 159.57 39.37 164.53" style="fill:#333"/><polygon points="36.2 154.22 39.37 148.72 42.55 154.22 36.2 154.22" style="fill:#333"/><polygon points="39.37 138.6 36 132.77 42.74 132.77 39.37 138.6" style="fill:#333"/><polygon points="36.2 127.71 39.37 122.22 42.54 127.71 36.2 127.71" style="fill:#333"/><polygon points="31.72 124.81 28.83 119.8 34.62 119.8 31.72 124.81" style="fill:#333"/><polygon points="13.6 114.26 16.42 109.38 19.23 114.26 13.6 114.26" style="fill:#333"/><polygon points="8.77 111.61 5.83 106.52 11.71 106.52 8.77 111.61" style="fill:#333"/><polygon points="-1.67 114.24 1.12 109.42 3.9 114.24 -1.67 114.24" style="fill:#333"/><polygon points="8.77 191.1 5.85 186.04 11.69 186.04 8.77 191.1" style="fill:#333"/><polygon points="21.33 180.47 24.07 175.73 26.81 180.47 21.33 180.47" style="fill:#333"/><polygon points="31.72 177.59 29.02 172.92 34.42 172.92 31.72 177.59" style="fill:#333"/><polygon points="44.44 167.13 47.02 162.65 49.61 167.13 44.44 167.13" style="fill:#333"/><polygon points="47.02 151.77 43.73 146.07 50.32 146.07 47.02 151.77" style="fill:#333"/><polygon points="43.59 141.12 47.02 135.17 50.45 141.12 43.59 141.12" style="fill:#333"/><polygon points="47.02 125.06 43.91 119.67 50.13 119.67 47.02 125.06" style="fill:#333"/><polygon points="28.94 114.24 31.72 109.42 34.51 114.24 28.94 114.24" style="fill:#333"/><polygon points="24.07 111.4 21.31 106.62 26.83 106.62 24.07 111.4" style="fill:#333"/><polygon points="5.62 101.19 8.77 95.75 11.91 101.19 5.62 101.19" style="fill:#333"/><polygon points="-2.17 194.04 1.12 188.35 4.4 194.04 -2.17 194.04" style="fill:#333"/><polygon points="13.46 193.85 16.42 188.73 19.38 193.85 13.46 193.85" style="fill:#333"/><polygon points="24.07 190.94 21.29 186.12 26.85 186.12 24.07 190.94" style="fill:#333"/><polygon points="36.92 180.31 39.37 176.06 41.82 180.31 36.92 180.31" style="fill:#333"/><polygon points="47.02 177.09 44.76 173.17 49.28 173.17 47.02 177.09" style="fill:#333"/><polygon points="54.67 163.93 52.33 159.87 57.02 159.87 54.67 163.93" style="fill:#333"/><polygon points="51.88 154 54.67 149.16 57.47 154 51.88 154" style="fill:#333"/><polygon points="54.67 138.39 51.49 132.88 57.86 132.88 54.67 138.39" style="fill:#333"/><polygon points="51.65 127.63 54.67 122.4 57.69 127.63 51.65 127.63" style="fill:#333"/><polygon points="44.22 114.25 47.02 109.4 49.82 114.25 44.22 114.25" style="fill:#333"/><polygon points="39.37 111.36 36.65 106.64 42.1 106.64 39.37 111.36" style="fill:#333"/><polygon points="21.16 101.06 24.07 96.02 26.98 101.06 21.16 101.06" style="fill:#333"/><polygon points="16.42 98.7 13.18 93.09 19.66 93.09 16.42 98.7" style="fill:#333"/><polygon points="1.12 98.65 -2.08 93.12 4.31 93.12 1.12 98.65" style="fill:#333"/><polygon points="1.12 205.27 -2.6 198.83 4.84 198.83 1.12 205.27" style="fill:#333"/><polygon points="5.1 207.51 8.77 201.16 12.44 207.51 5.1 207.51" style="fill:#333"/><polygon points="16.42 204.77 13.14 199.08 19.7 199.08 16.42 204.77" style="fill:#333"/><polygon points="29.14 193.63 31.72 189.16 34.3 193.63 29.14 193.63" style="fill:#333"/><polygon points="39.37 190.32 37.12 186.43 41.62 186.43 39.37 190.32" style="fill:#333"/><polygon points="53.03 179.84 54.67 176.99 56.32 179.84 53.03 179.84" style="fill:#333"/><polygon points="62.33 175.86 61.12 173.78 63.52 173.78 62.33 175.86" style="fill:#333"/><polygon points="60.82 166.51 62.33 163.9 63.83 166.51 60.82 166.51" style="fill:#333"/><polygon points="62.33 150.66 59.99 146.62 64.66 146.62 62.33 150.66" style="fill:#333"/><polygon points="59.71 140.64 62.33 136.12 64.94 140.64 59.71 140.64" style="fill:#333"/><polygon points="62.33 124.41 59.77 119.99 64.88 119.99 62.33 124.41" style="fill:#333"/><polygon points="60.06 113.94 62.33 110.01 64.59 113.94 60.06 113.94" style="fill:#333"/><polygon points="54.67 111.01 52.25 106.81 57.1 106.81 54.67 111.01" style="fill:#333"/><polygon points="36.81 100.86 39.37 96.42 41.94 100.86 36.81 100.86" style="fill:#333"/><polygon points="31.72 98.18 28.94 93.35 34.51 93.35 31.72 98.18" style="fill:#333"/><polygon points="12.71 88.27 16.42 81.85 20.13 88.27 12.71 88.27" style="fill:#333"/><polygon points="8.77 86.48 4.64 79.32 12.9 79.32 8.77 86.48" style="fill:#333"/><polygon points="-2.59 88.27 1.12 81.85 4.82 88.27 -2.59 88.27" style="fill:#333"/><polygon points="8.77 218.99 4.64 211.85 12.89 211.85 8.77 218.99" style="fill:#333"/><polygon points="20.85 207.25 24.07 201.68 27.29 207.25 20.85 207.25" style="fill:#333"/><polygon points="31.72 204.13 28.99 199.4 34.45 199.4 31.72 204.13" style="fill:#333"/><polygon points="45.26 193.16 47.02 190.1 48.79 193.16 45.26 193.16" style="fill:#333"/><polygon points="54.67 189.35 53.27 186.91 56.08 186.91 54.67 189.35" style="fill:#333"/><polygon points="69.43 179.21 69.98 178.26 70.52 179.21 69.43 179.21" style="fill:#333"/><polygon points="69.98 162.36 68.99 160.65 70.97 160.65 69.98 162.36" style="fill:#333"/><polygon points="68.65 153.15 69.98 150.86 71.3 153.15 68.65 153.15" style="fill:#333"/><polygon points="69.98 136.86 68.12 133.65 71.83 133.65 69.98 136.86" style="fill:#333"/><polygon points="68.11 126.96 69.98 123.73 71.84 126.96 68.11 126.96" style="fill:#333"/><polygon points="69.98 109.93 68.49 107.36 71.46 107.36 69.98 109.93" style="fill:#333"/><polygon points="52.61 100.57 54.67 96.99 56.74 100.57 52.61 100.57" style="fill:#333"/><polygon points="47.02 97.56 44.77 93.66 49.27 93.66 47.02 97.56" style="fill:#333"/><polygon points="28.66 87.9 31.72 82.59 34.78 87.9 28.66 87.9" style="fill:#333"/><polygon points="24.07 85.99 20.36 79.57 27.78 79.57 24.07 85.99" style="fill:#333"/><polygon points="3.78 75.75 8.77 67.12 13.76 75.75 3.78 75.75" style="fill:#333"/><polygon points="-3.45 221.28 1.12 213.37 5.69 221.28 -3.45 221.28" style="fill:#333"/><polygon points="12.3 221.02 16.42 213.89 20.54 221.02 12.3 221.02" style="fill:#333"/><polygon points="24.07 218.24 20.59 212.22 27.54 212.22 24.07 218.24" style="fill:#333"/><polygon points="37.1 206.71 39.37 202.77 41.65 206.71 37.1 206.71" style="fill:#333"/><polygon points="47.02 202.94 45.32 200 48.72 200 47.02 202.94" style="fill:#333"/><polygon points="61.56 192.59 62.33 191.26 63.09 192.59 61.56 192.59" style="fill:#333"/><polygon points="69.98 188.21 69.56 187.48 70.4 187.48 69.98 188.21" style="fill:#333"/><polygon points="77.63 174.75 77.38 174.33 77.87 174.33 77.63 174.75" style="fill:#333"/><polygon points="77.28 165.84 77.63 165.23 77.98 165.84 77.28 165.84" style="fill:#333"/><polygon points="77.63 148.84 76.88 147.54 78.38 147.54 77.63 148.84" style="fill:#333"/><polygon points="76.67 139.69 77.63 138.03 78.58 139.69 76.67 139.69" style="fill:#333"/><polygon points="77.63 122.7 76.56 120.85 78.7 120.85 77.63 122.7" style="fill:#333"/><polygon points="76.66 113.19 77.63 111.52 78.59 113.19 76.66 113.19" style="fill:#333"/><polygon points="68.84 100.03 69.98 98.07 71.11 100.03 68.84 100.03" style="fill:#333"/><polygon points="62.33 96.64 60.87 94.13 63.78 94.13 62.33 96.64" style="fill:#333"/><polygon points="44.76 87.44 47.02 83.51 49.29 87.44 44.76 87.44" style="fill:#333"/><polygon points="39.37 84.93 36.59 80.1 42.16 80.1 39.37 84.93" style="fill:#333"/><polygon points="19.66 75.42 24.07 67.78 28.48 75.42 19.66 75.42" style="fill:#333"/><polygon points="16.42 74.49 11.19 65.44 21.65 65.44 16.42 74.49" style="fill:#333"/><polygon points="1.12 74.61 -4.21 65.38 6.45 65.38 1.12 74.61" style="fill:#333"/><polygon points="1.12 233.42 -4.03 224.51 6.26 224.51 1.12 233.42" style="fill:#333"/><polygon points="3.42 234.99 8.77 225.72 14.12 234.99 3.42 234.99" style="fill:#333"/><polygon points="16.42 232.9 11.73 224.77 21.11 224.77 16.42 232.9" style="fill:#333"/><polygon points="28.69 220.4 31.72 215.15 34.75 220.4 28.69 220.4" style="fill:#333"/><polygon points="39.37 216.9 37.06 212.9 41.68 212.9 39.37 216.9" style="fill:#333"/><polygon points="53.55 206.04 54.67 204.1 55.8 206.04 53.55 206.04" style="fill:#333"/><polygon points="62.33 201.73 61.67 200.6 62.98 200.6 62.33 201.73" style="fill:#333"/><polygon points="77.5 192.22 77.63 192 77.75 192.22 77.5 192.22" style="fill:#333"/><polygon points="85.28 187.75 85.26 187.71 85.3 187.71 85.28 187.75" style="fill:#333"/><polygon points="85.24 178.91 85.28 178.85 85.31 178.91 85.24 178.91" style="fill:#333"/><polygon points="85.28 161.37 85.15 161.15 85.4 161.15 85.28 161.37" style="fill:#333"/><polygon points="85.06 152.51 85.28 152.13 85.5 152.51 85.06 152.51" style="fill:#333"/><polygon points="85.28 135.21 84.85 134.47 85.7 134.47 85.28 135.21" style="fill:#333"/><polygon points="84.81 126.15 85.28 125.34 85.75 126.15 84.81 126.15" style="fill:#333"/><polygon points="85.28 108.65 84.9 107.99 85.66 107.99 85.28 108.65" style="fill:#333"/><polygon points="85.01 99.53 85.28 99.07 85.55 99.53 85.01 99.53" style="fill:#333"/><polygon points="77.63 95.57 77.1 94.66 78.16 94.66 77.63 95.57" style="fill:#333"/><polygon points="61.03 86.87 62.33 84.64 63.61 86.87 61.03 86.87" style="fill:#333"/><polygon points="54.67 83.75 52.91 80.69 56.44 80.69 54.67 83.75" style="fill:#333"/><polygon points="36.36 74.62 39.37 69.39 42.39 74.62 36.36 74.62" style="fill:#333"/><polygon points="31.72 73.04 27.75 66.17 35.69 66.17 31.72 73.04" style="fill:#333"/><polygon points="10.69 62.93 16.42 53.01 22.14 62.93 10.69 62.93" style="fill:#333"/><polygon points="8.77 62.57 2.39 51.52 15.15 51.52 8.77 62.57" style="fill:#333"/><polygon points="-5.07 63.2 1.12 52.48 7.3 63.2 -5.07 63.2" style="fill:#333"/><polygon points="8.77 247.19 3.17 237.5 14.36 237.5 8.77 247.19" style="fill:#333"/><polygon points="19.8 234.36 24.07 226.97 28.33 234.36 19.8 234.36" style="fill:#333"/><polygon points="31.72 231.25 28.46 225.6 34.98 225.6 31.72 231.25" style="fill:#333"/><polygon points="45.47 219.54 47.02 216.86 48.57 219.54 45.47 219.54" style="fill:#333"/><polygon points="54.67 215.38 53.67 213.65 55.67 213.65 54.67 215.38" style="fill:#333"/><polygon points="69.69 205.56 69.98 205.07 70.26 205.56 69.69 205.56" style="fill:#333"/><polygon points="77.63 201.09 77.53 200.92 77.72 200.92 77.63 201.09" style="fill:#333"/><polygon points="92.93 165.64 92.93 165.64 92.93 165.64 92.93 165.64" style="fill:#333"/><polygon points="92.93 148.03 92.87 147.94 92.98 147.94 92.93 148.03" style="fill:#333"/><polygon points="92.82 139.2 92.93 139.01 93.04 139.2 92.82 139.2" style="fill:#333"/><polygon points="92.93 121.64 92.78 121.38 93.08 121.38 92.93 121.64" style="fill:#333"/><polygon points="92.79 112.71 92.93 112.47 93.07 112.71 92.79 112.71" style="fill:#333"/><polygon points="92.93 95.02 92.88 94.93 92.98 94.93 92.93 95.02" style="fill:#333"/><polygon points="77.23 86.36 77.63 85.67 78.02 86.36 77.23 86.36" style="fill:#333"/><polygon points="69.98 82.5 69.29 81.31 70.66 81.31 69.98 82.5" style="fill:#333"/><polygon points="53.02 73.83 54.67 70.96 56.33 73.83 53.02 73.83" style="fill:#333"/><polygon points="47.02 71.11 44.73 67.13 49.32 67.13 47.02 71.11" style="fill:#333"/><polygon points="27.64 61.98 31.72 54.91 35.8 61.98 27.64 61.98" style="fill:#333"/><polygon points="24.07 60.96 19.08 52.33 29.06 52.33 24.07 60.96" style="fill:#333"/><polygon points="2.45 50.02 8.77 39.07 15.09 50.02 2.45 50.02" style="fill:#333"/><polygon points="-4.61 248.46 1.12 238.54 6.84 248.46 -4.61 248.46" style="fill:#333"/><polygon points="11.25 248.14 16.42 239.18 21.59 248.14 11.25 248.14" style="fill:#333"/><polygon points="24.07 245.81 19.68 238.2 28.46 238.2 24.07 245.81" style="fill:#333"/><polygon points="36.99 233.28 39.37 229.15 41.76 233.28 36.99 233.28" style="fill:#333"/><polygon points="47.02 229.17 45.56 226.64 48.48 226.64 47.02 229.17" style="fill:#333"/><polygon points="61.88 218.9 62.33 218.13 62.77 218.9 61.88 218.9" style="fill:#333"/><polygon points="69.98 214.47 69.77 214.11 70.19 214.11 69.98 214.47" style="fill:#333"/><polygon points="85.27 205.4 85.28 205.38 85.29 205.4 85.27 205.4" style="fill:#333"/><polygon points="100.58 134.73 100.57 134.71 100.59 134.71 100.58 134.73" style="fill:#333"/><polygon points="100.57 125.89 100.58 125.87 100.59 125.89 100.57 125.89" style="fill:#333"/><polygon points="100.58 108.23 100.57 108.21 100.59 108.21 100.58 108.23" style="fill:#333"/><polygon points="100.58 99.38 100.58 99.38 100.58 99.38 100.58 99.38" style="fill:#333"/><polygon points="92.9 86.14 92.93 86.1 92.95 86.14 92.9 86.14" style="fill:#333"/><polygon points="85.28 81.84 85.16 81.64 85.39 81.64 85.28 81.84" style="fill:#333"/><polygon points="69.44 73.18 69.98 72.26 70.51 73.18 69.44 73.18" style="fill:#333"/><polygon points="62.33 69.54 61.39 67.92 63.26 67.92 62.33 69.54" style="fill:#333"/><polygon points="44.93 60.83 47.02 57.2 49.12 60.83 44.93 60.83" style="fill:#333"/><polygon points="39.37 58.58 36.45 53.52 42.29 53.52 39.37 58.58" style="fill:#333"/><polygon points="19.38 49.08 24.07 40.95 28.76 49.08 19.38 49.08" style="fill:#333"/><polygon points="16.42 48.13 11.07 38.86 21.77 38.86 16.42 48.13" style="fill:#333"/><polygon points="1.12 49.54 -5.45 38.16 7.68 38.16 1.12 49.54" style="fill:#333"/><polygon points="-13.08 50.15 -6.53 38.81 0.01 50.15 -13.08 50.15" style="fill:#333"/><polygon points="1.12 260.7 -4.7 250.63 6.94 250.63 1.12 260.7" style="fill:#333"/><polygon points="3.34 261.54 8.77 252.13 14.2 261.54 3.34 261.54" style="fill:#333"/><polygon points="16.42 259.86 11.33 251.05 21.51 251.05 16.42 259.86" style="fill:#333"/><polygon points="28.35 247.1 31.72 241.25 35.09 247.1 28.35 247.1" style="fill:#333"/><polygon points="39.37 243.44 37.03 239.38 41.71 239.38 39.37 243.44" style="fill:#333"/><polygon points="53.96 232.31 54.67 231.07 55.39 232.31 53.96 232.31" style="fill:#333"/><polygon points="62.33 227.86 62 227.29 62.65 227.29 62.33 227.86" style="fill:#333"/><polygon points="77.59 218.67 77.63 218.6 77.67 218.67 77.59 218.67" style="fill:#333"/><polygon points="85.28 214.23 85.28 214.23 85.28 214.23 85.28 214.23" style="fill:#333"/><polygon points="85.22 72.91 85.28 72.8 85.34 72.91 85.22 72.91" style="fill:#333"/><polygon points="77.63 68.66 77.45 68.36 77.8 68.36 77.63 68.66" style="fill:#333"/><polygon points="61.59 60.05 62.33 58.77 63.06 60.05 61.59 60.05" style="fill:#333"/><polygon points="54.67 56.59 53.48 54.52 55.87 54.52 54.67 56.59" style="fill:#333"/><polygon points="36.9 47.8 39.37 43.51 41.85 47.8 36.9 47.8" style="fill:#333"/><polygon points="31.72 45.66 28.51 40.1 34.93 40.1 31.72 45.66" style="fill:#333"/><polygon points="12.01 35.66 16.42 28.03 20.83 35.66 12.01 35.66" style="fill:#333"/><polygon points="8.77 34.17 4.03 25.97 13.5 25.97 8.77 34.17" style="fill:#333"/><polygon points="-4.92 36.6 1.12 26.15 7.15 36.6 -4.92 36.6" style="fill:#333"/><polygon points="8.77 272.82 3.93 264.44 13.61 264.44 8.77 272.82" style="fill:#333"/><polygon points="19.8 260.87 24.07 253.47 28.34 260.87 19.8 260.87" style="fill:#333"/><polygon points="31.72 257.91 28.32 252.02 35.12 252.02 31.72 257.91" style="fill:#333"/><polygon points="45.66 245.94 47.02 243.58 48.38 245.94 45.66 245.94" style="fill:#333"/><polygon points="54.67 241.48 54.03 240.36 55.32 240.36 54.67 241.48" style="fill:#333"/><polygon points="69.9 231.94 69.98 231.81 70.05 231.94 69.9 231.94" style="fill:#333"/><polygon points="77.63 227.49 77.62 227.48 77.64 227.48 77.63 227.49" style="fill:#333"/><polygon points="92.93 68.46 92.93 68.46 92.93 68.46 92.93 68.46" style="fill:#333"/><polygon points="77.52 59.69 77.63 59.5 77.73 59.69 77.52 59.69" style="fill:#333"/><polygon points="69.98 55.53 69.69 55.04 70.26 55.04 69.98 55.53" style="fill:#333"/><polygon points="53.8 46.88 54.67 45.36 55.55 46.88 53.8 46.88" style="fill:#333"/><polygon points="47.02 43.41 45.76 41.23 48.28 41.23 47.02 43.41" style="fill:#333"/><polygon points="29.37 34.48 31.72 30.4 34.07 34.48 29.37 34.48" style="fill:#333"/><polygon points="24.07 31.92 21.29 27.09 26.86 27.09 24.07 31.92" style="fill:#333"/><polygon points="5.16 21.95 8.77 15.71 12.37 21.95 5.16 21.95" style="fill:#333"/><polygon points="-3.75 274.47 1.12 266.03 5.99 274.47 -3.75 274.47" style="fill:#333"/><polygon points="12.27 274.05 16.42 266.86 20.57 274.05 12.27 274.05" style="fill:#333"/><polygon points="36.85 259.86 39.37 255.5 41.89 259.86 36.85 259.86" style="fill:#333"/><polygon points="47.02 255.68 45.56 253.14 48.49 253.14 47.02 255.68" style="fill:#333"/><polygon points="62.09 245.29 62.33 244.88 62.56 245.29 62.09 245.29" style="fill:#333"/><polygon points="69.98 240.79 69.92 240.7 70.03 240.7 69.98 240.79" style="fill:#333"/><polygon points="85.28 55.23 85.26 55.2 85.3 55.2 85.28 55.23" style="fill:#333"/><polygon points="69.8 46.47 69.98 46.17 70.15 46.47 69.8 46.47" style="fill:#333"/><polygon points="62.33 42.31 62.01 41.77 62.64 41.77 62.33 42.31" style="fill:#333"/><polygon points="46.24 33.57 47.02 32.21 47.81 33.57 46.24 33.57" style="fill:#333"/><polygon points="39.37 29.95 38.29 28.08 40.45 28.08 39.37 29.95" style="fill:#333"/><polygon points="22.24 20.92 24.07 17.76 25.9 20.92 22.24 20.92" style="fill:#333"/><polygon points="16.42 17.98 14.23 14.19 18.61 14.19 16.42 17.98" style="fill:#333"/><polygon points="1.12 20.1 -2.91 13.13 5.15 13.13 1.12 20.1" style="fill:#333"/><polygon points="1.12 285.38 -3.11 278.05 5.35 278.05 1.12 285.38" style="fill:#333"/><polygon points="5.23 286.95 8.77 280.82 12.31 286.95 5.23 286.95" style="fill:#333"/><polygon points="16.42 284.74 12.74 278.37 20.1 278.37 16.42 284.74" style="fill:#333"/><polygon points="28.16 273.71 31.72 267.54 35.29 273.71 28.16 273.71" style="fill:#333"/><polygon points="39.37 270.5 36.55 265.61 42.2 265.61 39.37 270.5" style="fill:#333"/><polygon points="53.74 258.94 54.67 257.33 55.6 258.94 53.74 258.94" style="fill:#333"/><polygon points="62.33 254.36 62 253.8 62.65 253.8 62.33 254.36" style="fill:#333"/><polygon points="77.63 245.15 77.63 245.15 77.63 245.15 77.63 245.15" style="fill:#333"/><polygon points="85.27 46.37 85.28 46.37 85.28 46.37 85.27 46.37" style="fill:#333"/><polygon points="77.63 41.98 77.6 41.94 77.65 41.94 77.63 41.98" style="fill:#333"/><polygon points="62.19 33.2 62.33 32.96 62.46 33.2 62.19 33.2" style="fill:#333"/><polygon points="54.67 28.98 54.44 28.56 54.91 28.56 54.67 28.98" style="fill:#333"/><polygon points="38.8 20.2 39.37 19.2 39.95 20.2 38.8 20.2" style="fill:#333"/><polygon points="31.72 16.35 30.94 15 32.51 15 31.72 16.35" style="fill:#333"/><polygon points="14.97 7.45 16.42 4.94 17.87 7.45 14.97 7.45" style="fill:#333"/><polygon points="8.77 4.45 6.82 1.07 10.72 1.07 8.77 4.45" style="fill:#333"/><polygon points="-2.14 8.5 1.12 2.85 4.38 8.5 -2.14 8.5" style="fill:#333"/><polygon points="31.72 284.94 27.87 278.27 35.57 278.27 31.72 284.94" style="fill:#333"/><polygon points="44.56 273.08 47.02 268.81 49.49 273.08 44.56 273.08" style="fill:#333"/><polygon points="54.67 268.86 53.27 266.43 56.08 266.43 54.67 268.86" style="fill:#333"/><polygon points="69.81 258.5 69.98 258.21 70.14 258.5 69.81 258.5" style="fill:#333"/><polygon points="77.63 254 77.62 253.98 77.64 253.98 77.63 254" style="fill:#333"/><polygon points="77.62 33.12 77.63 33.12 77.63 33.12 77.62 33.12" style="fill:#333"/><polygon points="69.98 28.72 69.96 28.69 69.99 28.69 69.98 28.72" style="fill:#333"/><polygon points="54.59 19.92 54.67 19.77 54.76 19.92 54.59 19.92" style="fill:#333"/><polygon points="47.02 15.63 46.86 15.36 47.18 15.36 47.02 15.63" style="fill:#333"/><polygon points="31.36 6.82 31.72 6.2 32.08 6.82 31.36 6.82" style="fill:#333"/><polygon points="24.07 2.89 23.47 1.85 24.67 1.85 24.07 2.89" style="fill:#333"/><polygon points="61.22 272.3 62.33 270.38 63.43 272.3 61.22 272.3" style="fill:#333"/><polygon points="69.98 267.68 69.6 267.02 70.36 267.02 69.98 267.68" style="fill:#333"/><polygon points="69.98 19.87 69.98 19.87 69.98 19.87 69.98 19.87" style="fill:#333"/><polygon points="62.33 15.46 62.32 15.45 62.33 15.45 62.33 15.46" style="fill:#333"/><polygon points="46.99 6.64 47.02 6.57 47.06 6.64 46.99 6.64" style="fill:#333"/><polygon points="39.37 2.28 39.3 2.16 39.44 2.16 39.37 2.28" style="fill:#333"/><polygon points="62.33 282.62 60.48 279.43 64.17 279.43 62.33 282.62" style="fill:#333"/><polygon points="77.41 271.78 77.63 271.41 77.84 271.78 77.41 271.78" style="fill:#333"/><polygon points="85.28 267.26 85.26 267.23 85.3 267.23 85.28 267.26" style="fill:#333"/><polygon points="54.67 2.2 54.67 2.2 54.67 2.2 54.67 2.2" style="fill:#333"/><polygon points="68.65 285.67 69.98 283.38 71.3 285.67 68.65 285.67" style="fill:#333"/><polygon points="77.63 281.02 77.17 280.22 78.09 280.22 77.63 281.02" style="fill:#333"/><polygon points="85.08 285.02 85.28 284.68 85.47 285.02 85.08 285.02" style="fill:#333"/><polygon points="92.93 280.5 92.92 280.48 92.94 280.48 92.93 280.5" style="fill:#333"/><rect x="-60.8" y="90.13" width="119.87" height="1" style="fill:#666"/><polygon points="59.07 90.98 52.65 90.98 59.07 94.57 59.07 90.98" style="fill:#666"/><path d="M39.43,238.58A4.6,4.6,0,1,1,44,234,4.6,4.6,0,0,1,39.43,238.58Zm0-8.69A4.09,4.09,0,1,0,43.52,234,4.09,4.09,0,0,0,39.43,229.89Z" style="fill:#666"/><circle cx="39.43" cy="233.98" r="0.84" style="fill:#666"/><path d="M62.37,91h-.56v-.17h-.23a.86.86,0,0,0,0-.17v-.35h.72v0a.53.53,0,0,0,0-.13h.34a.49.49,0,0,0,0,.13v0h.75a.86.86,0,0,0,0,.16v.19a1,1,0,0,0,0,.17h-.22V91h-.49v.18h.56v.29h-.56v.24h.2c.18,0,.32,0,.56,0,0,.12,0,.19-.07.31H63a1.89,1.89,0,0,1-.64-.07.62.62,0,0,1-.3-.23,1.48,1.48,0,0,1-.25.35.88.88,0,0,0-.24-.23,1.24,1.24,0,0,0,.33-.53c0-.07,0-.16,0-.2l.3.06,0,.09s0,.11-.06.19a.85.85,0,0,0,.1.13l.14.08Zm.71-.4H61.89v.12h1.19Z" style="fill:#666"/><path d="M64.79,91.12a1.18,1.18,0,0,0,.28.31,1.48,1.48,0,0,0-.16.27,1.2,1.2,0,0,1-.21-.26,1,1,0,0,1-.3.49,1.31,1.31,0,0,0-.22-.25.84.84,0,0,0,.3-.56h-.25v-.3h.27v-.2h-.24v-.29h.24v0a1.41,1.41,0,0,0,0-.21h.31a1.3,1.3,0,0,0,0,.25H65v.29h-.22v.2H65v.3h-.23Zm.68.22a1.19,1.19,0,0,1,0,.23A.71.71,0,0,1,65,92a1.11,1.11,0,0,0-.21-.22.53.53,0,0,0,.36-.45h-.12v-1a1.09,1.09,0,0,0,0-.2H66v1.18h-.19v.32s0,0,0,0,0,0,0,0a1.17,1.17,0,0,0,0-.23.88.88,0,0,0,.22.1,1,1,0,0,1,0,.36c0,.07-.11.09-.29.09s-.24,0-.24-.15v-.48Zm-.11-.83h.35v-.09h-.35Zm0,.29h.35v-.09h-.35Zm0,.29h.35V91h-.35Z" style="fill:#666"/><path d="M67.92,90.2l-.71,2h-.36l.72-2Z" style="fill:#666"/><path d="M69.06,90.2l-.71,2H68l.72-2Z" style="fill:#666"/><path d="M70.21,90.2l-.72,2h-.36l.72-2Z" style="fill:#666"/><path d="M72.3,91.14a.38.38,0,0,1,.08.27.41.41,0,0,1-.13.32.8.8,0,0,1-.57.18.81.81,0,0,1-.58-.19.45.45,0,0,1,0-.64.41.41,0,0,1,.21-.09.34.34,0,0,1-.19-.11.35.35,0,0,1-.1-.26.45.45,0,0,1,.08-.26.71.71,0,0,1,.55-.2c.39,0,.63.17.63.45A.37.37,0,0,1,72,91,.37.37,0,0,1,72.3,91.14Zm-.91.24c0,.13.11.2.29.2s.29-.07.29-.21-.11-.21-.29-.21S71.39,91.24,71.39,91.38Zm.06-.73c0,.11.09.18.23.18s.24-.07.24-.18-.09-.18-.24-.18S71.45,90.54,71.45,90.65Z" style="fill:#666"/><path d="M72.74,90.19h.74c0,.11,0,.19,0,.33v1a2.72,2.72,0,0,0,0,.3h-.43a2.72,2.72,0,0,0,0-.3v-1H73l-.24,0Z" style="fill:#666"/><path d="M75.39,91.14a.38.38,0,0,1,.09.27.42.42,0,0,1-.14.32.8.8,0,0,1-.57.18.82.82,0,0,1-.58-.19.45.45,0,0,1,0-.64.45.45,0,0,1,.21-.09.38.38,0,0,1-.19-.11.4.4,0,0,1-.1-.26.45.45,0,0,1,.08-.26.71.71,0,0,1,.55-.2c.39,0,.63.17.63.45a.37.37,0,0,1-.28.38A.37.37,0,0,1,75.39,91.14Zm-.91.24c0,.13.11.2.29.2s.29-.07.29-.21-.1-.21-.29-.21S74.48,91.24,74.48,91.38Zm.06-.73c0,.11.09.18.23.18s.24-.07.24-.18-.09-.18-.24-.18S74.54,90.54,74.54,90.65Z" style="fill:#666"/><path d="M75.94,91.86h-.3a1.57,1.57,0,0,1,0-.23,1,1,0,0,1,.29-.45,2.26,2.26,0,0,1,.36-.27c.17-.11.21-.16.21-.26s-.09-.16-.21-.16a.24.24,0,0,0-.21.1.38.38,0,0,0-.05.17l-.42,0a.66.66,0,0,1,.14-.36.69.69,0,0,1,.53-.2.65.65,0,0,1,.58.25.46.46,0,0,1,.06.23.46.46,0,0,1-.18.37,2.69,2.69,0,0,1-.29.22c-.17.12-.25.19-.29.28h.46l.32,0v.38l-.34,0Z" style="fill:#666"/><path d="M39.43,205a2.1,2.1,0,1,1,2.1-2.1A2.1,2.1,0,0,1,39.43,205Zm0-3.6a1.5,1.5,0,1,0,1.5,1.5A1.5,1.5,0,0,0,39.43,201.42Z" style="fill:#666"/><path d="M39.43,176.46a2.1,2.1,0,1,1,2.1-2.1A2.1,2.1,0,0,1,39.43,176.46Zm0-3.6a1.5,1.5,0,1,0,1.5,1.5A1.5,1.5,0,0,0,39.43,172.86Z" style="fill:#666"/><path d="M39.43,147.9a2.1,2.1,0,1,1,2.1-2.1A2.1,2.1,0,0,1,39.43,147.9Zm0-3.6a1.5,1.5,0,1,0,1.5,1.5A1.51,1.51,0,0,0,39.43,144.3Z" style="fill:#666"/><path d="M39.43,119.34a2.1,2.1,0,1,1,2.1-2.1A2.1,2.1,0,0,1,39.43,119.34Zm0-3.6a1.5,1.5,0,1,0,1.5,1.5A1.51,1.51,0,0,0,39.43,115.74Z" style="fill:#666"/></svg>