<?xml version="1.0" standalone="no"?>
<!DOCTYPE svg PUBLIC "-//W3C//DTD SVG 20010904//EN"
 "http://www.w3.org/TR/2001/REC-SVG-20010904/DTD/svg10.dtd">
<svg version="1.0" xmlns="http://www.w3.org/2000/svg"
 width="500.000000pt" height="500.000000pt" viewBox="0 0 500.000000 500.000000"
 preserveAspectRatio="xMidYMid meet">
<metadata>
Created by potrace 1.11, written by Peter Selinger 2001-2013
</metadata>
<g transform="translate(0.000000,500.000000) scale(0.100000,-0.100000)"
fill="#000000" stroke="none">
<path d="M11 4638 c7 -12 64 -112 128 -223 65 -110 120 -207 124 -215 4 -8 17
-31 28 -50 29 -48 237 -406 262 -450 30 -54 426 -741 557 -965 64 -110 119
-207 123 -215 4 -8 17 -31 28 -50 24 -40 163 -279 189 -325 9 -16 59 -102 110
-190 98 -169 119 -205 149 -258 86 -152 116 -205 130 -227 15 -24 45 -76 373
-645 85 -148 179 -310 208 -360 29 -49 58 -100 64 -112 6 -13 13 -23 16 -23 3
0 22 30 42 68 21 37 51 90 68 117 16 28 33 57 37 65 4 8 32 58 63 110 31 52
59 102 63 110 4 8 17 31 28 50 19 31 141 241 189 325 10 17 68 118 130 225 62
107 123 213 136 236 12 22 68 118 123 213 56 95 101 174 101 176 0 1 17 32 38
66 22 35 50 84 64 109 78 138 183 319 199 342 11 14 19 28 19 31 0 3 63 114
140 247 77 133 140 243 140 245 0 1 25 44 55 94 30 51 55 94 55 96 0 2 22 40
50 85 27 45 50 83 50 86 0 2 13 25 29 51 15 27 122 210 236 408 114 198 259
450 323 560 63 110 117 203 119 208 2 4 -1121 7 -2497 7 l-2501 0 12 -22z
m3444 -528 l60 0 -40 -24 c-22 -12 -119 -68 -215 -123 -96 -56 -191 -110 -210
-122 -19 -11 -51 -29 -70 -39 -19 -10 -111 -63 -205 -117 -271 -157 -276 -159
-294 -148 -16 10 -405 233 -471 270 -19 11 -91 53 -160 93 -69 40 -178 102
-242 139 l-118 66 118 5 c89 4 1430 4 1847 0z m-2180 -514 c11 -7 40 -24 65
-38 54 -30 584 -335 760 -437 l125 -72 0 -564 c0 -310 -3 -567 -8 -571 -4 -4
-7 -2 -7 4 0 6 -84 157 -186 334 -239 414 -406 704 -431 748 -11 19 -87 150
-168 290 -81 140 -155 270 -166 288 -20 34 -15 40 16 18z m2467 -18 c-11 -18
-29 -49 -40 -68 -10 -19 -48 -85 -84 -146 -36 -61 -68 -117 -71 -125 -4 -8
-17 -30 -28 -49 -30 -50 -220 -379 -408 -705 -89 -154 -165 -287 -170 -295 -5
-8 -40 -68 -77 -133 -37 -65 -72 -125 -78 -133 -8 -11 -11 142 -11 555 0 313
2 571 5 574 5 4 279 161 320 183 14 8 165 95 335 193 171 99 314 180 318 180
5 1 0 -14 -11 -31z"/>
</g>
</svg>
