<svg id="67cb8abb-47dd-4d11-bba4-9054c6e51a59" data-name="Layer 1" xmlns="http://www.w3.org/2000/svg" viewBox="0 0 1009.13 326.69"><title>ba3</title><path d="M-9.92,99.84c-2.2.7-3.55.73-4.38.43-4.7-1.65-13.52,2.33-22.06,6.17C-46.18,110.86-55.46,115-60,112c-1.93-1.3-2.81-3.76-2.67-7.53.41-11.25,9.19-26.89,16.49-38,9-13.75,18.84-25.46,23.25-30l.21.2-.21-.2C-9.62,22.82,2.15,10.9,11.36,3.14,21.07-5.06,27.65-8.48,32.69-7.95,35.62-7.64,38-6,40-2.86A17.7,17.7,0,0,0,51.24,5.33c4.49,1.14,9.72,1.06,15.27,1,6.7-.1,14.3-.21,22.13,1.81A3,3,0,0,1,91,10.3c.69,2.8-2.17,8-8.49,15.51A268.1,268.1,0,0,1,58.93,49.62,497.65,497.65,0,0,1,14.61,85.49C1.76,94.58-5.66,98.49-9.92,99.84Zm-13.78.79c3.82-1.22,7.18-1.75,9.59-.9C-10.89,100.86-.54,95.5,14.27,85A499.76,499.76,0,0,0,58.54,49.19C79.77,29.9,91.7,15.41,90.47,10.44a2.4,2.4,0,0,0-2-1.75c-7.76-2-15.32-1.9-22-1.8-11.2.16-20.87.3-27-9.44-1.87-2.95-4.12-4.53-6.86-4.82C22.33-8.46,5,8.73-22.52,36.85-26.91,41.35-36.71,53-45.7,66.74c-7.25,11.07-16,26.61-16.39,37.74-.13,3.54.66,5.84,2.41,7,4.28,2.87,13.84-1.43,23.09-5.59A127.48,127.48,0,0,1-23.7,100.63Z" style="fill:#383838"/><path d="M-9.23,97.6a6.67,6.67,0,0,1-3.88.39c-4.3-1.45-12.35,2.16-20.13,5.66-9,4.06-17.58,7.89-21.78,5.09-1.77-1.19-2.58-3.43-2.47-6.85.09-6,2.7-14.23,7.55-23.88A160.22,160.22,0,0,1-34.36,53.26c6.1-7.78,11.23-13.46,12.66-15C-8.4,24.54,1.45,14.72,9.47,8,18.2.76,24.42-2.4,29-1.92c2.78.29,5,1.85,6.9,4.79h0a16.44,16.44,0,0,0,10.33,7.55c4.11,1.07,8.9,1,14,1,6.1-.05,13-.1,20.14,1.77a2.91,2.91,0,0,1,2.26,2.15c1.69,7.22-20.36,28.29-29.92,37C30.36,72.74,2.16,94-9.23,97.6Zm-12.44.73c3.47-1.1,6.54-1.59,8.73-.85,6.44,2.15,39.78-22.27,65.3-45.55,19.76-18,30.89-31.66,29.76-36.47a2.37,2.37,0,0,0-1.87-1.75c-7-1.85-13.93-1.8-20-1.75C50,12,41.14,12.11,35.48,3.16h0C33.71.38,31.59-1.11,29-1.38c-9.68-1-26.2,15.18-50.29,40-1.42,1.55-6.54,7.23-12.63,15A160.82,160.82,0,0,0-49.46,78.25c-4.8,9.58-7.39,17.76-7.49,23.65-.1,3.22.63,5.31,2.24,6.38,3.94,2.64,12.74-1.31,21.24-5.13A119.15,119.15,0,0,1-21.67,98.33Z" style="fill:#383838"/><path d="M-8.42,95.35a6.14,6.14,0,0,1-3.49.36c-3.92-1.25-11.19,2-18.22,5.15-8.26,3.7-16.06,7.19-19.9,4.63-1.62-1.07-2.36-3.09-2.29-6.17,0-5.5,2.16-13.42,6.2-22.32a118.63,118.63,0,0,1,13.8-23c3.45-4.2,6.66-7.92,9.25-10.9,1-1.16,1.87-2.16,2.6-3,9.8-10.16,20-20.46,28-27.09C15.45,6.48,21.11,3.67,25.39,4.1c2.63.27,4.76,1.74,6.51,4.49h0c5,7.92,12.93,7.92,22.09,7.92,5.5,0,11.74,0,18.16,1.73,2.56.81,2.41,3.14,1.84,5-3,9.49-24.14,29.63-41.33,44C17.09,80.18-.27,92.75-8.42,95.35ZM-19.58,96c3.11-1,5.82-1.42,7.82-.77,4.29,1.34,22.42-10.35,44.1-28.45A347.49,347.49,0,0,0,59.22,42c8.07-8.4,13-15,14.28-19,.74-2.34.25-3.75-1.5-4.3C65.66,17,59.46,17,54,17c-9.31,0-17.36,0-22.52-8.16-1.66-2.61-3.67-4-6.13-4.25C16.92,3.75,3.43,16-20.09,40.37c-.72.85-1.59,1.85-2.6,3-2.58,3-5.79,6.69-9.23,10.89A117,117,0,0,0-45.65,77.21c-4,8.83-6.2,16.68-6.15,22.11-.08,2.9.59,4.78,2,5.75,3.61,2.4,11.64-1.2,19.42-4.68A111.31,111.31,0,0,1-19.58,96Z" style="fill:#383838"/><path d="M-7.71,93.1a5.54,5.54,0,0,1-3,.33c-3.52-1.06-10,1.84-16.29,4.64-7.15,3.19-14.54,6.49-18,4.18-1.45-1-2.14-2.77-2.09-5.5-.39-10.59,7.65-30.67,16.87-42.11,1.57-1.82,3.07-3.54,4.52-5.19,2.67-3.05,5-5.68,6.51-7.63l0,0c11.4-11.92,18.84-19.08,24.89-24,7-5.66,12.13-8.11,16-7.72,2.49.24,4.5,1.61,6.14,4.19h0c4.54,7.15,11.64,7.22,19.87,7.31,4.9.05,10.46.11,16.17,1.68,1.95.69,2.51,2.35,1.68,4.93-1.24,3.84-5.71,9.9-12.94,17.52A302,302,0,0,1,28.78,68,279.61,279.61,0,0,1,4.28,86.61C.37,89.19-4.39,92-7.71,93.1Zm-9.84.61c2.76-.89,5.17-1.27,7-.73S-3.45,91.14,4,86.21A279.89,279.89,0,0,0,28.48,67.59C43.62,54.84,62.3,36.84,65.13,28.08c.74-2.32.3-3.73-1.38-4.33-5.63-1.55-11.15-1.61-16-1.66-8.36-.08-15.59-.16-20.26-7.52h0c-1.56-2.45-3.45-3.75-5.78-4C13.73,9.8.79,21.56-18.87,42.12c-1.55,2-3.85,4.6-6.52,7.64-1.45,1.66-3,3.37-4.52,5.18C-39.06,66.31-47,86.24-46.66,96.74c-.05,2.58.56,4.24,1.87,5.11,3.28,2.17,10.55-1.08,17.59-4.21A97.42,97.42,0,0,1-17.55,93.71Z" style="fill:#383838"/><path d="M-6.95,90.86a5,5,0,0,1-2.57.29c-3.13-.86-8.84,1.68-14.37,4.13-6.4,2.85-13,5.79-16.18,3.72-1.29-.85-1.91-2.43-1.89-4.82-.34-4.57,1-11.75,3.5-19.19,2.69-7.91,6.42-15.07,10.23-19.66l1.16-1.26c3.67-4,7.14-7.78,9.07-10.46v0C1.3,23.19,11.4,15.49,18,16.12A7.6,7.6,0,0,1,23.82,20h0c4.06,6.37,10.35,6.52,17.65,6.68a55.3,55.3,0,0,1,14.18,1.64h0c1.83.74,2.33,2.4,1.5,4.94C54.47,41.48,38.74,57,24.91,68.73A235.89,235.89,0,0,1,3.59,85.1C.16,87.39-4,89.92-6.95,90.86Zm-8.57.55c2.42-.77,4.53-1.12,6.11-.68,3.46.9,17.77-8.49,34-22.33A258.68,258.68,0,0,0,45.39,48.82c6.27-6.73,10.2-12.15,11.36-15.66.76-2.31.36-3.74-1.23-4.38a54.7,54.7,0,0,0-14.06-1.62c-7.42-.17-13.83-.31-18-6.89h0A7.14,7.14,0,0,0,18,16.56C10.52,15.85-1.66,27-17.66,43.88a136.93,136.93,0,0,1-9.09,10.48l-1.15,1.26C-31.67,60.16-35.37,67.27-38,75.13c-2.51,7.39-3.81,14.5-3.47,19,0,2.26.54,3.71,1.69,4.47,2.95,1.94,9.47-.95,15.76-3.75A89.55,89.55,0,0,1-15.52,91.41Z" style="fill:#383838"/><path d="M-6.17,88.61a4.45,4.45,0,0,1-2.16.26c-2.73-.66-7.66,1.51-12.43,3.62-5.66,2.5-11.52,5.09-14.32,3.27-1.14-.74-1.69-2.09-1.7-4.14-1-8.06,3.12-27,10.59-35.61,3.71-3.74,7.48-7.63,9.42-10.61l0,0C-1,28.52,8.26,21.57,14.33,22.12a7.06,7.06,0,0,1,5.45,3.64h0c3.58,5.6,9.07,5.82,15.43,6.07A48.77,48.77,0,0,1,47.4,33.41h0c1.72.8,2.17,2.47,1.32,5-2.52,7.49-16,21-27.71,31.11C11.16,78-.66,86.85-6.17,88.61Zm-7.32.5a10.29,10.29,0,0,1,5.25-.63c3.08.68,15.28-7.42,29-19.27,11.7-10.1,25.09-23.52,27.59-30.94.78-2.31.42-3.77-1.1-4.47a48.16,48.16,0,0,0-12.08-1.56C28.72,32,23.13,31.76,19.44,26h0a6.69,6.69,0,0,0-5.14-3.46C8.36,22-.83,28.9-16.44,45.64c-2,3-5.74,6.91-9.45,10.65-7.4,8.56-11.47,27.31-10.49,35.29v0c0,1.9.51,3.15,1.52,3.81,2.62,1.7,8.37-.84,13.93-3.3C-18.29,91-15.74,89.83-13.49,89.11Z" style="fill:#383838"/><path d="M-5.4,86.36a3.85,3.85,0,0,1-1.73.23c-2.33-.47-6.48,1.35-10.5,3.11-4.92,2.15-10,4.39-12.47,2.81-1-.61-1.47-1.77-1.5-3.45-1.29-6.88,1-25.25,7.46-32.36,2.83-2.59,6.79-6.38,8.6-9.51l0,0C-3.2,33.69,5.1,27.63,10.58,28.09a6.74,6.74,0,0,1,5.17,3.4h0c3.09,4.82,7.77,5.12,13.2,5.45a42.36,42.36,0,0,1,10.2,1.53l0,0c1.63.86,2,2.56,1.16,5-1,3-3.88,7.2-8.45,12.34A170.27,170.27,0,0,1,17.2,70.29C9.05,77.45-.77,84.89-5.4,86.36Zm-6,.45a9.19,9.19,0,0,1,4.38-.58C-4.38,86.7,5.73,79.88,17,70c14.68-12.9,21.53-22.19,23-26.59.78-2.28.45-3.83-1-4.6a41.36,41.36,0,0,0-10.1-1.51c-5.53-.34-10.3-.64-13.5-5.62a6.27,6.27,0,0,0-4.88-3.23C5.19,28-3,34-15.23,47.4c-1.84,3.16-5.82,7-8.65,9.56-6.4,7-8.63,25.24-7.36,32v0c0,1.58.46,2.62,1.33,3.17,2.29,1.47,7.29-.72,12.12-2.84C-15.53,88.38-13.36,87.42-11.44,86.81Z" style="fill:#383838"/><path d="M-19.95,89.07c-2.13.68-4,.94-5.17.2a3.24,3.24,0,0,1-1.31-2.78c-1.6-5.75-1.28-23.39,4.33-29.1h0c3.94-3.16,6.56-6,7.78-8.39l0,0C-5.16,38.68,1.92,33.66,6.77,34a6.35,6.35,0,0,1,4.94,3.18h0c2.61,4.06,6.49,4.42,11,4.85a36.26,36.26,0,0,1,8.22,1.47l0,0c1.53,1,1.87,2.7,1,5.2-1.76,5.09-8.69,13.43-18.55,22.31A125.79,125.79,0,0,1,1.58,80.59c-2.58,1.79-6,3.89-7.51,3.72-1.94-.28-5.3,1.18-8.55,2.59C-16.34,87.71-18.24,88.53-19.95,89.07Zm-1.91-31.44C-25.12,61-26.25,68.06-26.64,72c-.53,5.45-.31,11.37.54,14.41v0A2.9,2.9,0,0,0-24.94,89c2,1.23,6.22-.62,10.33-2.4,3.44-1.49,6.7-2.91,8.72-2.61,4.76.52,33.52-23.82,37.52-35.34.8-2.32.52-3.93-.85-4.8a35.13,35.13,0,0,0-8.13-1.45c-4.57-.43-8.53-.81-11.22-5a6,6,0,0,0-4.69-3C2,34-5,39-14,49.16-15.26,51.6-17.9,54.45-21.86,57.63Z" style="fill:#383838"/><path d="M-15.75,85.84c-1.8.57-3.37.79-4.38.19a2.54,2.54,0,0,1-1.12-2.1c-1-2.42-1.83-8-1.89-13,0-3.73.3-10.36,3.09-12.89l0,0c2-1.33,5.57-4,7-7.29l0,0C-6.8,43.39-1.31,39.64,2.82,39.9a6.1,6.1,0,0,1,4.85,3h0c2.13,3.29,5.2,3.74,8.75,4.26a29.18,29.18,0,0,1,6.24,1.4l0,0c1.44,1.09,1.73,2.92.87,5.43-1.5,4.35-6.7,11-13.92,17.76C3.3,77.76-2.75,82.06-4.73,82c-1.53-.1-4,1-6.57,2.06C-12.82,84.74-14.35,85.39-15.75,85.84Zm-4.11-27.53c-4.64,4.23-2.89,21.32-1.1,25.53v0a2.24,2.24,0,0,0,1,1.89c1.66,1,5.17-.5,8.56-2,2.63-1.13,5.11-2.19,6.7-2.09,1.87,0,8-4.33,14.17-10.15,7.18-6.74,12.36-13.33,13.84-17.64.81-2.37.56-4.07-.76-5.08a29.3,29.3,0,0,0-6.15-1.38c-3.63-.53-6.76-1-9-4.38h0A5.82,5.82,0,0,0,2.8,40.2c-4-.26-9.43,3.45-15.6,10.71C-14.23,54.21-17.83,57-19.86,58.31Z" style="fill:#383838"/><path d="M-11.52,82.6c-1.47.47-2.78.66-3.63.2a1.89,1.89,0,0,1-.91-1.43c-1.15-1.71-2.57-6.71-3.25-11.4-1.15-8,.33-10.47,1.31-11.21h0c3-1.49,5.31-3.8,6.15-6.19l0,0c4.6-5.88,8.22-7,10.45-6.92a6.21,6.21,0,0,1,5,3h0c1.65,2.52,3.91,3.05,6.52,3.67a24,24,0,0,1,4.26,1.32l0,0c1.38,1.29,1.65,3.23.82,5.78C12.55,67.79-.6,79.39-3.53,79.75A17.83,17.83,0,0,0-8,81.25C-9.23,81.75-10.42,82.25-11.52,82.6ZM-17.85,59c-1.59,1.2-2,5.19-1.19,11,.67,4.68,2.08,9.65,3.21,11.32l0,0v0A1.6,1.6,0,0,0-15,82.56c1.37.76,4.29-.47,6.87-1.55a17.85,17.85,0,0,1,4.6-1.53c1.47-.18,5.51-3.26,9.4-7.17,4.69-4.72,8-9.43,9.17-12.93.79-2.43.55-4.28-.73-5.5a24.13,24.13,0,0,0-4.2-1.29c-2.67-.63-5-1.18-6.68-3.79a6,6,0,0,0-4.78-2.93c-2.16-.08-5.69,1-10.22,6.8C-12.46,55.11-14.8,57.47-17.85,59Z" style="fill:#383838"/><path d="M-7.19,79.34a4.57,4.57,0,0,1-2.94.24,1.32,1.32,0,0,1-.74-.76c-2.27-1.88-6.41-13.44-5.92-17.72.1-.87.38-1.43.85-1.65h0a7.69,7.69,0,0,0,5.34-5.09v0C-9.14,52.1-7.51,51-5.74,50.94s3.85,1.26,5.33,3.44h0a8.92,8.92,0,0,0,4.26,3.15,20.58,20.58,0,0,1,2.33,1.19l0,0c1.38,1.69,1.71,3.88,1,6.5C5.63,70.87-.29,76.72-2.32,77.46c-.57.17-1.31.48-2.1.81S-6.29,79.05-7.19,79.34Zm-8.66-19.68c-.39.19-.63.68-.71,1.47-.23,1.95.51,5.6,2,9.77,1.35,3.85,2.91,7,3.89,7.76l0,0v0a1.11,1.11,0,0,0,.63.66c1.19.51,3.6-.5,5.54-1.31.79-.33,1.53-.65,2.11-.82,2-.72,7.82-6.5,9.36-12.06.7-2.54.38-4.65-.93-6.28a20.55,20.55,0,0,0-2.29-1.16A9.09,9.09,0,0,1-.6,54.51C-2,52.39-4,51.14-5.74,51.16S-9,52.28-10.37,54.43A7.94,7.94,0,0,1-15.85,59.66Z" style="fill:#383838"/><path d="M-2.89,76.14a5,5,0,0,1-2.76.13c-1.36-.38-3.69-4-5.41-7.23s-3.41-7.15-3.23-8.45c0-.4.29-.46.42-.46a4.66,4.66,0,0,0,4.52-4c.09-.51.29-.79.57-.85.89-.19,2.43,2.05,3.66,3.85.25.36.47.69.67,1C1.43,68.29,1,72.38-.4,74.37A4.69,4.69,0,0,1-2.89,76.14Zm-11-15.8c-.07,0-.13.08-.16.28-.15,1.05,1.2,4.56,3.21,8.33,2.14,4,4.22,6.83,5.3,7.14a5,5,0,0,0,5-1.83c1.37-1.94,1.77-6-4.05-14.05l-.67-1C-6.35,57.68-8,55.32-8.74,55.48q-.3.06-.42.69a4.87,4.87,0,0,1-4.71,4.16Z" style="fill:#383838"/><path d="M251.3,106.44q-8.09,2.58-16.53,4.69c-31.62,7.88-54.64,4.41-70.36-10.6-13.62-13-19.72-32.66-25.1-50C135.73,39,132.33,28,127.2,21,110.11-2.63,98.65-5.45,91.8-7.13c-4-1-6.58-1.62-7.7-5.83s12.1-14,41.49-31.13c12.71-7.41,24.17-8.15,33.39-8.74,4.61-.3,8.6-.56,11.85-1.6l.09.27-.09-.27c8.92-2.87,11-4.63,15.72-8.47,3.89-3.2,9.78-8,23.06-16.26,11.67-7.23,31.27-14.2,51.15-18.21a190.59,190.59,0,0,1,32.75-3.81,120.51,120.51,0,0,1,31.65,3.06c17.28,4.28,29.8,12.84,37.21,25.45a86.29,86.29,0,0,1,11.81,41.09A104.94,104.94,0,0,1,365.6,13c-9.07,21.57-25,41.7-45.94,58.2A200.86,200.86,0,0,1,282,94.34,240.54,240.54,0,0,1,251.3,106.44ZM137.75-48.87a59.47,59.47,0,0,0-11.87,5.28c-13.37,7.79-23.2,14-30,18.9C86-17.59,84.3-14.47,84.67-13.1c1,3.87,3.24,4.41,7.27,5.4,6.92,1.7,18.51,4.55,35.73,28.31,5.19,7.17,8.6,18.14,12.2,29.75,5.36,17.27,11.43,36.84,24.94,49.75,15.57,14.87,38.4,18.29,69.82,10.45a249.81,249.81,0,0,0,47.16-16.74A200.24,200.24,0,0,0,319.3,70.71c20.91-16.44,36.74-36.48,45.76-58a104.39,104.39,0,0,0,8.54-44.3,85.72,85.72,0,0,0-11.73-40.81C354.55-84.85,342.14-93.32,325-97.56a119.78,119.78,0,0,0-31.49-3,189.32,189.32,0,0,0-32.65,3.8c-19.82,4-39.35,10.94-51,18.13-13.25,8.2-19.12,13-23,16.22-4.73,3.89-6.88,5.67-15.92,8.57h0c-3.31,1.06-7.31,1.32-12,1.62C152.84-51.85,145.65-51.39,137.75-48.87Z" style="fill:#383838"/><path d="M250.84,95.49q-6.54,2.08-13.34,3.83C209,106.7,188.11,104,173.58,91.07,161,79.83,154.94,62.51,149.64,47.23c-3.7-10.64-7.18-20.69-12.39-27.18C120.94-.83,109.9-3.66,103.31-5.36c-4-1-6.62-1.7-7.76-5.76-.68-2.28,2.53-6.31,9.54-12a252.06,252.06,0,0,1,26.41-18c11.44-7,21.79-8,30.1-8.81A52.76,52.76,0,0,0,172-51.53h0c9.32-2.94,11.39-4.41,17.54-8.76,4.14-2.93,9.8-6.93,20.51-13.44,11-6.68,29.26-13.16,47.74-16.93a179,179,0,0,1,30.53-3.65,111.08,111.08,0,0,1,29.42,2.73c15.61,3.83,27,11.47,33.78,22.72a79.13,79.13,0,0,1,11.22,37.53,95.42,95.42,0,0,1-7.44,40.81c-8,19.63-22.28,38-41.17,53.07A181.86,181.86,0,0,1,280.24,83.8,219.82,219.82,0,0,1,250.84,95.49ZM143.92-46.16a55.33,55.33,0,0,0-12.14,5.57c-23.22,14.08-36.9,25.31-35.7,29.32,1,3.76,3.42,4.37,7.36,5.39,6.66,1.71,17.81,4.57,34.23,25.59,5.27,6.56,8.77,16.66,12.48,27.35,5.28,15.21,11.27,32.46,23.79,43.6,14.39,12.8,35.14,15.46,63.43,8.13A225.85,225.85,0,0,0,280,83.3a181.09,181.09,0,0,0,33.82-21.18c18.82-15,33-33.3,41-52.85a94.93,94.93,0,0,0,7.41-40.57,78.58,78.58,0,0,0-11.15-37.28c-6.72-11.12-18-18.68-33.44-22.47-11.43-2.8-31.07-4.91-59.71.93-18.42,3.75-36.65,10.21-47.57,16.85-10.69,6.5-16.34,10.5-20.47,13.42-6,4.27-8.3,5.87-17.7,8.84a52.53,52.53,0,0,1-10.54,1.68A82.66,82.66,0,0,0,143.92-46.16Z" style="fill:#383838"/><path d="M250.53,84.5q-5,1.62-10.29,3c-25.36,6.88-44.17,4.93-57.51-6-11.62-9.49-17.52-24.5-22.74-37.74-3.8-9.67-7.4-18.8-12.7-24.67C131.8,1,121.2-1.86,114.86-3.56c-4-1.08-6.69-1.79-7.86-5.72C105.24-14.6,121.53-27.91,137.4-38c10.23-6.65,19.5-7.92,26.95-8.94a55.23,55.23,0,0,0,8.88-1.67h0c10.61-3.28,12.39-4.38,22.29-10.52,3.73-2.31,8.37-5.19,15-9.15s16.71-8.14,27.88-11.49A186,186,0,0,1,276.22-87c14.39-1.17,27-.19,37.51,2.9,12.24,3.6,21.32,10,27,19.09a72.1,72.1,0,0,1,10.64,34A86,86,0,0,1,345.07,6c-7,17.69-19.62,34.27-36.41,47.95C292.51,67.09,273,77.35,250.53,84.5ZM150.28-43.57a51.31,51.31,0,0,0-12.6,6c-18.91,12-31.6,23.88-30.19,28.15C108.57-5.77,111-5.12,115-4c6.4,1.71,17.1,4.57,32.69,22.87,5.35,5.92,9,15.1,12.79,24.82,5.19,13.18,11.07,28.12,22.59,37.52,13.19,10.78,31.86,12.69,57,5.86,26.76-7.13,49.72-18.39,68.24-33.48C325.06,39.92,337.6,23.42,344.6,5.81A85.55,85.55,0,0,0,350.86-31a71.44,71.44,0,0,0-10.57-33.74c-5.61-9-14.59-15.31-26.7-18.87-10.44-3.07-23-4-37.32-2.89a185.56,185.56,0,0,0-37.69,7.25c-11.13,3.34-21,7.4-27.77,11.44s-11.3,6.83-15,9.14c-9.95,6.17-11.74,7.28-22.4,10.58a57,57,0,0,1-9,1.69A80.87,80.87,0,0,0,150.28-43.57Z" style="fill:#383838"/><path d="M250,73.59c-2.32.74-4.68,1.45-7.07,2.11-22.26,6.38-39,5.17-51.1-3.72-10.6-7.77-16.13-19.94-21.49-31.7-3.93-8.65-7.64-16.81-13-22C142.72,2.76,133,.06,126.49-1.73c-4.27-1.19-6.84-1.9-8-5.72-1.75-4.81,9.17-16.91,24.86-27.54,9.1-6.38,17.38-7.92,24-9.15a67.12,67.12,0,0,0,7.1-1.58h0l1.09-.33C188-49.83,189.06-50.14,211-62.87c6.17-3.58,15.44-7.38,25.43-10.41a176.4,176.4,0,0,1,34.45-6.86c13.13-1.2,24.65-.47,34.24,2.16,11.19,3.06,19.52,8.69,24.76,16.73A65,65,0,0,1,340-30.82a76.61,76.61,0,0,1-5.16,33.34c-6,15.75-17,30.55-31.66,42.81S270.71,67,250,73.59ZM157-41.23a48.69,48.69,0,0,0-13.39,6.63c-15.26,10.34-26.33,22.45-24.68,27C120-4,122.51-3.33,126.62-2.19,132.73-.5,143,2.34,157.68,17.92c5.45,5.27,9.18,13.47,13.14,22.16,5.32,11.71,10.83,23.82,21.33,31.52,12,8.79,28.58,10,50.69,3.65,23.62-6.58,43.82-16.76,60-30.28C317.49,32.76,328.39,18,334.38,2.35a76.14,76.14,0,0,0,5.12-33.13A64.35,64.35,0,0,0,329.5-61c-5.17-7.94-13.41-13.5-24.48-16.54-9.54-2.61-21-3.33-34.08-2.14a175.51,175.51,0,0,0-34.36,6.85c-10,3-19.18,6.79-25.32,10.36-22,12.76-23,13.07-35.6,16.86l-1.08.33a63.87,63.87,0,0,1-7.15,1.59A84.31,84.31,0,0,0,157-41.23Z" style="fill:#383838"/><path d="M249.55,62.72c-1.27.4-2.55.8-3.85,1.18-43,13.18-54.65-8.35-64.89-27.35-4.07-7.54-7.91-14.67-13.42-19.2C153.7,4.54,144.39,1.88,138.23.13c-4.42-1.26-7.08-2-8.33-5.74-.92-2.32.53-6.43,4-11.26a70,70,0,0,1,15.36-15.08c8.19-6.33,15.34-8.08,21.65-9.62,1.68-.41,3.26-.79,4.77-1.25h0c2.28-.67,4.28-1.21,6.05-1.69,8.14-2.2,13.06-3.54,29.8-12.93,10.67-6,32.15-13.51,54.09-15.79,11.87-1.23,22.29-.76,31,1.41,10.14,2.54,17.72,7.37,22.53,14.37a57.86,57.86,0,0,1,9.51,26.89,67.28,67.28,0,0,1-4,29.62c-5,13.81-14.32,26.84-26.92,37.68C284.61,48,268.44,56.7,249.55,62.72Zm-85.37-102a46.31,46.31,0,0,0-14.7,7.71c-13.43,9.85-20.88,21.52-19.17,25.84,1.18,3.51,3.76,4.25,8,5.47,6.2,1.76,15.58,4.43,29.33,17.31,5.57,4.58,9.43,11.74,13.51,19.32,5.19,9.62,10.56,19.57,20,25.61,10.78,6.87,25.29,7.37,44.36,1.52,20.49-6,37.92-15.11,51.81-27.07,12.54-10.79,21.81-23.75,26.8-37.49a66.86,66.86,0,0,0,4-29.43,57.35,57.35,0,0,0-9.44-26.68c-6.17-9-20.39-19-53.09-15.59-21.88,2.27-43.28,9.75-53.91,15.73-16.79,9.42-21.73,10.76-29.91,13-1.76.47-3.76,1-6,1.69h0c-1.53.45-3.11.84-4.79,1.25C168.81-40.61,166.55-40.06,164.18-39.31Z" style="fill:#383838"/><path d="M247.06,52.54c-15.54,5-27.66,5-37,0-8.52-4.48-13.74-12.35-18.79-20-4.2-6.34-8.18-12.34-13.81-16.14C164.81,6.3,156,3.74,150.14,2.05c-4.66-1.35-7.47-2.16-8.79-5.83-2.08-4.84,3.37-16.62,13.77-25.14,7.9-7,14.56-8.91,21-10.78l.73-.21c3.1-.89,5.76-1.46,8.33-2C192.06-43.4,198.57-44.8,212-52c9.75-5.27,29-12,48.29-14.3,16.24-2,37.75-1.33,48,12.67,9.79,13.89,12,31.85,6.13,49.27-4,11.86-11.69,23.11-22.2,32.53-11.49,10.29-26,18.28-43.14,23.74l-.61.19ZM172.37-38.15a44,44,0,0,0-17,9.54c-11.13,9.1-15.46,20.51-13.66,24.68,1.25,3.48,4,4.28,8.52,5.59,5.87,1.7,14.75,4.27,27.43,14.46,5.68,3.84,9.68,9.87,13.91,16.25,5,7.57,10.21,15.4,18.64,19.83,9.53,5,22,4.86,38.08-.5l.61-.19c17.09-5.44,31.54-13.4,43-23.65C302.37,18.48,310,7.3,314-4.5a57.61,57.61,0,0,0,2.82-25.74,50.58,50.58,0,0,0-8.9-23.17c-10.13-13.83-31.49-14.43-47.62-12.5-19.21,2.3-38.43,9-48.15,14.26-13.44,7.24-20,8.64-26.89,10.13-2.56.55-5.21,1.12-8.3,2l-.73.21C175-38.94,173.67-38.57,172.37-38.15Z" style="fill:#383838"/><path d="M247.06,41.7c-11.37,3.62-20.58,3.93-28.06,1s-12.47-8.75-17.32-14.36c-4.15-4.8-8.45-9.76-14.18-12.78A83.29,83.29,0,0,0,162.37,4.07c-5.09-1.47-8.16-2.36-9.57-6-2.1-4.54.06-16.13,8.23-23.94,5.59-6,10.69-9.35,17-11.13h0a79.43,79.43,0,0,1,9.6-1.86,70.86,70.86,0,0,0,24.78-7.71c8.89-4.56,26-10.51,42.5-12.82,14.31-2,33.29-2,42.49,9.56,8.9,11.74,11.37,27.07,6.79,42.06A63.9,63.9,0,0,1,286.7,19.6c-9.32,8.84-21.27,15.8-35.53,20.68C249.77,40.8,248.4,41.27,247.06,41.7Zm-70-78c-5.75,1.84-10.52,5.09-15.74,10.7-8.06,7.71-10.21,19.09-8.15,23.53,1.35,3.5,4.19,4.32,9.33,5.8a83.62,83.62,0,0,1,25.21,11.51c5.79,3,10.1,8,14.28,12.86,4.83,5.58,9.82,11.35,17.18,14.26,8.27,3.26,18.71,2.48,31.9-2.41,14.22-4.87,26.13-11.8,35.41-20.6A63.69,63.69,0,0,0,303.86-7.88C308.4-22.76,306-38,297.13-49.61,288-61,269.19-61,255-59c-16.47,2.3-33.52,8.24-42.38,12.78a71,71,0,0,1-24.9,7.74,80.65,80.65,0,0,0-9.55,1.86C177.77-36.55,177.4-36.43,177-36.32Z" style="fill:#383838"/><path d="M247,31.08c-18.31,5.83-26.46-.65-35-7.46-4.23-3.36-8.6-6.84-14.37-9a110.94,110.94,0,0,0-22.28-8.38c-6.09-1.68-9.45-2.61-11-6.36-1.22-2.45-1.83-6.48-1.59-10.51a21.53,21.53,0,0,1,4.27-12.22c3.71-5.5,7-9.83,12.32-11.26h0a63.42,63.42,0,0,1,10.49-1.51c6.6-.58,14.08-1.25,23.16-5.54a153.42,153.42,0,0,1,36.7-11.34c8.12-1.34,15.24-1.63,21.17-.83,7,.94,12.33,3.39,15.83,7.28,8,9.59,10.77,22.31,7.52,34.91a50.4,50.4,0,0,1-12.87,22.21c-7,7.25-16.23,13.1-27.35,17.39C251.43,29.53,249.12,30.39,247,31.08Zm-68.2-64.69c-4.89,1.56-8,5.72-11.55,11-5.62,6.9-4.71,18.24-2.65,22.39,1.52,3.61,4.82,4.53,10.8,6.18a111.24,111.24,0,0,1,22.33,8.4c5.8,2.15,10.2,5.65,14.44,9,4.85,3.85,9.42,7.49,15.74,9,7.11,1.67,15.34.35,25.92-4.17C264.85,23.88,274,18.06,281,10.84a50.06,50.06,0,0,0,12.79-22c3.22-12.49.5-25.11-7.46-34.61-3.44-3.83-8.69-6.24-15.61-7.17a72.48,72.48,0,0,0-21.07.83,152.82,152.82,0,0,0-36.61,11.31c-9.14,4.32-16.65,5-23.28,5.57a64.37,64.37,0,0,0-10.43,1.5Z" style="fill:#383838"/><path d="M246.67,21c-11.07,3.53-17.58.76-25.38-2.55a71.92,71.92,0,0,0-13.69-4.68c-7.3-2.43-13.07-3.82-17.7-4.94-8-1.91-12.33-3-14.2-7-2.37-4.47-5.77-15.73-2.87-21.5l.42-1.28c1.48-4.47,3-9.09,7.21-10.15h0a57.79,57.79,0,0,1,11.31-1c6.68-.18,14.25-.4,21.61-3.5,8-3.39,48.35-19.62,62.39-6.52a31.23,31.23,0,0,1,8.41,27.83,36.44,36.44,0,0,1-8.32,17,54.81,54.81,0,0,1-19.22,14A61.83,61.83,0,0,1,246.67,21ZM180.15-30.8c-3.76,1.2-5.21,5.59-6.61,9.84-.15.43-.29.86-.43,1.29v0C170.24-14,173.62-2.84,176,1.59c1.81,4,6.14,5,14,6.9,4.64,1.12,10.41,2.51,17.71,4.94a73.31,73.31,0,0,1,13.73,4.69c9.82,4.17,17.58,7.46,35.1-1.73a54.47,54.47,0,0,0,19.12-14,36.39,36.39,0,0,0,8.26-16.89A31,31,0,0,0,275.56-42c-5.59-5.22-16.1-6.32-31.23-3.26a171.66,171.66,0,0,0-30.84,9.84c-7.41,3.12-15,3.33-21.72,3.52a57.79,57.79,0,0,0-11.24,1Z" style="fill:#383838"/><path d="M245.72,12.26c-6.54,2.09-12.46,1.65-20.65,1-2.32-.17-4.73-.35-7.42-.49L212,12c-15.28-2.21-22.26-3.22-24.88-8.43-2.15-3.8-8.67-15.38-8.42-20.26-.61-4.94-.82-10.73,2.93-11.59h0c3.14-.69,7.58-.56,12.29-.42,6.64.2,14.16.42,19.9-1.58l3.89-1.42c6.16-2.29,15.48-5.74,24.45-7.72,10.73-2.37,18.38-2,22.74,1a24.94,24.94,0,0,1,9.7,20.86c-.53,8.75-5.94,16.71-15.25,22.43C254.12,8.68,249.8,11,245.72,12.26ZM181.45-28c-3.27,1-3,6.53-2.45,11.24v0c-.27,4.79,6.24,16.33,8.38,20.13,2.57,5.09,9.5,6.09,24.69,8.29l5.6.81c2.69.15,5.09.33,7.42.5,13.23,1,20.52,1.52,34.14-8.41C268.48-1,273.85-8.94,274.36-17.59a24.65,24.65,0,0,0-9.58-20.63c-4.3-3-11.88-3.31-22.54-1-9,2-18.25,5.42-24.41,7.7-1.5.56-2.8,1-3.89,1.43-5.79,2-13.34,1.79-20,1.6-4.69-.14-9.12-.28-12.22.4Z" style="fill:#383838"/><path d="M240.58,9.28a67.27,67.27,0,0,1-12.89,2.61c-17.31,1-26-1-29.09-6.5-1.5-2.5-5-7.1-8.11-11.15C188-9,185.71-12,184.67-13.62a18,18,0,0,1-2.73-5.33c-.72-2.2-.89-4-.47-5.18a1.81,1.81,0,0,1,1.4-1.26h0c3-.57,8.27-.12,13.84.36,6.62.57,13.46,1.15,17.61.17A98.55,98.55,0,0,0,224-28.21c9.85-3.75,23.35-8.88,30.11-6.43,6.24,2.77,10.89,8.07,12.14,13.84,1,4.85-.37,9.63-4.1,13.82A41.22,41.22,0,0,1,249.05,5.57,42,42,0,0,1,240.58,9.28Zm-57.86-34.4a1.63,1.63,0,0,0-1,1.07c-.85,2.33,1,7.6,3.18,10.29,1,1.63,3.36,4.66,5.81,7.86,3.1,4.06,6.62,8.66,8.12,11.18,3.05,5.42,11.68,7.33,28.88,6.38,8.74-1,15.69-3,21.27-6.29A41.12,41.12,0,0,0,262-7.12C265.64-11.26,267-16,266-20.75c-1.23-5.7-5.83-10.94-12-13.67-6.67-2.42-20.12,2.69-29.94,6.42a96.51,96.51,0,0,1-9.68,3.36c-4.19,1-11,.4-17.69-.17-5.56-.47-10.8-.92-13.78-.35Z" style="fill:#383838"/><path d="M239.17,10.53c-.48.16-1,.3-1.44.43-7.85,2.2-14.32,2.77-19.24,1.69-3.87-.85-6.71-2.67-8.44-5.42-2.85-4.51-14.47-15.16-19.42-17.81A15.88,15.88,0,0,1,185.26-16c-1.41-2.24-2.2-4.43-2-5.57a1,1,0,0,1,.81-.88c3.09-.47,10.44.58,17.55,1.61,5.52.79,10.72,1.54,13.19,1.44,2.79-.11,7.89-2.63,13.28-5.29,5.56-2.75,11.31-5.6,15.14-6.11a25,25,0,0,1,13.16,2.3c4.8,2.28,7.82,5.71,8.49,9.67.78,4.63-1.55,10.77-6.23,16.41A41.86,41.86,0,0,1,239.17,10.53ZM184-22.26a.79.79,0,0,0-.52.69c-.38,2.22,3.21,8.64,7.27,10.82,5,2.66,16.63,13.35,19.49,17.87,1.71,2.71,4.51,4.5,8.32,5.34,4.89,1.07,11.33.51,19.15-1.68A41.93,41.93,0,0,0,258.5-2.57c4.58-5.52,6.95-11.75,6.19-16.26-.66-3.89-3.64-7.27-8.38-9.52a24.66,24.66,0,0,0-13.05-2.28c-3.81.5-9.54,3.34-15.08,6.08s-10.53,5.21-13.37,5.32c-2.48.09-7.69-.66-13.21-1.45-7.1-1-14.44-2.08-17.5-1.61A.28.28,0,0,0,184-22.26Z" style="fill:#383838"/><path d="M-59.6,72.52a1.76,1.76,0,0,1-1,.06c-.51-.16-.81-.63-.89-1.4-.31-3,2.36-14.35,6.33-27,6.59-21,11.75-30.53,13.67-33.64,8.37-13.59,17.4-23.54,23-25.35h0c2.46-.78,3.39,1.26,4.38,3.42,1.34,2.92,2.85,6.23,8.18,5.61C-1.36-6.34,4.16-8.09,9-9.62c6.24-2,11.16-3.53,12.44-2.08a1.67,1.67,0,0,1,.45,1.36C21.65-8,16.88-4.57,6.44,3c-1.87,1.34-4,2.86-6.23,4.5C-7,12.68-19.63,27.94-31.85,42.69-46.28,60.12-55.74,71.29-59.6,72.52Zm41.3-86.81h0c-6.23,2-15.88,14.05-22.69,25.1-4,6.53-9,18.74-13.61,33.51-4,12.61-6.6,23.88-6.3,26.79.08.78.38.87.48.9,1.23.37,4.63-2.49,10.12-8.5,5.08-5.57,11.36-13.16,18-21.2C-20.06,27.54-7.4,12.25-.13,7,2.12,5.34,4.23,3.82,6.1,2.48c9.67-7,15-10.8,15.24-12.89a1.14,1.14,0,0,0-.31-.91c-1-1.16-6.28.49-11.83,2.25-4.89,1.55-10.44,3.3-15,3.84-5.75.67-7.43-3-8.78-5.95C-15.72-13.56-16.43-14.88-18.3-14.29Z" style="fill:#383838"/><path d="M-57.31,67.85a1.72,1.72,0,0,1-1,.07c-.48-.14-.76-.55-.86-1.23-.66-3,2.16-14.46,5.25-24.53C-49.83,29-45.22,17.49-41.53,11.35l1.34-2.2C-33.12-2.09-25.38-10.39-20.46-12h0c2.25-.71,3.13,1.14,4.06,3.1,1.25,2.63,2.66,5.62,7.54,5C-4.65-4.37.43-6,4.9-7.4c5.69-1.81,10.19-3.24,11.45-2A1.56,1.56,0,0,1,17-8.13C17-6,12.27-2.54,2,5.06L-1.95,7.94C-8.4,12.71-19.83,26.41-30.88,39.66-44.61,56.13-53.62,66.67-57.31,67.85Zm37-79.34h0C-25.1-9.91-32.73-1.7-39.72,9.44c-.45.72-.91,1.46-1.35,2.19-8.28,13.81-18.67,49.93-17.52,55v0c.09.68.38.77.47.79,1.18.35,4.45-2.37,9.7-8.09,4.85-5.28,10.81-12.42,17.12-20C-20.23,26-8.78,12.31-2.28,7.5L1.63,4.62C11.49-2.64,16.44-6.28,16.46-8.14A1,1,0,0,0,16-9l0,0c-1-1-5.81.49-10.9,2.11C.57-5.45-4.53-3.83-8.78-3.33-14-2.7-15.61-6-16.88-8.68-17.9-10.84-18.56-12-20.28-11.49Z" style="fill:#383838"/><path d="M-55,63.19a1.67,1.67,0,0,1-.92.07,1.18,1.18,0,0,1-.81-1.07c-.66-1.74.09-8.43,4.17-22,2.72-9,7-21.15,11-28,.39-.67.8-1.35,1.2-2C-34.13,0-27.09-7.62-22.43-9.16h0c2.06-.65,2.88,1,3.75,2.76,1.16,2.35,2.47,5,6.89,4.48A75.46,75.46,0,0,0,.78-5.18C5.93-6.82,10-8.12,11.23-7.06a1.46,1.46,0,0,1,.91,1.15C12.31-4,7.84-.59-3,7.57l-1.15.87C-9.8,12.74-20,24.87-29.88,36.61-42.93,52.13-51.49,62.06-55,63.19ZM-22.26-8.68h0c-4.54,1.51-11.47,9-17.66,19.12-.4.67-.81,1.34-1.2,2-4,6.8-8.25,18.86-11,27.88-3.3,11-5,19.69-4.18,21.7v0c.09.59.36.66.44.68,1.15.32,4.28-2.27,9.31-7.69,4.63-5,10.27-11.69,16.24-18.79C-20.38,24.52-10.15,12.36-4.42,8l1.15-.87c10-7.56,15.05-11.36,14.9-13,0-.19-.1-.48-.66-.76l0,0,0,0c-1-.9-5.34.5-10,2A75.91,75.91,0,0,1-11.7-1.42c-4.79.58-6.25-2.38-7.42-4.76C-20.07-8.11-20.69-9.18-22.26-8.68Z" style="fill:#383838"/><path d="M-52.75,58.53a1.62,1.62,0,0,1-.88.07,1.08,1.08,0,0,1-.76-.91C-56.8,53.63-47.9,24.26-41.62,13q.52-.93,1-1.83C-35,1.89-28.86-4.83-24.41-6.32h0c1.87-.59,2.63.87,3.43,2.43C-19.87-1.83-18.66.51-14.69,0A68.83,68.83,0,0,0-3.34-3C1.28-4.44,4.94-5.61,6.11-4.74c.74.24,1.15.58,1.23,1.06C7.65-2,4.06.92-6.27,8.93c-4.93,3.82-13.9,14.39-22.58,24.6C-41.23,48.11-49.36,57.45-52.75,58.53ZM-24.23-5.88h0c-4.28,1.44-10.52,8.23-15.9,17.31-.35.59-.69,1.2-1,1.82C-47.82,25.09-56.17,54-54,57.48l0,0v.05c.09.44.29.54.43.58,2.58.66,14.12-12.93,24.3-24.92C-20.52,23-11.53,12.41-6.56,8.56,2.2,1.77,7.14-2.15,6.88-3.6c-.06-.29-.37-.52-1-.7h0l0,0c-.93-.77-4.87.5-9,1.84a69,69,0,0,1-11.43,3c-4.3.54-5.65-2.07-6.74-4.16C-22.25-5.38-22.82-6.33-24.23-5.88Z" style="fill:#383838"/><path d="M-50.49,53.87a1.61,1.61,0,0,1-.82.07A1,1,0,0,1-52,53.2c-.71-.79-.85-2.83-.41-6.07A83,83,0,0,1-50,36.21c2.35-8.38,5.71-17.36,8.36-22.35.3-.55.6-1.1.9-1.63C-36.07,4-30.55-2.06-26.38-3.48c1.69-.56,2.4.72,3.15,2.08,1,1.79,2.1,3.81,5.62,3.35A62.71,62.71,0,0,0-7.46-.74C-3.37-2.06-.12-3.11,1-2.41c.63.09,1.46.29,1.64.93C3-.17.62,2.18-8.43,9.43c-4.16,3.33-11.87,12.29-19.31,21C-39.2,43.72-47.21,52.82-50.49,53.87ZM-26.21-3.07h0C-29.43-2-34.83,2.67-40.38,12.44l-.89,1.63c-2.64,5-6,13.91-8.33,22.25-2.55,9.13-3.33,15.34-2.07,16.61l0,0V53c.1.37.28.45.41.48,2.52.58,13.47-12.16,23.13-23.41C-20.27,21-12.9,12.44-8.71,9.08c7.5-6,11.25-9.26,10.93-10.44C2.13-1.66,1.69-1.87.89-2H.84l0,0c-.89-.63-4.4.5-8.12,1.7A63,63,0,0,1-17.55,2.39c-3.82.49-5.06-1.76-6.06-3.57C-24.43-2.66-24.95-3.48-26.21-3.07Z" style="fill:#383838"/><path d="M-22.37,331.82q-7.45,2.37-14.47,4.23c-25.65,6.77-45.58,8-59.24,3.77-14-4.37-21-14.51-20.88-30.14a564.51,564.51,0,0,1,9.23-99c1.59-9.24,2.84-16.54,3-22h0c.33-9.13,9.5-24,23.92-38.89,15.52-16,33.63-28.44,49.68-34.17C-9,107.69,13.3,93.5,28.08,83,45.29,70.75,62.54,56.19,74.21,44,81.74,36.2,91,33.06,101,35c17.33,3.3,34.61,21.25,45.1,46.86,5,12.13,10.12,24.68,14.32,37,4.63,13.66,7.57,25.6,9,36.52a105.85,105.85,0,0,1-1.24,36.54,104.26,104.26,0,0,1-16.32,37c-14,20.53-60.41,52.6-112.93,78A472.8,472.8,0,0,1-22.37,331.82ZM87.32,36.26a30.5,30.5,0,0,0-12.7,8.18c-11.69,12.17-29,26.76-46.21,39C13.6,94-8.71,108.22-30.91,116.14c-16,5.69-34,18.1-49.45,34-14.33,14.76-23.43,29.51-23.76,38.5-.19,5.53-1.45,12.85-3,22.11a563.08,563.08,0,0,0-9.21,98.91c-.13,15.34,6.76,25.29,20.46,29.58s33.38,3,58.92-3.79c22.39-5.91,48.55-16,75.65-29.07,52.43-25.35,98.77-57.34,112.7-77.79A103.89,103.89,0,0,0,167.6,191.8a105.39,105.39,0,0,0,1.22-36.33c-3.12-24.34-13.35-49.29-23.24-73.42C135.16,56.62,118,38.8,100.9,35.54A27.34,27.34,0,0,0,87.32,36.26Z" style="fill:#383838"/><path d="M-22.26,321.52q-5.89,1.88-11.48,3.39c-23.48,6.36-41.72,7.66-54.22,3.85s-19-12.89-19-26.86c-.28-42.22,4.08-71.69,7-91.18,1.35-9.16,2.42-16.39,2.59-21.93.28-9,8.65-23.18,21.85-37.08,14.13-14.89,30.93-26.63,46.08-32.22,20.39-7.39,40.94-20.32,54.58-29.87,16-11.22,31.58-24,42.64-35.15,7-7,15.54-9.75,24.74-7.91,16,3.18,31.86,19.7,41.47,43.12h0c9.09,22.08,18.49,44.91,21.39,67.71a98.43,98.43,0,0,1-1.15,33.69,96.81,96.81,0,0,1-14.94,34.14c-12.78,19.08-55.38,48.91-103.57,72.55A431.53,431.53,0,0,1-22.26,321.52ZM79.46,47.71a27.94,27.94,0,0,0-11.35,7.15C57,66,41.45,78.83,25.4,90.07,11.72,99.63-8.87,112.59-29.31,120c-15.08,5.56-31.8,17.26-45.88,32.09C-88.3,165.9-96.61,180-96.89,188.8c-.17,5.58-1.24,12.83-2.59,22-2.89,19.48-7.24,48.92-7,91.1,0,13.71,6.26,22.57,18.64,26.34s30.54,2.48,53.91-3.86c20.54-5.56,44.51-14.93,69.31-27.1,48.12-23.6,90.62-53.36,103.36-72.37A96.11,96.11,0,0,0,153.64,191a97.82,97.82,0,0,0,1.14-33.5c-2.89-22.73-12.27-45.53-21.35-67.58h0c-9.55-23.24-25.29-39.64-41.08-42.79A25.55,25.55,0,0,0,79.46,47.71Z" style="fill:#383838"/><path d="M-22.11,311.23q-4.37,1.39-8.54,2.55c-21.31,6-37.86,7.27-49.2,3.93S-96.92,306.44-97,294.11c-1-37.26,2.35-64.12,4.76-83.73,1.09-8.9,2-15.93,2.09-21.46.24-8.94,7.63-22.12,19.79-35.26,12.75-13.79,28.23-24.82,42.48-30.27,33.79-12.46,71.81-41.8,89.14-58.48,6.43-6.19,14.27-8.53,22.67-6.77C98.52,61.22,113,76.31,121.75,97.53h0c7.89,19.07,16.83,40.68,19.5,61.86a90.71,90.71,0,0,1-1.07,30.83,89.29,89.29,0,0,1-13.55,31.27C120.81,230.34,108.47,241.57,91,254A460.35,460.35,0,0,1,32.4,288.62,390,390,0,0,1-22.11,311.23ZM71.58,59.16a25.64,25.64,0,0,0-10,6.11C44.24,82,6.14,111.38-27.72,123.87-41.89,129.29-57.31,140.27-70,154c-12.07,13.06-19.42,26.12-19.64,34.93-.14,5.56-1,12.6-2.1,21.51-2.41,19.6-5.71,46.44-4.76,83.66.1,12.08,5.76,19.86,16.81,23.12,11.24,3.31,27.7,2,48.91-3.93,18.69-5.21,40.46-13.9,63-25.13a460.55,460.55,0,0,0,58.49-34.61c17.46-12.36,29.75-23.55,35.54-32.34a88.9,88.9,0,0,0,13.48-31.09,90.23,90.23,0,0,0,1.06-30.66c-2.65-21.12-11.58-42.7-19.46-61.74h0c-8.67-21.06-23-36-37.48-39.08A23.74,23.74,0,0,0,71.58,59.16Z" style="fill:#383838"/><path d="M-21.91,301q-2.88.92-5.65,1.72c-19.14,5.53-34,6.88-44.18,4-10-2.82-15.1-9.66-15.32-20.35-1.63-32.64.82-58.21,2.62-76.89.77-8,1.44-15,1.54-20.37.18-8.78,6.81-21.29,17.72-33.45,11.37-12.69,25.55-23,38.89-28.32,13.36-5,29.05-13.48,45.39-24.41A317.44,317.44,0,0,0,54.75,75.34a22.29,22.29,0,0,1,20.61-5.61c13.26,3,26.37,16.63,34.21,35.65,8.3,19.94,15.36,37.93,17.6,56a83.32,83.32,0,0,1-1,28A81.8,81.8,0,0,1,114,217.77c-5.26,8.17-16.39,18.51-32.18,29.9a415.24,415.24,0,0,1-52.71,31.81A347.49,347.49,0,0,1-21.91,301ZM63.69,70.6a23.21,23.21,0,0,0-8.62,5.09,316.42,316.42,0,0,1-35.71,27.58c-16.37,11-32.09,19.42-45.48,24.46C-39.39,133-53.5,143.29-64.83,155.92-75.67,168-82.24,180.4-82.42,189.07c-.11,5.39-.78,12.35-1.55,20.41-1.79,18.66-4.24,44.21-2.61,76.83.21,10.45,5.25,17.15,15,19.9,10.09,2.85,24.86,1.51,43.91-4,16.84-4.86,36.42-12.87,56.62-23.16a413,413,0,0,0,52.64-31.77c15.75-11.35,26.83-21.65,32.06-29.77a81.44,81.44,0,0,0,12.11-28.24,82.9,82.9,0,0,0,1-27.82c-2.23-18-9.28-36-17.57-55.89h0c-7.78-18.88-20.76-32.43-33.87-35.37A21.94,21.94,0,0,0,63.69,70.6Z" style="fill:#383838"/><path d="M-21.65,290.69c-1,.31-1.9.6-2.83.88-17,5.12-30.15,6.49-39.15,4.07-8.61-2.31-13.14-8.06-13.46-17.1-2.38-28.46-.72-53.09.49-71.08.48-7.13.9-13.29,1-18.27.13-8.76,5.84-20.29,15.64-31.63,10-11.59,22.88-21.2,35.3-26.37,24.83-9.6,55.22-30.27,73-45.42a20.29,20.29,0,0,1,18.56-4.45c11.9,2.86,23.6,15.09,30.56,31.91h0c7.13,17,13.69,33.61,15.7,50.16a75.44,75.44,0,0,1-.89,25.13A74.48,74.48,0,0,1,101.41,214c-4.69,7.5-14.61,17-28.68,27.34a368.91,368.91,0,0,1-46.87,29C9.05,279.12-7.3,286.12-21.65,290.69ZM55.77,82a20.74,20.74,0,0,0-7.22,4.08C30.79,101.28.35,122-24.52,131.59c-12.36,5.15-25.16,14.72-35.13,26.25-9.74,11.28-15.41,22.7-15.54,31.36-.07,5-.49,11.15-1,18.29-1.21,18-2.87,42.59-.49,71,.31,8.84,4.73,14.46,13.13,16.71,8.93,2.39,22,1,38.91-4.07,15-4.52,32.36-11.85,50.27-21.19A369.1,369.1,0,0,0,72.47,241c14-10.36,23.9-19.77,28.57-27.23a74,74,0,0,0,10.73-25.37,75.09,75.09,0,0,0,.89-25c-2-16.5-8.56-33.09-15.68-50h0c-6.9-16.69-18.49-28.82-30.25-31.66A20.12,20.12,0,0,0,55.77,82Z" style="fill:#383838"/><path d="M-21.3,280.46l-.11,0c-14.8,4.71-26.28,6.1-34.13,4.15-7.26-1.8-11.16-6.48-11.59-13.89-3.28-24.75-2.35-49.12-1.67-66.91.21-5.57.4-10.38.43-14.52.09-8.6,5-19.47,13.58-29.82s20.22-19.39,31.71-24.42c10.69-4.26,22.86-10.63,36.19-19A347.19,347.19,0,0,0,41.78,96.2a18.37,18.37,0,0,1,16.54-3.29c10.52,2.77,20.83,13.57,26.89,28.17,6,14.19,12,29.3,13.81,44.31a68.39,68.39,0,0,1-.81,22.28,67.2,67.2,0,0,1-9.4,22.64c-8.2,13.53-34.81,34-66.22,50.92C7,269.63-8.17,276.28-21.3,280.46Zm69.11-187A18.71,18.71,0,0,0,42,96.52a346.47,346.47,0,0,1-28.71,20c-13.34,8.33-25.54,14.71-36.25,19-11.42,5-22.92,13.86-31.54,24.3C-63,170-67.87,180.81-68,189.33c0,4.14-.22,8.95-.44,14.53-.68,17.78-1.61,42.13,1.68,66.85.41,7.23,4.21,11.78,11.28,13.54,7.77,1.93,19.18.54,33.91-4.14l.1,0c13.11-4.17,28.26-10.81,43.83-19.2C53.75,244,80.29,223.57,88.46,210.1a66.53,66.53,0,0,0,9.35-22.51,67.61,67.61,0,0,0,.8-22.15c-1.77-15-7.78-30-13.78-44.2h0c-6-14.49-16.21-25.2-26.61-27.94A18.39,18.39,0,0,0,47.81,93.44Z" style="fill:#383838"/><path d="M-20.89,270.29c-11.41,3.63-20.34,4.77-26.56,3.39-5.92-1.31-9.19-4.91-9.71-10.7-4.53-21.49-4.23-46.87-4-65.4,0-2.91.07-5.66.08-8.12,0-8.6,4.13-18.55,11.51-28A78,78,0,0,1-21.48,139c7.49-3.1,28-12.45,56.78-32.35a16.63,16.63,0,0,1,14.54-2.13c9.14,2.7,18,12.06,23.19,24.43,5,11.55,10.36,25,11.91,38.46a59,59,0,0,1-8.74,39.2c-3.58,6.15-11.08,13.85-21.7,22.24a273.58,273.58,0,0,1-35.19,23.31,232.35,232.35,0,0,1-37.65,17.31ZM39.8,104.82a16.48,16.48,0,0,0-4.29,2.12c-4.6,3.18-14,9.51-25.21,16.14a256.06,256.06,0,0,1-31.63,16.24,77.64,77.64,0,0,0-28,22.36c-7.33,9.4-11.39,19.26-11.43,27.78,0,2.47,0,5.21-.08,8.12-.21,18.52-.51,43.88,4,65.33v0c.5,5.62,3.67,9.11,9.42,10.39,6.52,1.45,16.52,0,28.91-4.22a230.85,230.85,0,0,0,37.59-17.29,273.14,273.14,0,0,0,35.14-23.27c10.58-8.36,18-16,21.61-22.14a58.61,58.61,0,0,0,8.69-39C83,154,77.63,140.6,72.69,129.08h0c-5.13-12.28-13.92-21.56-23-24.22A16.81,16.81,0,0,0,39.8,104.82Z" style="fill:#383838"/><path d="M-20.1,260.12c-8.1,2.58-14.7,3.5-19.27,2.67s-7.22-3.39-7.82-7.59c-6.55-18.51-6.62-51.51-6.65-65.61,0-17.61,14-36.82,34-46.71,16.16-7,34.48-17.61,45.43-23.93l3.26-1.88a15,15,0,0,1,12.58-.95c7.74,2.62,15.19,10.54,19.45,20.66,4.46,10.24,8.76,21.28,10,32.61a52,52,0,0,1-7.27,33.47C57.65,213.66,39,229.45,16,243.08a199.61,199.61,0,0,1-31.31,15.37C-16.93,259.07-18.54,259.62-20.1,260.12ZM31.69,116.17a13.45,13.45,0,0,0-2.7,1.19l-3.26,1.88c-11,6.32-29.29,16.92-45.46,24C-39.62,153-53.51,172.1-53.5,189.59c0,14.08.09,47.06,6.63,65.51v0c.58,4.05,3.12,6.51,7.55,7.32,5.39,1,13.66-.51,23.93-4.32a199.38,199.38,0,0,0,31.25-15.35c22.9-13.6,41.52-29.34,47.43-40.1,13.82-23.15,6.22-45.19-2.76-65.77h0c-4.22-10-11.6-17.88-19.25-20.48A15.16,15.16,0,0,0,31.69,116.17Z" style="fill:#383838"/><path d="M-19.09,250.12c-5,1.58-9.11,2.25-12.17,1.9-3.29-.38-5.29-1.93-6-4.59-3.21-4.58-5.68-13.35-7.33-26.07a274.73,274.73,0,0,1-2-31.64c-.11-17.39,10.47-33.44,28.3-42.94,6.37-2.95,13-6.16,19.32-9.26,8.24-4,16-7.8,21.3-10,4.44-1.86,9.67-1,14.72,2.45a34.12,34.12,0,0,1,11.59,14.68c6.18,13.84,7.59,21.57,8.13,26.76A45.27,45.27,0,0,1,51,199.13C46.15,208.62,31.51,222,12.8,234.06.84,241.75-10.36,247.34-19.09,250.12Zm42.52-122.7c-.33.1-.65.22-1,.35-5.27,2.22-13,6-21.28,10-6.37,3.1-12.95,6.31-19.32,9.26-17.72,9.44-28.24,25.39-28.13,42.67a271.94,271.94,0,0,0,2,31.6c1.64,12.7,4.1,21.43,7.29,26l0,0v0c.62,2.54,2.54,4,5.7,4.38,8.38,1,25.19-5.89,43.87-17.92S45.9,208.44,50.72,199a44.89,44.89,0,0,0,5.77-27.57c-1-9.84-4.86-19.42-8.1-26.67h0A34,34,0,0,0,36.9,130.19C32.31,127.07,27.56,126.1,23.43,127.42Z" style="fill:#383838"/><path d="M-17.65,240.43a20.08,20.08,0,0,1-5.3,1.07c-2.14.06-3.58-.55-4.27-1.81-4.62-1.68-7.47-11.46-9-19.38a177.45,177.45,0,0,1-3.05-30.45c-.1-8.73,1.64-16.1,5.32-22.56s9.42-12,17.32-16.62c12.22-6.2,25-11.2,32.55-12.75,3.68-.74,7.88.47,11.82,3.38a28.41,28.41,0,0,1,8.78,11.17c5.31,11.44,10.31,26.66,1.9,42.92-3.7,8.12-14.4,19.19-28.6,29.6C-.6,232.6-10.64,238.2-17.65,240.43ZM9.5,139.92a186.64,186.64,0,0,0-26,11c-7.85,4.57-13.49,10-17.22,16.52s-5.38,13.75-5.28,22.42c.24,19,4.11,46.86,12,49.61H-27l0,.05c.63,1.2,2,1.77,4.05,1.71,6.43-.19,19.22-6.65,32.59-16.45,14.16-10.38,24.82-21.4,28.51-29.49,8.37-16.17,3.38-31.31-1.9-42.7h0a28,28,0,0,0-8.7-11.06c-3.88-2.88-8-4.06-11.61-3.34A64.93,64.93,0,0,0,9.5,139.92Z" style="fill:#383838"/><path d="M-15,231.61a4.91,4.91,0,0,1-2.15.3,4.07,4.07,0,0,1-4.1-.18c-3.84-2.34-6.36-10.44-7.8-16.81A130,130,0,0,1-32,190c-.16-9.07.84-15.47,3.25-20.74,2.56-5.62,6.93-10.28,13.73-14.67,7.9-4.6,17.51-7,24.47-6.21,6.26.77,12.48,6.68,14.89,12,5.34,10.8,5.84,21.34,1.47,31.34-1.52,4-4.43,8.61-8.62,13.67a121.89,121.89,0,0,1-13,13.27C-3.58,225.35-11,230.32-15,231.61Zm-2.18.06h0a4.7,4.7,0,0,0,2.08-.28c8.92-2.84,34.73-24.29,40.64-39.82,4.34-9.94,3.84-20.42-1.47-31.15h0c-2.38-5.22-8.53-11.08-14.7-11.83-6.92-.82-16.47,1.6-24.33,6.17-6.76,4.37-11.1,9-13.65,14.58C-31,174.59-32,181-31.81,190a130.38,130.38,0,0,0,3,24.88c1.43,6.33,3.93,14.37,7.7,16.67a3.87,3.87,0,0,0,3.92.15Z" style="fill:#383838"/><path d="M-10.73,226.74a4.05,4.05,0,0,1-2.62,0c-2.16-.77-5.33-3.82-8.14-14a99.26,99.26,0,0,1-3.29-22.59c-.2-8.65-.22-14.24,1.19-18.91,1.45-4.83,4.39-8.52,10.14-12.73a12.38,12.38,0,0,1,10.26-2.33c7.88,1.67,14.17,10,15.31,12,2.12,3.7,2.87,8.34,2.23,13.77a55.06,55.06,0,0,1-4.69,15.68A119.21,119.21,0,0,1-7.16,224.07,8.21,8.21,0,0,1-10.73,226.74Zm1.3-70.13a13.3,13.3,0,0,0-3.91,2c-5.71,4.18-8.63,7.84-10.07,12.62s-1.37,10.22-1.17,18.86c.31,13.35,4.51,34,11.29,36.41,1.93.68,3.94-.19,6-2.59A118.4,118.4,0,0,0,9.48,197.55a55,55,0,0,0,4.68-15.63c.63-5.38-.11-10-2.21-13.65-1.13-2-7.37-10.28-15.18-11.93A11.82,11.82,0,0,0-9.43,156.61Z" style="fill:#383838"/><polygon points="9.24 113.1 8.74 113.6 8.24 113.1 7.96 113.39 8.46 113.89 7.96 114.38 8.24 114.67 8.74 114.17 9.24 114.67 9.52 114.38 9.03 113.89 9.52 113.39 9.24 113.1" style="fill:#3f3f3f"/><polygon points="24.54 97.8 24.04 98.3 23.54 97.8 23.26 98.09 23.76 98.58 23.26 99.08 23.54 99.37 24.04 98.87 24.54 99.37 24.82 99.08 24.32 98.58 24.82 98.09 24.54 97.8" style="fill:#3f3f3f"/><polygon points="39.84 82.5 39.34 83 38.84 82.5 38.56 82.79 39.06 83.28 38.56 83.78 38.84 84.07 39.34 83.57 39.84 84.07 40.12 83.78 39.63 83.28 40.12 82.79 39.84 82.5" style="fill:#3f3f3f"/><polygon points="55.14 67.2 54.64 67.7 54.14 67.2 53.86 67.49 54.36 67.99 53.86 68.48 54.14 68.77 54.64 68.27 55.14 68.77 55.42 68.48 54.92 67.99 55.42 67.49 55.14 67.2" style="fill:#3f3f3f"/><polygon points="53.86 159.29 54.36 159.78 53.86 160.28 54.14 160.57 54.64 160.07 55.14 160.57 55.42 160.28 54.92 159.78 55.42 159.29 55.14 159 54.64 159.5 54.14 159 53.86 159.29" style="fill:#3f3f3f"/><polygon points="38.56 143.99 39.06 144.48 38.56 144.98 38.84 145.27 39.34 144.77 39.84 145.27 40.12 144.98 39.63 144.48 40.12 143.99 39.84 143.7 39.34 144.2 38.84 143.7 38.56 143.99" style="fill:#3f3f3f"/><polygon points="23.26 128.69 23.76 129.18 23.26 129.68 23.54 129.97 24.04 129.47 24.54 129.97 24.82 129.68 24.33 129.18 24.82 128.69 24.54 128.4 24.04 128.9 23.54 128.4 23.26 128.69" style="fill:#3f3f3f"/><polygon points="7.96 205.19 8.46 205.68 7.96 206.18 8.24 206.47 8.74 205.97 9.24 206.47 9.52 206.18 9.03 205.68 9.52 205.19 9.24 204.9 8.74 205.4 8.24 204.9 7.96 205.19" style="fill:#3f3f3f"/><polygon points="23.26 189.88 23.76 190.38 23.26 190.88 23.54 191.16 24.04 190.67 24.54 191.16 24.82 190.88 24.33 190.38 24.82 189.88 24.54 189.6 24.04 190.1 23.54 189.6 23.26 189.88" style="fill:#3f3f3f"/><polygon points="7.96 174.59 8.46 175.08 7.96 175.58 8.24 175.87 8.74 175.37 9.24 175.87 9.52 175.58 9.03 175.08 9.52 174.59 9.24 174.3 8.74 174.8 8.24 174.3 7.96 174.59" style="fill:#3f3f3f"/><polygon points="38.56 174.59 39.06 175.08 38.56 175.58 38.84 175.87 39.34 175.37 39.84 175.87 40.12 175.58 39.63 175.08 40.12 174.59 39.84 174.3 39.34 174.8 38.84 174.3 38.56 174.59" style="fill:#3f3f3f"/><polygon points="23.26 159.29 23.76 159.78 23.26 160.28 23.54 160.57 24.04 160.07 24.54 160.57 24.82 160.28 24.33 159.78 24.82 159.29 24.54 159 24.04 159.5 23.54 159 23.26 159.29" style="fill:#3f3f3f"/><polygon points="7.96 143.99 8.46 144.48 7.96 144.98 8.24 145.27 8.74 144.77 9.24 145.27 9.52 144.98 9.03 144.48 9.52 143.99 9.24 143.7 8.74 144.2 8.24 143.7 7.96 143.99" style="fill:#3f3f3f"/><polygon points="69.16 143.99 69.66 144.48 69.16 144.98 69.44 145.27 69.94 144.77 70.44 145.27 70.72 144.98 70.22 144.48 70.72 143.99 70.44 143.7 69.94 144.2 69.44 143.7 69.16 143.99" style="fill:#3f3f3f"/><polygon points="53.86 128.69 54.36 129.18 53.86 129.68 54.14 129.97 54.64 129.47 55.14 129.97 55.42 129.68 54.92 129.18 55.42 128.69 55.14 128.4 54.64 128.9 54.14 128.4 53.86 128.69" style="fill:#3f3f3f"/><polygon points="38.56 113.39 39.06 113.89 38.56 114.38 38.84 114.67 39.34 114.17 39.84 114.67 40.12 114.38 39.63 113.89 40.12 113.39 39.84 113.1 39.34 113.6 38.84 113.1 38.56 113.39" style="fill:#3f3f3f"/><polygon points="7.96 82.79 8.46 83.28 7.96 83.78 8.24 84.07 8.74 83.57 9.24 84.07 9.52 83.78 9.03 83.28 9.52 82.79 9.24 82.5 8.74 83 8.24 82.5 7.96 82.79" style="fill:#3f3f3f"/><polygon points="84.46 128.69 84.95 129.18 84.46 129.68 84.74 129.97 85.24 129.47 85.74 129.97 86.02 129.68 85.52 129.18 86.02 128.69 85.74 128.4 85.24 128.9 84.74 128.4 84.46 128.69" style="fill:#3f3f3f"/><polygon points="69.16 113.39 69.66 113.89 69.16 114.38 69.44 114.67 69.94 114.17 70.44 114.67 70.72 114.38 70.22 113.89 70.72 113.39 70.44 113.1 69.94 113.6 69.44 113.1 69.16 113.39" style="fill:#3f3f3f"/><polygon points="53.86 98.09 54.36 98.58 53.86 99.08 54.14 99.37 54.64 98.87 55.14 99.37 55.42 99.08 54.92 98.58 55.42 98.09 55.14 97.8 54.64 98.3 54.14 97.8 53.86 98.09" style="fill:#3f3f3f"/><polygon points="23.26 67.49 23.76 67.99 23.26 68.48 23.54 68.77 24.04 68.27 24.54 68.77 24.82 68.48 24.33 67.99 24.82 67.49 24.54 67.2 24.04 67.7 23.54 67.2 23.26 67.49" style="fill:#3f3f3f"/><polygon points="7.96 52.19 8.46 52.69 7.96 53.18 8.24 53.47 8.74 52.97 9.24 53.47 9.52 53.18 9.03 52.69 9.52 52.19 9.24 51.9 8.74 52.4 8.24 51.9 7.96 52.19" style="fill:#3f3f3f"/><polygon points="99.76 113.39 100.25 113.89 99.76 114.38 100.04 114.67 100.54 114.17 101.04 114.67 101.32 114.38 100.82 113.89 101.32 113.39 101.04 113.1 100.54 113.6 100.04 113.1 99.76 113.39" style="fill:#3f3f3f"/><polygon points="84.46 98.09 84.95 98.58 84.46 99.08 84.74 99.37 85.24 98.87 85.74 99.37 86.02 99.08 85.52 98.58 86.02 98.09 85.74 97.8 85.24 98.3 84.74 97.8 84.46 98.09" style="fill:#3f3f3f"/><polygon points="69.16 82.79 69.66 83.28 69.16 83.78 69.44 84.07 69.94 83.57 70.44 84.07 70.72 83.78 70.22 83.28 70.72 82.79 70.44 82.5 69.94 83 69.44 82.5 69.16 82.79" style="fill:#3f3f3f"/><polygon points="38.56 52.19 39.06 52.69 38.56 53.18 38.84 53.47 39.34 52.97 39.84 53.47 40.12 53.18 39.63 52.69 40.12 52.19 39.84 51.9 39.34 52.4 38.84 51.9 38.56 52.19" style="fill:#3f3f3f"/><polygon points="23.26 36.89 23.76 37.39 23.26 37.88 23.54 38.17 24.04 37.67 24.54 38.17 24.82 37.88 24.33 37.39 24.82 36.89 24.54 36.6 24.04 37.1 23.54 36.6 23.26 36.89" style="fill:#3f3f3f"/><polygon points="7.96 21.59 8.46 22.09 7.96 22.58 8.24 22.87 8.74 22.37 9.24 22.87 9.52 22.58 9.03 22.09 9.52 21.59 9.24 21.3 8.74 21.8 8.24 21.3 7.96 21.59" style="fill:#3f3f3f"/><polygon points="71.48 50.86 70.98 51.36 70.48 50.86 70.2 51.15 70.7 51.65 70.2 52.14 70.48 52.43 70.98 51.93 71.48 52.43 71.76 52.14 71.27 51.65 71.76 51.15 71.48 50.86" style="fill:#3f3f3f"/><polygon points="86.78 35.56 86.28 36.06 85.78 35.56 85.5 35.85 86 36.35 85.5 36.84 85.78 37.13 86.28 36.63 86.78 37.13 87.06 36.84 86.56 36.35 87.06 35.85 86.78 35.56" style="fill:#3f3f3f"/><polygon points="102.08 20.26 101.58 20.76 101.08 20.26 100.8 20.55 101.3 21.05 100.8 21.54 101.08 21.83 101.58 21.33 102.08 21.83 102.36 21.54 101.86 21.05 102.36 20.55 102.08 20.26" style="fill:#3f3f3f"/><polygon points="117.38 4.96 116.88 5.46 116.38 4.96 116.1 5.25 116.59 5.75 116.1 6.24 116.38 6.53 116.88 6.03 117.38 6.53 117.66 6.24 117.16 5.75 117.66 5.25 117.38 4.96" style="fill:#3f3f3f"/><polygon points="162 51.15 162.49 51.65 162 52.14 162.28 52.43 162.78 51.93 163.28 52.43 163.56 52.14 163.06 51.65 163.56 51.15 163.28 50.86 162.78 51.36 162.28 50.86 162 51.15" style="fill:#3f3f3f"/><polygon points="146.7 35.85 147.19 36.35 146.7 36.84 146.98 37.13 147.48 36.63 147.98 37.13 148.26 36.84 147.76 36.35 148.26 35.85 147.98 35.56 147.48 36.06 146.98 35.56 146.7 35.85" style="fill:#3f3f3f"/><polygon points="131.4 20.55 131.9 21.05 131.4 21.54 131.68 21.83 132.18 21.33 132.68 21.83 132.96 21.54 132.46 21.05 132.96 20.55 132.68 20.26 132.18 20.76 131.68 20.26 131.4 20.55" style="fill:#3f3f3f"/><polygon points="116.1 97.05 116.59 97.54 116.1 98.04 116.38 98.33 116.88 97.83 117.38 98.33 117.66 98.04 117.16 97.54 117.66 97.05 117.38 96.76 116.88 97.26 116.38 96.76 116.1 97.05" style="fill:#3f3f3f"/><polygon points="100.8 81.75 101.3 82.25 100.8 82.74 101.08 83.03 101.58 82.53 102.08 83.03 102.36 82.74 101.86 82.25 102.36 81.75 102.08 81.46 101.58 81.96 101.08 81.46 100.8 81.75" style="fill:#3f3f3f"/><polygon points="85.5 66.45 86 66.94 85.5 67.44 85.78 67.73 86.28 67.23 86.78 67.73 87.06 67.44 86.56 66.94 87.06 66.45 86.78 66.16 86.28 66.66 85.78 66.16 85.5 66.45" style="fill:#3f3f3f"/><polygon points="54.9 35.85 55.4 36.35 54.9 36.84 55.18 37.13 55.68 36.63 56.18 37.13 56.46 36.84 55.97 36.35 56.46 35.85 56.18 35.56 55.68 36.06 55.18 35.56 54.9 35.85" style="fill:#3f3f3f"/><polygon points="39.6 20.55 40.1 21.05 39.6 21.54 39.88 21.83 40.38 21.33 40.88 21.83 41.16 21.54 40.67 21.05 41.16 20.55 40.88 20.26 40.38 20.76 39.88 20.26 39.6 20.55" style="fill:#3f3f3f"/><polygon points="24.3 5.25 24.8 5.75 24.3 6.24 24.58 6.53 25.08 6.03 25.58 6.53 25.86 6.24 25.37 5.75 25.86 5.25 25.58 4.96 25.08 5.46 24.58 4.96 24.3 5.25" style="fill:#3f3f3f"/><polygon points="131.4 81.75 131.9 82.25 131.4 82.74 131.68 83.03 132.18 82.53 132.68 83.03 132.96 82.74 132.46 82.25 132.96 81.75 132.68 81.46 132.18 81.96 131.68 81.46 131.4 81.75" style="fill:#3f3f3f"/><polygon points="116.1 66.45 116.59 66.94 116.1 67.44 116.38 67.73 116.88 67.23 117.38 67.73 117.66 67.44 117.16 66.94 117.66 66.45 117.38 66.16 116.88 66.66 116.38 66.16 116.1 66.45" style="fill:#3f3f3f"/><polygon points="100.8 51.15 101.3 51.65 100.8 52.14 101.08 52.43 101.58 51.93 102.08 52.43 102.36 52.14 101.86 51.65 102.36 51.15 102.08 50.86 101.58 51.36 101.08 50.86 100.8 51.15" style="fill:#3f3f3f"/><polygon points="70.2 20.55 70.7 21.05 70.2 21.54 70.48 21.83 70.98 21.33 71.48 21.83 71.76 21.54 71.27 21.05 71.76 20.55 71.48 20.26 70.98 20.76 70.48 20.26 70.2 20.55" style="fill:#3f3f3f"/><polygon points="54.9 5.25 55.4 5.75 54.9 6.24 55.18 6.53 55.68 6.03 56.18 6.53 56.46 6.24 55.97 5.75 56.46 5.25 56.18 4.96 55.68 5.46 55.18 4.96 54.9 5.25" style="fill:#3f3f3f"/><polygon points="146.7 66.45 147.19 66.94 146.7 67.44 146.98 67.73 147.48 67.23 147.98 67.73 148.26 67.44 147.76 66.94 148.26 66.45 147.98 66.16 147.48 66.66 146.98 66.16 146.7 66.45" style="fill:#3f3f3f"/><polygon points="131.4 51.15 131.9 51.65 131.4 52.14 131.68 52.43 132.18 51.93 132.68 52.43 132.96 52.14 132.46 51.65 132.96 51.15 132.68 50.86 132.18 51.36 131.68 50.86 131.4 51.15" style="fill:#3f3f3f"/><polygon points="116.1 35.85 116.59 36.35 116.1 36.84 116.38 37.13 116.88 36.63 117.38 37.13 117.66 36.84 117.16 36.35 117.66 35.85 117.38 35.56 116.88 36.06 116.38 35.56 116.1 35.85" style="fill:#3f3f3f"/><polygon points="85.5 5.25 86 5.75 85.5 6.24 85.78 6.53 86.28 6.03 86.78 6.53 87.06 6.24 86.56 5.75 87.06 5.25 86.78 4.96 86.28 5.46 85.78 4.96 85.5 5.25" style="fill:#3f3f3f"/><polygon points="177.3 35.85 177.79 36.35 177.3 36.84 177.58 37.13 178.08 36.63 178.58 37.13 178.86 36.84 178.36 36.35 178.86 35.85 178.58 35.56 178.08 36.06 177.58 35.56 177.3 35.85" style="fill:#3f3f3f"/><polygon points="162 20.55 162.49 21.05 162 21.54 162.28 21.83 162.78 21.33 163.28 21.83 163.56 21.54 163.06 21.05 163.56 20.55 163.28 20.26 162.78 20.76 162.28 20.26 162 20.55" style="fill:#3f3f3f"/><polygon points="146.7 5.25 147.19 5.75 146.7 6.24 146.98 6.53 147.48 6.03 147.98 6.53 148.26 6.24 147.76 5.75 148.26 5.25 147.98 4.96 147.48 5.46 146.98 4.96 146.7 5.25" style="fill:#3f3f3f"/><polygon points="192.6 20.55 193.09 21.05 192.6 21.54 192.88 21.83 193.38 21.33 193.88 21.83 194.16 21.54 193.66 21.05 194.16 20.55 193.88 20.26 193.38 20.76 192.88 20.26 192.6 20.55" style="fill:#3f3f3f"/><polygon points="177.3 5.25 177.79 5.75 177.3 6.24 177.58 6.53 178.08 6.03 178.58 6.53 178.86 6.24 178.36 5.75 178.86 5.25 178.58 4.96 178.08 5.46 177.58 4.96 177.3 5.25" style="fill:#3f3f3f"/><polygon points="207.9 5.25 208.39 5.75 207.9 6.24 208.18 6.53 208.68 6.03 209.18 6.53 209.46 6.24 208.96 5.75 209.46 5.25 209.18 4.96 208.68 5.46 208.18 4.96 207.9 5.25" style="fill:#3f3f3f"/></svg>