<svg id="3a92079f-059b-4fac-a52a-fa88b9a44200" data-name="teist" xmlns="http://www.w3.org/2000/svg" style="fill:#f8c572" viewBox="0 0 228.56 197.94"><title>preview</title><polygon points="98.76 83.87 110.94 104.96 110.94 90.86 98.76 83.87" /><polygon points="101.77 77.88 114.29 85.07 126.8 77.88 101.77 77.88" /><polygon points="117.63 90.86 117.63 104.96 129.79 83.87 117.63 90.86" /><polygon points="117.63 90.86 117.63 104.96 129.79 83.87 117.63 90.86" /><polygon points="101.77 77.88 114.29 85.07 126.8 77.88 101.77 77.88" /><polygon points="98.76 83.87 110.94 104.96 110.94 90.86 98.76 83.87" /><polygon points="98.76 83.87 110.94 104.96 110.94 90.86 98.76 83.87" /><polygon points="101.77 77.88 114.29 85.07 126.8 77.88 101.77 77.88" /><polygon points="117.63 90.86 117.63 104.96 129.79 83.87 117.63 90.86" /><polygon points="117.63 90.86 117.63 104.96 129.79 83.87 117.63 90.86" /><polygon points="101.77 77.88 114.29 85.07 126.8 77.88 101.77 77.88" /><polygon points="110.94 104.96 110.94 90.86 98.76 83.87 110.94 104.96" /><polygon points="117.63 104.96 129.79 83.87 117.63 90.86 117.63 104.96" /><polygon points="126.8 77.88 101.77 77.88 114.29 85.07 126.8 77.88" /><polygon points="110.94 90.86 98.76 83.87 110.94 104.96 110.94 90.86" /><polygon points="98.76 83.87 110.94 104.96 110.94 90.86 98.76 83.87" /><polygon points="101.77 77.88 114.29 85.07 126.8 77.88 101.77 77.88" /><polygon points="117.63 90.86 117.63 104.96 129.79 83.87 117.63 90.86" /><polygon points="117.63 90.86 117.63 104.96 129.79 83.87 117.63 90.86" /><polygon points="101.77 77.88 114.29 85.07 126.8 77.88 101.77 77.88" /><polygon points="98.76 83.87 110.94 104.96 110.94 90.86 98.76 83.87" /><polygon points="98.76 83.87 110.94 104.96 110.94 90.86 98.76 83.87" /><polygon points="101.77 77.88 114.29 85.07 126.8 77.88 101.77 77.88" /><polygon points="117.63 90.86 117.63 104.96 129.79 83.87 117.63 90.86" /><polygon points="117.63 90.86 117.63 104.96 129.79 83.87 117.63 90.86" /><polygon points="101.77 77.88 114.29 85.07 126.8 77.88 101.77 77.88" /><polygon points="98.76 83.87 110.94 104.96 110.94 90.86 98.76 83.87" /></svg>