<svg id="068e29fc-29d9-416a-8acb-ee72b4489bd5" data-name="teist" xmlns="http://www.w3.org/2000/svg" style="fill:#ffcc00" viewBox="0 0 228.56 197.94">

	<animateTransform attributeName="transform"
        type="rotate"
            from="0 0 0"
            to="360 0 0"
            begin="0s"
            dur="3s"
            repeatCount="indefinite"
        />

	<polygon points="98.77 94.56 110.95 115.65 110.95 101.55 98.77 94.56" /><polygon points="101.78 88.57 114.29 95.76 126.81 88.57 101.78 88.57" /><polygon points="117.64 101.55 117.64 115.65 129.8 94.56 117.64 101.55" /><polygon points="117.64 101.55 117.64 115.65 129.8 94.56 117.64 101.55" /><polygon points="101.78 88.57 114.29 95.76 126.81 88.57 101.78 88.57" /><polygon points="98.77 94.56 110.95 115.65 110.95 101.55 98.77 94.56" /><polygon points="98.77 94.56 110.95 115.65 110.95 101.55 98.77 94.56" /><polygon points="101.78 88.57 114.29 95.76 126.81 88.57 101.78 88.57" /><polygon points="117.64 101.55 117.64 115.65 129.8 94.56 117.64 101.55" /><polygon points="117.64 101.55 117.64 115.65 129.8 94.56 117.64 101.55" /><polygon points="101.78 88.57 114.29 95.76 126.81 88.57 101.78 88.57" /><polygon points="110.95 115.65 110.95 101.55 98.77 94.56 110.95 115.65" /><polygon points="117.64 115.65 129.8 94.56 117.64 101.55 117.64 115.65" /><polygon points="126.81 88.57 101.78 88.57 114.29 95.76 126.81 88.57" /><polygon points="110.95 101.55 98.77 94.56 110.95 115.65 110.95 101.55" /><polygon points="98.77 94.56 110.95 115.65 110.95 101.55 98.77 94.56" /><polygon points="101.78 88.57 114.29 95.76 126.81 88.57 101.78 88.57" /><polygon points="117.64 101.55 117.64 115.65 129.8 94.56 117.64 101.55" /><polygon points="117.64 101.55 117.64 115.65 129.8 94.56 117.64 101.55" /><polygon points="101.78 88.57 114.29 95.76 126.81 88.57 101.78 88.57" /><polygon points="98.77 94.56 110.95 115.65 110.95 101.55 98.77 94.56" /><polygon points="98.77 94.56 110.95 115.65 110.95 101.55 98.77 94.56" /><polygon points="101.78 88.57 114.29 95.76 126.81 88.57 101.78 88.57" /><polygon points="117.64 101.55 117.64 115.65 129.8 94.56 117.64 101.55" /><polygon points="117.64 101.55 117.64 115.65 129.8 94.56 117.64 101.55" /><polygon points="101.78 88.57 114.29 95.76 126.81 88.57 101.78 88.57" /><polygon points="98.77 94.56 110.95 115.65 110.95 101.55 98.77 94.56" />

</svg>