<svg id="6c4b3846-de93-4ca0-8ccc-7864ce43ce53" data-name="Ğ¡Ğ»Ğ¾Ğ¹ 1" xmlns="http://www.w3.org/2000/svg" viewBox="0 0 20 20"><title>rub</title><path d="M11.59,10.76a4.89,4.89,0,0,0,3.3-1.51A4.38,4.38,0,0,0,16,5.54a3.49,3.49,0,0,0-2.25-3,7.22,7.22,0,0,0-2.8-.45c-1.41,0-2.83,0-4.24,0-.33,0-.44.07-.44.43,0,1.81,0,3.62,0,5.44v.63c-.64,0-1.25,0-1.86,0-.3,0-.4.09-.38.38s0,.84,0,1.26c0,.73-.07.63.63.65H6.21v1.71H4v1.7c0,.52,0,.52.52.52H6.24c0,.75,0,1.44,0,2.11,0,.34-.09.79.08,1s.64.06,1,.07H9.21v-.45c0-.76,0-1.51,0-2.28,0-.35.12-.44.45-.43.62,0,1.24,0,1.86,0h1.27V12.52H9.59c-.18,0-.37.05-.38-.21V10.87C10,10.84,10.81,10.82,11.59,10.76ZM9.22,4.61c0-.09.12-.26.19-.26a12.13,12.13,0,0,1,2,.1,1.73,1.73,0,0,1,1.47,1.82,1.9,1.9,0,0,1-1,2,2,2,0,0,1-.84.24c-.61,0-1.23,0-1.88,0C9.21,7.19,9.2,5.9,9.22,4.61Z" /></svg>