<?xml version="1.0" encoding="utf-8"?>
<!-- Generator: Adobe Illustrator 24.0.1, SVG Export Plug-In . SVG Version: 6.00 Build 0)  -->
<svg version="1.0" id="Слой_1" xmlns="http://www.w3.org/2000/svg" xmlns:xlink="http://www.w3.org/1999/xlink" x="0px" y="0px"
	 viewBox="0 0 100 100" style="enable-background:new 0 0 100 100;" xml:space="preserve">
<style type="text/css">
	.st0{fill:#FFFFFF;}
	.st1{fill:#FEE203;}
	.st2{fill:#FEE304;}
	.st3{fill:#00FFB5;}
	.st4{fill:#201600;}
</style>
<g>
	<g>
		<g>
			<polygon class="st3" points="0.3,68.1 10.5,62.6 11.3,59.4 8,59.5 			"/>
		</g>
		<g>
			<polygon class="st3" points="6.8,81 14.1,66.3 12.5,61.8 8.7,64.6 			"/>
		</g>
		<g>
			<polygon class="st3" points="24.9,90.8 21.4,67.6 15.9,63.7 13.7,70.1 			"/>
		</g>
		<g>
			<polygon class="st3" points="54.2,87.5 31,63.1 21.3,63.1 24.1,72.4 			"/>
		</g>
		<g>
			<polygon class="st3" points="85.7,59.6 38.6,50 27.3,58 38.2,66.6 			"/>
		</g>
		<g>
			<polygon class="st3" points="99.7,1.1 36.8,28.4 30,47 49.8,48.2 			"/>
		</g>
	</g>
	<g>
		<g>
			<polygon class="st3" points="8.3,57.9 5.8,52 4.1,51.3 4,53.2 			"/>
		</g>
		<g>
			<polygon class="st3" points="17,57.8 9.4,52.9 6.8,53.5 8.2,55.8 			"/>
		</g>
		<g>
			<polygon class="st3" points="27.3,50.4 14.3,51 11.8,53.9 15.3,55.4 			"/>
		</g>
		<g>
			<polygon class="st3" points="33.2,33.5 18.5,44.8 18,50.1 23.2,49.1 			"/>
		</g>
	</g>
</g>
</svg>
