<?xml version="1.0" encoding="utf-8"?>
<!-- Generator: Adobe Illustrator 24.0.1, SVG Export Plug-In . SVG Version: 6.00 Build 0)  -->
<svg version="1.0" id="Слой_1" xmlns="http://www.w3.org/2000/svg" xmlns:xlink="http://www.w3.org/1999/xlink" x="0px" y="0px"
	 viewBox="0 0 100 100" style="enable-background:new 0 0 100 100;" xml:space="preserve">
<style type="text/css">
	.st0{fill:#FFFFFF;}
	.st1{fill:#FEE203;}
	.st2{fill:#FEE304;}
	.st3{fill:#00FFB5;}
	.st4{fill:#201600;}
</style>
<g>
	<g>
		<g>
			<polygon class="st3" points="99.7,68.1 89.5,62.6 88.7,59.4 92,59.5 			"/>
		</g>
		<g>
			<polygon class="st3" points="93.2,81 85.9,66.3 87.5,61.8 91.3,64.6 			"/>
		</g>
		<g>
			<polygon class="st3" points="75.1,90.8 78.6,67.6 84.1,63.7 86.3,70.1 			"/>
		</g>
		<g>
			<polygon class="st3" points="45.8,87.5 69,63.1 78.7,63.1 75.9,72.4 			"/>
		</g>
		<g>
			<polygon class="st3" points="14.3,59.6 61.4,50 72.7,58 61.8,66.6 			"/>
		</g>
		<g>
			<polygon class="st3" points="0.3,1.1 63.2,28.4 70,47 50.2,48.2 			"/>
		</g>
	</g>
	<g>
		<g>
			<polygon class="st3" points="91.7,57.9 94.2,52 95.9,51.3 96,53.2 			"/>
		</g>
		<g>
			<polygon class="st3" points="83,57.8 90.6,52.9 93.2,53.5 91.8,55.8 			"/>
		</g>
		<g>
			<polygon class="st3" points="72.7,50.4 85.7,51 88.2,53.9 84.7,55.4 			"/>
		</g>
		<g>
			<polygon class="st3" points="66.8,33.5 81.5,44.8 82,50.1 76.8,49.1 			"/>
		</g>
	</g>
</g>
</svg>
