<svg id="8e7c4e53-d792-45ca-9d86-5e55257e768b" data-name="teist" xmlns="http://www.w3.org/2000/svg" viewBox="0 0 78 78"><title>about</title><path id="406f5bc0-5c7f-483e-9950-b523de8874bb" data-name="3d_modelling_round" d="M42.9,2.05h0a4.74,4.74,0,0,0-7.8,0h0L.94,50.82a4.73,4.73,0,0,0,1.4,6.91L35.1,76.54l1.65.89a4.73,4.73,0,0,0,4.5,0l1.65-.89L75.66,57.73a4.73,4.73,0,0,0,1.4-6.91Zm24,51.78-21,12A2,2,0,0,1,42.9,64.1V21a2,2,0,0,1,3.51-1.16L67.46,51A2,2,0,0,1,66.88,53.83ZM10.54,51,31.59,19.84A2,2,0,0,1,35.1,21V64.1a2,2,0,0,1-2.94,1.68l-21-12A1.94,1.94,0,0,1,10.54,51Z" style="fill:#fff"/></svg>