<svg id="508ad440-a2b1-4250-8cb7-d305e5c3f734" data-name="Layer 1" xmlns="http://www.w3.org/2000/svg" viewBox="0 0 1009.13 326.69"><title>ba6</title><g style="opacity:0.7"><g style="opacity:0.2"><polygon points="65.06 76.04 8.04 133.06 -26.94 98.07 -84.39 155.5 -85.23 154.66 -26.92 96.33 8.07 131.32 63.36 76.04 39.16 51.82 60.32 30.68 61.18 31.56 40.9 51.85 65.06 76.04" style="fill:#333"/><path d="M62.34,29.5a2.68,2.68,0,0,1,0,3.76,2.64,2.64,0,1,1-3.74-3.74A2.68,2.68,0,0,1,62.34,29.5Z" style="fill:#333"/><path d="M10.08,130.16a3.27,3.27,0,0,1-4.62,4.62,3.27,3.27,0,1,1,4.62-4.62Z" style="fill:#333"/><path d="M66.81,73.44a3.26,3.26,0,1,1-4.61,0A3.24,3.24,0,0,1,66.81,73.44Z" style="fill:#333"/><path d="M42,50.42a2,2,0,1,1-2.86,0A2,2,0,0,1,42,50.42Z" style="fill:#333"/><polygon points="6.92 184.88 -50.1 241.9 -85.07 206.91 -142.53 264.36 -143.42 263.49 -85.11 205.17 -50.12 240.16 5.17 184.88 -19.01 160.69 2.15 139.52 3.04 140.4 -17.26 160.69 6.92 184.88" style="fill:#333"/><path d="M4.17,138.36a2.67,2.67,0,0,1,0,3.77,2.64,2.64,0,1,1,0-3.77Z" style="fill:#333"/><path d="M8.64,182.3a3.22,3.22,0,0,1,0,4.58,3.25,3.25,0,1,1,0-4.58Z" style="fill:#333"/><polygon points="83.81 200.43 82.94 201.31 62.63 180.99 38.45 205.19 -18.58 148.17 16.41 113.19 -41.04 55.74 -40.18 54.86 18.15 113.19 -16.84 148.17 38.43 203.44 62.61 179.26 83.81 200.43" style="fill:#333"/><path d="M19.28,115.2a3.25,3.25,0,1,1,0-4.6A3.22,3.22,0,0,1,19.28,115.2Z" style="fill:#333"/><path d="M85,202.44a2.65,2.65,0,1,1,0-3.73A2.66,2.66,0,0,1,85,202.44Z" style="fill:#333"/><path d="M41,206.92a3.25,3.25,0,1,1,0-4.6A3.25,3.25,0,0,1,41,206.92Z" style="fill:#333"/><path d="M64.07,182.14a2,2,0,1,1,0-2.87A2,2,0,0,1,64.07,182.14Z" style="fill:#333"/><polygon points="53.57 307.55 52.69 308.41 32.4 288.11 8.2 312.31 -48.83 255.27 -13.82 220.28 -71.24 162.86 -70.38 162 -12.08 220.3 -47.07 255.29 8.2 310.58 32.4 286.38 53.57 307.55" style="fill:#333"/><path d="M54.71,309.59a2.63,2.63,0,0,1-3.72,0,2.65,2.65,0,1,1,3.72,0Z" style="fill:#333"/><path d="M10.79,314a3.24,3.24,0,0,1-4.6,0,3.25,3.25,0,1,1,4.6-4.6A3.22,3.22,0,0,1,10.79,314Z" style="fill:#333"/><ellipse cx="32.4" cy="287.82" rx="2.03" ry="2.03" style="fill:#333"/><polygon points="159.67 164.87 158.81 165.73 138.5 145.43 114.32 169.61 57.31 112.62 92.3 77.61 34.85 20.16 35.71 19.3 94.03 77.61 59.04 112.6 114.33 167.89 138.51 143.71 159.67 164.87" style="fill:#333"/><path d="M37.58,22.05a3.26,3.26,0,1,1,0-4.61A3.27,3.27,0,0,1,37.58,22.05Z" style="fill:#333"/><path d="M95.17,79.62a3.26,3.26,0,1,1,0-4.59A3.25,3.25,0,0,1,95.17,79.62Z" style="fill:#333"/><path d="M160.81,166.89a2.64,2.64,0,1,1,0-3.76A2.66,2.66,0,0,1,160.81,166.89Z" style="fill:#333"/><path d="M60.17,114.61a3.25,3.25,0,1,1,0-4.6A3.25,3.25,0,0,1,60.17,114.61Z" style="fill:#333"/><path d="M116.91,171.34a3.26,3.26,0,0,1-4.6-4.61,3.23,3.23,0,0,1,4.6,0A3.26,3.26,0,0,1,116.91,171.34Z" style="fill:#333"/><path d="M139.94,146.57a2,2,0,1,1-2.87-2.86,2,2,0,1,1,2.87,2.86Z" style="fill:#333"/><polygon points="174.36 278.04 173.5 278.9 153.2 258.6 129.01 282.8 71.99 225.76 106.96 190.78 49.52 133.33 50.38 132.45 108.71 190.78 73.72 225.76 129 281.05 153.19 256.85 174.36 278.04" style="fill:#333"/><path d="M52.26,135.21a3.26,3.26,0,1,1,0-4.62A3.25,3.25,0,0,1,52.26,135.21Z" style="fill:#333"/><path d="M109.86,192.8a3.29,3.29,0,0,1-4.62,0,3.26,3.26,0,1,1,4.62,0Z" style="fill:#333"/><path d="M175.5,280a2.65,2.65,0,1,1-3.74-3.75,2.69,2.69,0,0,1,3.76,0A2.66,2.66,0,0,1,175.5,280Z" style="fill:#333"/><path d="M74.87,227.79a3.26,3.26,0,1,1,0-4.61A3.29,3.29,0,0,1,74.87,227.79Z" style="fill:#333"/><path d="M131.6,284.53a3.26,3.26,0,1,1,0-4.62A3.26,3.26,0,0,1,131.6,284.53Z" style="fill:#333"/><path d="M154.63,259.74a2,2,0,1,1-2.88-2.89,2,2,0,0,1,2.88,2.89Z" style="fill:#333"/><polygon points="47.01 272.94 46.63 273.31 37.47 264.15 26.54 275.07 0.78 249.32 16.57 233.53 -9.38 207.58 -8.98 207.16 17.37 233.53 1.57 249.32 26.55 274.3 37.46 263.39 47.01 272.94" style="fill:#333"/><path d="M17.88,234.43a1.43,1.43,0,0,1-2.07,0,1.46,1.46,0,1,1,2.07-2.07A1.42,1.42,0,0,1,17.88,234.43Z" style="fill:#333"/><path d="M47.55,273.85a1.22,1.22,0,0,1-1.7,0,1.18,1.18,0,0,1,0-1.69,1.2,1.2,0,0,1,1.69,0A1.24,1.24,0,0,1,47.55,273.85Z" style="fill:#333"/><path d="M2.08,250.24a1.46,1.46,0,1,1,0-2.07A1.45,1.45,0,0,1,2.08,250.24Z" style="fill:#333"/><path d="M27.72,275.87a1.47,1.47,0,1,1,0-2.07A1.48,1.48,0,0,1,27.72,275.87Z" style="fill:#333"/><path d="M38.11,264.68a.91.91,0,0,1-1.29,0,.92.92,0,0,1,0-1.31.94.94,0,0,1,1.33,0A.91.91,0,0,1,38.11,264.68Z" style="fill:#333"/><polygon points="104.76 173.38 105.15 173 114.32 182.17 125.25 171.23 150.99 196.97 135.2 212.77 161.15 238.72 160.74 239.13 134.41 212.8 150.21 196.99 125.24 172.01 114.32 182.93 104.76 173.38" style="fill:#333"/><path d="M159.91,237.89a1.46,1.46,0,0,1,2.07,0,1.46,1.46,0,1,1-2.07,2.07A1.46,1.46,0,0,1,159.91,237.89Z" style="fill:#333"/><path d="M133.9,211.89A1.46,1.46,0,0,1,136,214a1.47,1.47,0,0,1-2.07,0A1.45,1.45,0,0,1,133.9,211.89Z" style="fill:#333"/><path d="M104.25,172.48a1.19,1.19,0,0,1,1.69,0,1.21,1.21,0,0,1,0,1.69,1.2,1.2,0,0,1-1.68,0A1.18,1.18,0,0,1,104.25,172.48Z" style="fill:#333"/><path d="M149.71,196.08a1.45,1.45,0,0,1,2.07,0,1.47,1.47,0,0,1,0,2.07,1.46,1.46,0,0,1-2.07-2.07Z" style="fill:#333"/><path d="M124.07,170.44a1.47,1.47,0,0,1,2.08,2.08,1.44,1.44,0,0,1-2.07,0A1.47,1.47,0,0,1,124.07,170.44Z" style="fill:#333"/><path d="M113.68,181.63a.92.92,0,1,1,0,1.3A.94.94,0,0,1,113.68,181.63Z" style="fill:#333"/><polygon points="6.32 260.05 6.92 260.65 -7.55 275.12 9.72 292.39 -30.96 333.07 -55.93 308.11 -96.89 349.07 -97.51 348.45 -55.91 306.85 -30.96 331.81 8.48 292.38 -8.77 275.14 6.32 260.05" style="fill:#333"/><path d="M7.75,259.2a1.93,1.93,0,0,1,0,2.69,1.9,1.9,0,0,1-2.69,0,1.89,1.89,0,0,1,2.67-2.66Z" style="fill:#333"/><path d="M11,290.53a2.33,2.33,0,1,1-3.29,0A2.34,2.34,0,0,1,11,290.53Z" style="fill:#333"/><polygon points="130.29 217.27 130.9 217.88 116.42 232.36 133.68 249.62 93 290.29 68.02 265.33 27.06 306.31 26.44 305.7 68.05 264.11 93.02 289.07 132.44 249.64 115.17 232.38 130.29 217.27" style="fill:#333"/><path d="M28.41,304.37a2.33,2.33,0,0,1-3.29,3.29,2.33,2.33,0,1,1,3.29-3.29Z" style="fill:#333"/><path d="M69.49,263.29a2.34,2.34,0,0,1,0,3.28,2.32,2.32,0,1,1,0-3.28Z" style="fill:#333"/><path d="M131.73,216.44a1.89,1.89,0,1,1-2.7,0A1.92,1.92,0,0,1,131.73,216.44Z" style="fill:#333"/><path d="M94.43,288.24a2.32,2.32,0,0,1-3.29,3.28,2.35,2.35,0,0,1,0-3.28A2.32,2.32,0,0,1,94.43,288.24Z" style="fill:#333"/><path d="M134.9,247.77a2.32,2.32,0,1,1-3.28,0A2.34,2.34,0,0,1,134.9,247.77Z" style="fill:#333"/><path d="M117.24,231.34a1.47,1.47,0,0,1,0,2.06,1.49,1.49,0,0,1-2.08,0,1.46,1.46,0,0,1,2.06-2.06Z" style="fill:#333"/><polygon points="15.23 218.31 15.52 218 22.46 224.94 30.74 216.68 50.19 236.15 38.25 248.11 57.87 267.72 57.56 268.01 37.66 248.11 49.6 236.17 30.71 217.27 22.46 225.53 15.23 218.31" style="fill:#333"/><path d="M56.91,267.08a1.13,1.13,0,0,1,1.59,0,1.11,1.11,0,0,1,0,1.58,1.12,1.12,0,0,1-1.58-1.58Z" style="fill:#333"/><path d="M37.27,247.44a1.08,1.08,0,0,1,1.57,0,1.14,1.14,0,0,1,0,1.6,1.09,1.09,0,0,1-1.55,0A1,1,0,0,1,37.27,247.44Z" style="fill:#333"/><path d="M14.85,217.62a.9.9,0,1,1,0,1.26A.87.87,0,0,1,14.85,217.62Z" style="fill:#333"/><path d="M49.22,235.47a1.1,1.1,0,0,1,1.58,0,1.12,1.12,0,0,1,0,1.56,1.11,1.11,0,0,1-1.58,0A1.1,1.1,0,0,1,49.22,235.47Z" style="fill:#333"/><path d="M29.85,216.08a1.1,1.1,0,0,1,1.56,0,1.09,1.09,0,0,1,0,1.56,1.05,1.05,0,0,1-1.56,0A1.08,1.08,0,0,1,29.85,216.08Z" style="fill:#333"/><path d="M22,224.56a.67.67,0,0,1,1,0,.68.68,0,0,1,0,1,.7.7,0,0,1-1,0A.68.68,0,0,1,22,224.56Z" style="fill:#333"/><polygon points="1.83 57.87 2.05 57.63 7.46 63.05 13.91 56.62 29.11 71.82 19.79 81.15 35.1 96.48 34.88 96.7 19.32 81.15 28.65 71.8 13.93 57.08 7.46 63.52 1.83 57.87" style="fill:#333"/><path d="M34.4,96a.85.85,0,0,1,1.21,0,.86.86,0,0,1,0,1.22.88.88,0,0,1-1.25,0A.86.86,0,0,1,34.4,96Z" style="fill:#333"/><path d="M19.05,80.61a.86.86,0,0,1,1.21,0,.9.9,0,0,1,0,1.22.86.86,0,1,1-1.21-1.22Z" style="fill:#333"/><path d="M1.54,57.35a.71.71,0,0,1,1,0,.71.71,0,0,1,0,1,.7.7,0,1,1-1-1Z" style="fill:#333"/><path d="M28.37,71.29a.86.86,0,1,1,0,1.21A.85.85,0,0,1,28.37,71.29Z" style="fill:#333"/><path d="M13.23,56.15a.88.88,0,0,1,1.24,1.24.89.89,0,0,1-1.23,0A.86.86,0,0,1,13.23,56.15Z" style="fill:#333"/><path d="M7.1,62.78a.5.5,0,0,1,.76,0,.54.54,0,0,1,0,.76.56.56,0,0,1-.78,0A.53.53,0,0,1,7.1,62.78Z" style="fill:#333"/><polygon points="7.18 138.82 7.46 138.55 14.41 145.48 22.65 137.21 42.14 156.7 30.2 168.62 49.81 188.24 49.51 188.54 29.58 168.61 41.53 156.67 22.65 137.8 14.41 146.05 7.18 138.82" style="fill:#333"/><path d="M48.87,187.6a1.11,1.11,0,1,1,0,1.57A1.12,1.12,0,0,1,48.87,187.6Z" style="fill:#333"/><path d="M29.21,167.92a1.09,1.09,0,0,1,1.56,0,1.1,1.1,0,1,1-1.56,1.56A1.09,1.09,0,0,1,29.21,167.92Z" style="fill:#333"/><path d="M6.8,138.14a.89.89,0,0,1,1.27,0,.9.9,0,0,1-1.27,1.27A.94.94,0,0,1,6.8,138.14Z" style="fill:#333"/><path d="M41.15,156a1.1,1.1,0,1,1,0,1.59A1.11,1.11,0,0,1,41.15,156Z" style="fill:#333"/><path d="M21.78,136.61a1.1,1.1,0,0,1,1.57,0,1.09,1.09,0,0,1,0,1.56,1.11,1.11,0,1,1-1.57-1.58Z" style="fill:#333"/><path d="M13.9,145.08a.7.7,0,1,1,1,1,.7.7,0,0,1-1-1Z" style="fill:#333"/><polygon points="28.56 18.87 28.86 19.17 21.94 26.1 30.2 34.36 10.73 53.83 -1.23 41.87 -20.86 61.5 -21.14 61.2 -1.23 41.28 10.71 53.22 29.58 34.34 21.33 26.1 28.56 18.87" style="fill:#333"/><path d="M29.24,18.46a.87.87,0,0,1,0,1.27.89.89,0,0,1-1.27,0,.92.92,0,0,1,0-1.29A.87.87,0,0,1,29.24,18.46Z" style="fill:#333"/><path d="M11.41,52.83a1.12,1.12,0,0,1,0,1.57,1.1,1.1,0,0,1-1.57,0,1.11,1.11,0,1,1,1.57-1.57Z" style="fill:#333"/><path d="M30.77,33.47a1.1,1.1,0,1,1-1.57,0A1.1,1.1,0,0,1,30.77,33.47Z" style="fill:#333"/><path d="M22.32,25.62a.64.64,0,0,1,0,.95.66.66,0,0,1-.95,0,.69.69,0,1,1,1-1Z" style="fill:#333"/><polygon points="73.2 226.12 66.08 233.24 39.08 206.24 39.53 205.81 66.08 232.38 72.77 225.69 73.2 226.12" style="fill:#333"/><polygon points="58.22 111.98 57.55 112.64 48.46 103.55 71.2 80.8 65.49 75.06 66.13 74.43 72.48 80.78 49.75 103.51 58.22 111.98" style="fill:#333"/><polygon points="68.75 175.5 63.1 181.15 62.48 180.53 67.45 175.53 37.08 145.14 49.62 132.58 50.29 133.23 38.38 145.13 68.75 175.5" style="fill:#333"/><polygon points="21.16 213.53 15.97 218.74 15.52 218.29 20.3 213.51 2.48 195.7 -9.17 207.37 -9.6 206.94 2.48 194.86 21.16 213.53" style="fill:#333"/><polygon points="100.77 71.29 93.8 78.27 93.36 77.83 99.91 71.29 60.22 31.61 60.67 31.18 100.77 71.29" style="fill:#333"/><polygon points="130.82 217.81 130.18 218.45 123.72 211.99 126.05 209.66 107.22 190.83 107.88 190.16 127.35 209.62 124.99 211.97 130.82 217.81" style="fill:#333"/><polygon points="-4.09 332.73 -18.02 346.66 -31.28 333.4 -30.63 332.75 -18 345.36 -5.4 332.75 -8.98 329.15 7.88 312.28 8.52 312.92 -7.71 329.14 -4.09 332.73" style="fill:#333"/></g><polygon points="42.65 80.41 -8.04 131.09 -39.13 100 -90.19 151.05 -90.95 150.28 -39.12 98.45 -8.02 129.54 41.1 80.41 19.59 58.91 38.41 40.11 39.18 40.87 21.14 58.91 42.65 80.41" style="fill:#333"/><path d="M40.2,39.07a2.35,2.35,0,1,1-3.32,0A2.35,2.35,0,0,1,40.2,39.07Z" style="fill:#333"/><path d="M44.17,78.11a2.9,2.9,0,1,1-4.1,0A2.9,2.9,0,0,1,44.17,78.11Z" style="fill:#333"/><path d="M22.17,57.65a1.78,1.78,0,0,1,0,2.55,1.8,1.8,0,1,1-2.54-2.55A1.8,1.8,0,0,1,22.17,57.65Z" style="fill:#333"/><polygon points="59.27 190.97 58.5 191.74 40.45 173.69 18.96 195.18 -31.7 144.52 -0.62 113.43 -51.68 62.38 -50.91 61.61 0.92 113.43 -30.17 144.52 18.96 193.65 40.45 172.16 59.27 190.97" style="fill:#333"/><path d="M1.92,115.21a2.86,2.86,0,0,1-4.07,0,2.88,2.88,0,0,1,0-4.08,2.88,2.88,0,0,1,4.09,0A2.86,2.86,0,0,1,1.92,115.21Z" style="fill:#333"/><path d="M60.29,192.76A2.36,2.36,0,0,1,57,189.41a2.35,2.35,0,0,1,3.33,0A2.38,2.38,0,0,1,60.29,192.76Z" style="fill:#333"/><path d="M21.28,196.74a2.9,2.9,0,1,1,0-4.11A2.93,2.93,0,0,1,21.28,196.74Z" style="fill:#333"/><path d="M41.74,174.69a1.78,1.78,0,0,1-2.55,0,1.81,1.81,0,1,1,2.55,0Z" style="fill:#333"/><polygon points="32.4 286.15 31.63 286.92 13.59 268.88 -7.9 290.39 -58.58 239.72 -27.48 208.61 -78.51 157.57 -77.75 156.81 -25.95 208.61 -57.05 239.72 -7.9 288.86 13.59 267.35 32.4 286.15" style="fill:#333"/><circle cx="31.77" cy="286.29" r="2.35" style="fill:#333"/><path d="M14.87,269.92a1.84,1.84,0,0,1-2.57,0,1.81,1.81,0,1,1,2.57,0Z" style="fill:#333"/><polygon points="126.69 159.36 125.93 160.12 107.88 142.09 86.39 163.58 35.71 112.91 66.81 81.8 15.77 30.76 16.54 30 68.37 81.83 37.28 112.92 86.39 162.05 107.88 140.56 126.69 159.36" style="fill:#333"/><path d="M18.21,32.43a2.89,2.89,0,1,1,0-4.09A2.89,2.89,0,0,1,18.21,32.43Z" style="fill:#333"/><path d="M69.39,83.6a2.9,2.9,0,1,1,0-4.08A2.91,2.91,0,0,1,69.39,83.6Z" style="fill:#333"/><path d="M127.73,161.16a2.37,2.37,0,1,1,0-3.35A2.38,2.38,0,0,1,127.73,161.16Z" style="fill:#333"/><path d="M38.28,114.69a2.89,2.89,0,1,1,0-4.08A2.88,2.88,0,0,1,38.28,114.69Z" style="fill:#333"/><path d="M88.7,165.1a2.9,2.9,0,1,1,0-4.09A2.89,2.89,0,0,1,88.7,165.1Z" style="fill:#333"/><path d="M109.16,143.1a1.82,1.82,0,0,1-2.57,0,1.86,1.86,0,0,1,0-2.56,1.82,1.82,0,0,1,2.57,0A1.79,1.79,0,0,1,109.16,143.1Z" style="fill:#333"/><polygon points="139.76 259.94 138.99 260.7 120.94 242.63 99.45 264.14 48.79 213.48 79.87 182.39 28.81 131.34 29.58 130.56 81.39 182.39 50.32 213.48 99.45 262.61 120.94 241.1 139.76 259.94" style="fill:#333"/><ellipse cx="29.2" cy="130.95" rx="2.9" ry="2.9" style="fill:#333"/><path d="M82.41,184.18a2.9,2.9,0,1,1,0-4.11A2.9,2.9,0,0,1,82.41,184.18Z" style="fill:#333"/><path d="M140.77,261.7a2.35,2.35,0,1,1,0-3.32A2.34,2.34,0,0,1,140.77,261.7Z" style="fill:#333"/><path d="M51.34,215.27a2.91,2.91,0,1,1,0-4.11A2.92,2.92,0,0,1,51.34,215.27Z" style="fill:#333"/><path d="M101.75,265.7a2.9,2.9,0,0,1-4.09-4.11,2.9,2.9,0,0,1,4.09,4.11Z" style="fill:#333"/><path d="M122.21,243.67a1.8,1.8,0,1,1-2.55-2.55,1.8,1.8,0,0,1,2.55,2.55Z" style="fill:#333"/><polygon points="26.58 255.4 26.25 255.73 18.1 247.6 8.39 257.31 -14.52 234.42 -0.48 220.38 -23.53 197.32 -23.16 196.96 0.24 220.38 -13.8 234.42 8.39 256.63 18.1 246.91 26.58 255.4" style="fill:#333"/><ellipse cx="-0.23" cy="220.27" rx="1.3" ry="1.3" style="fill:#333"/><path d="M27.05,256.19a1.05,1.05,0,0,1-1.5,0,1.07,1.07,0,0,1,0-1.5,1.09,1.09,0,0,1,1.51,0A1.07,1.07,0,0,1,27.05,256.19Z" style="fill:#333"/><path d="M9.44,258a1.33,1.33,0,0,1-1.85,0,1.31,1.31,0,0,1,0-1.86A1.32,1.32,0,0,1,9.44,258Z" style="fill:#333"/><path d="M18.67,248.06a.8.8,0,0,1-1.14,0,.82.82,0,0,1,0-1.16.81.81,0,0,1,1.14,1.16Z" style="fill:#333"/><polygon points="77.92 166.92 78.24 166.59 86.39 174.74 96.12 165.03 119 187.9 104.95 201.94 128.01 224.99 127.65 225.34 104.25 201.96 118.3 187.9 96.1 165.71 86.39 175.42 77.92 166.92" style="fill:#333"/><path d="M126.91,224.24a1.32,1.32,0,1,1,0,1.85A1.31,1.31,0,0,1,126.91,224.24Z" style="fill:#333"/><path d="M103.81,201.15a1.28,1.28,0,0,1,1.85,0,1.32,1.32,0,0,1,0,1.84,1.3,1.3,0,0,1-1.85-1.84Z" style="fill:#333"/><path d="M77.43,166.11a1.07,1.07,0,1,1,0,1.51A1.06,1.06,0,0,1,77.43,166.11Z" style="fill:#333"/><path d="M117.85,187.11a1.29,1.29,0,0,1,1.85,0,1.3,1.3,0,1,1-1.85,1.84A1.3,1.3,0,0,1,117.85,187.11Z" style="fill:#333"/><path d="M95.07,164.31a1.33,1.33,0,0,1,1.85,0,1.31,1.31,0,0,1,0,1.85,1.29,1.29,0,0,1-1.85,0A1.27,1.27,0,0,1,95.07,164.31Z" style="fill:#333"/><path d="M85.82,174.24a.83.83,0,0,1,1.15,0,.84.84,0,0,1,0,1.16.86.86,0,0,1-1.18,0A.85.85,0,0,1,85.82,174.24Z" style="fill:#333"/><polygon points="100.59 205.94 101.14 206.46 88.27 219.34 103.6 234.67 67.45 270.82 45.27 248.65 8.87 285.06 8.32 284.53 45.29 247.55 67.45 269.73 102.5 234.69 87.16 219.36 100.59 205.94" style="fill:#333"/><path d="M10,283.34a2,2,0,0,1,0,2.91,2.06,2.06,0,1,1,0-2.91Z" style="fill:#333"/><path d="M46.56,246.82a2.07,2.07,0,1,1-2.93,0A2.09,2.09,0,0,1,46.56,246.82Z" style="fill:#333"/><path d="M101.87,205.21a1.67,1.67,0,0,1,0,2.37,1.68,1.68,0,1,1,0-2.37Z" style="fill:#333"/><path d="M68.72,269a2.07,2.07,0,1,1-2.93,2.93A2.07,2.07,0,0,1,68.72,269Z" style="fill:#333"/><path d="M104.7,233a2.07,2.07,0,1,1-2.93,0A2.08,2.08,0,0,1,104.7,233Z" style="fill:#333"/><path d="M89,218.43a1.3,1.3,0,1,1-1.81,0A1.3,1.3,0,0,1,89,218.43Z" style="fill:#333"/><polygon points="-1.67 206.84 -1.4 206.57 4.76 212.74 12.11 205.4 29.43 222.72 18.8 233.34 36.22 250.77 35.96 251.02 18.26 233.34 28.89 222.72 12.11 205.94 4.76 213.28 -1.67 206.84" style="fill:#333"/><path d="M35.39,250.21a1,1,0,0,1,1.4,0,1,1,0,0,1,0,1.4,1,1,0,0,1-1.4,0A1,1,0,0,1,35.39,250.21Z" style="fill:#333"/><path d="M17.91,232.73a1,1,0,0,1,1.41,0,1,1,0,0,1,0,1.42,1,1,0,0,1-1.4-1.4Z" style="fill:#333"/><path d="M28.54,222.11a1,1,0,0,1,1.4,0,1,1,0,0,1,0,1.39,1,1,0,0,1-1.4,0A1,1,0,0,1,28.54,222.11Z" style="fill:#333"/><path d="M11.32,204.89a1,1,0,1,1,1.4,1.38,1,1,0,0,1-1.4,0A1,1,0,0,1,11.32,204.89Z" style="fill:#333"/><path d="M4.35,212.4a.59.59,0,0,1,.85,0,.62.62,0,1,1-.87.88A.61.61,0,0,1,4.35,212.4Z" style="fill:#333"/><polygon points="-13.58 64.27 -13.37 64.06 -8.56 68.89 -2.82 63.16 10.68 76.66 2.39 84.95 16 98.58 15.81 98.78 1.99 84.95 10.27 76.66 -2.82 63.56 -8.56 69.29 -13.58 64.27" style="fill:#333"/><path d="M15.38,98.13a.75.75,0,1,1,0,1.08A.75.75,0,0,1,15.38,98.13Z" style="fill:#333"/><path d="M1.73,84.49a.75.75,0,0,1,1.09,0,.79.79,0,0,1,0,1.07.78.78,0,0,1-1.1,0A.75.75,0,0,1,1.73,84.49Z" style="fill:#333"/><path d="M10,76.2a.74.74,0,0,1,1.08,0,.76.76,0,0,1,0,1.08.78.78,0,0,1-1.08,0A.74.74,0,0,1,10,76.2Z" style="fill:#333"/><polygon points="-8.82 136.23 -8.56 135.97 -2.4 142.12 4.92 134.78 22.24 152.08 11.63 162.7 29.05 180.12 28.8 180.39 11.09 162.7 21.71 152.08 4.95 135.3 -2.4 142.64 -8.82 136.23" style="fill:#333"/><path d="M28.22,179.56a1,1,0,0,1,1.4,0,1,1,0,1,1-1.4,1.38A1,1,0,0,1,28.22,179.56Z" style="fill:#333"/><ellipse cx="11.45" cy="162.78" rx="0.98" ry="0.99" style="fill:#333"/><path d="M21.38,151.48a1,1,0,0,1,1.4,0,1,1,0,0,1,0,1.38,1,1,0,0,1-1.42,0A1,1,0,0,1,21.38,151.48Z" style="fill:#333"/><path d="M4.15,134.25a1,1,0,0,1,1.4,0,1,1,0,0,1-1.41,1.4A1,1,0,0,1,4.15,134.25Z" style="fill:#333"/><polygon points="10.19 29.6 10.46 29.87 4.3 36.03 11.63 43.37 -5.67 60.67 -16.29 50.06 -33.73 67.49 -33.97 67.23 -16.29 49.55 -5.67 60.15 11.09 43.37 3.75 36.03 10.19 29.6" style="fill:#333"/><path d="M10.81,29.25a.8.8,0,0,1,0,1.13.82.82,0,0,1-1.15,0,.81.81,0,0,1,0-1.15A.82.82,0,0,1,10.81,29.25Z" style="fill:#333"/><circle cx="11.45" cy="43.28" r="0.98" style="fill:#333"/><path d="M4.63,35.6a.62.62,0,0,1-.86.88.63.63,0,0,1,0-.89A.6.6,0,0,1,4.63,35.6Z" style="fill:#333"/><polygon points="49.87 213.8 43.54 220.12 19.53 196.13 19.91 195.75 43.54 219.36 49.49 213.42 49.87 213.8" style="fill:#333"/><polygon points="36.53 112.36 35.96 112.94 27.87 104.85 48.09 84.63 43 79.55 43.57 78.98 49.22 84.63 29 104.85 36.53 112.36" style="fill:#333"/><polygon points="45.89 168.81 40.88 173.84 40.32 173.27 44.75 168.85 17.75 141.83 28.89 130.66 29.5 131.24 18.91 141.83 45.89 168.81" style="fill:#333"/><polygon points="3.61 202.59 -1 207.23 -1.4 206.84 2.85 202.59 -12.97 186.77 -23.36 197.13 -23.74 196.75 -12.97 186.01 3.61 202.59" style="fill:#333"/><polygon points="74.36 76.19 68.17 82.39 67.78 82.01 73.59 76.19 38.35 40.93 38.73 40.55 74.36 76.19" style="fill:#333"/><polygon points="101.07 206.4 100.5 206.97 94.77 201.24 96.84 199.17 80.09 182.41 80.66 181.84 97.98 199.14 95.88 201.23 101.07 206.4" style="fill:#333"/><rect x="125.2" y="245.64" width="10.76" height="10.76" transform="translate(-139.25 165.86) rotate(-45)" style="fill:#6e6e6e"/><rect x="-0.14" y="174.8" width="10.76" height="10.76" transform="translate(-125.87 56.48) rotate(-45)" style="fill:#6e6e6e"/><rect x="61.08" y="76.1" width="10.76" height="10.76" transform="translate(-38.15 70.86) rotate(-45)" style="fill:#6e6e6e"/><rect x="61.16" y="227.22" width="10.76" height="10.76" transform="translate(-144.99 115.18) rotate(-45)" style="fill:#979797"/><rect x="15.33" y="270.27" width="10.76" height="10.76" transform="translate(-188.85 95.38) rotate(-45)" style="fill:#757575"/><rect x="61.69" y="137.47" width="10.76" height="10.76" transform="translate(-81.37 89.26) rotate(-45)" style="fill:#757575"/><rect x="16.32" y="54.62" width="10.76" height="10.76" transform="translate(-36.08 32.92) rotate(-45)" style="fill:#757575"/><path d="M46.15,129.05a5.25,5.25,0,1,1,7.4,0A5.23,5.23,0,0,1,46.15,129.05Zm6.91-6.93a4.55,4.55,0,1,0,0,6.43A4.54,4.54,0,0,0,53.06,122.12Z" style="fill:#333"/><path d="M38.38,83.71a5.25,5.25,0,1,1,7.42,0A5.25,5.25,0,0,1,38.38,83.71Zm6.93-6.91a4.55,4.55,0,1,0,0,6.42A4.57,4.57,0,0,0,45.31,76.8Z" style="fill:#333"/><path d="M12.62,34.18a5.24,5.24,0,1,1,7.42,0A5.25,5.25,0,0,1,12.62,34.18Zm6.93-6.92a4.54,4.54,0,1,0,0,6.43A4.56,4.56,0,0,0,19.55,27.26Z" style="fill:#333"/><path d="M34.59,44.53a5.25,5.25,0,1,1,7.42,0A5.27,5.27,0,0,1,34.59,44.53Zm6.93-6.92A4.54,4.54,0,1,0,35.1,44a4.54,4.54,0,0,0,6.42-6.43Z" style="fill:#333"/><path d="M104.22,145.86a5.25,5.25,0,1,1,7.42,0A5.26,5.26,0,0,1,104.22,145.86Zm6.93-6.93a4.54,4.54,0,1,0,0,6.43A4.54,4.54,0,0,0,111.15,138.93Z" style="fill:#333"/><path d="M124.18,228.7a5.25,5.25,0,1,1,7.42,0A5.24,5.24,0,0,1,124.18,228.7Zm6.92-6.92a4.54,4.54,0,1,0,0,6.43A4.52,4.52,0,0,0,131.1,221.78Z" style="fill:#333"/><path d="M99.51,238.6a5.24,5.24,0,1,1,7.42,0A5.21,5.21,0,0,1,99.51,238.6Zm6.91-6.92a4.54,4.54,0,1,0,0,6.43A4.56,4.56,0,0,0,106.42,231.68Z" style="fill:#333"/><path d="M84.74,223.11a5.24,5.24,0,1,1,7.42,0A5.23,5.23,0,0,1,84.74,223.11Zm6.92-6.92a4.55,4.55,0,1,0,0,6.43A4.56,4.56,0,0,0,91.66,216.19Z" style="fill:#333"/><path d="M8.55,165.31a3.72,3.72,0,1,1,5.25,0A3.72,3.72,0,0,1,8.55,165.31Zm4.9-4.92a3.22,3.22,0,1,0,0,4.56A3.21,3.21,0,0,0,13.45,160.39Z" style="fill:#333"/><path d="M2.43,137.56a3.72,3.72,0,1,1,5.26,0A3.69,3.69,0,0,1,2.43,137.56Zm4.91-4.9a3.24,3.24,0,0,0-4.57,0,3.22,3.22,0,0,0,4.57,4.55A3.25,3.25,0,0,0,7.34,132.66Z" style="fill:#333"/><path d="M75.73,169.8a3.71,3.71,0,1,1,5.25,0A3.69,3.69,0,0,1,75.73,169.8Zm4.9-4.9a3.22,3.22,0,1,0,0,4.55A3.21,3.21,0,0,0,80.63,164.9Z" style="fill:#333"/><path d="M-.62,87.67a3.69,3.69,0,0,1,0-5.25,3.74,3.74,0,0,1,5.27,0,3.74,3.74,0,0,1,0,5.25A3.68,3.68,0,0,1-.62,87.67Zm4.9-4.9a3.22,3.22,0,1,0,0,4.55A3.24,3.24,0,0,0,4.28,82.77Z" style="fill:#333"/><path d="M114.57,191.24a5.24,5.24,0,1,1,7.41,0A5.26,5.26,0,0,1,114.57,191.24Zm6.92-6.92a4.55,4.55,0,1,0,0,6.41A4.55,4.55,0,0,0,121.49,184.32Z" style="fill:#333"/><path d="M-4.3,224.15a5.28,5.28,0,0,1,0-7.44,5.28,5.28,0,0,1,7.43,0,5.23,5.23,0,0,1,0,7.4A5.24,5.24,0,0,1-4.3,224.15Zm6.93-6.93a4.56,4.56,0,0,0-6.44,0,4.58,4.58,0,0,0,0,6.45,4.54,4.54,0,0,0,6.42,0A4.53,4.53,0,0,0,2.63,217.22Z" style="fill:#333"/><path d="M25.48,226.54a5.25,5.25,0,1,1,7.42,0A5.24,5.24,0,0,1,25.48,226.54Zm6.92-6.93a4.54,4.54,0,1,0,0,6.43A4.54,4.54,0,0,0,32.4,219.61Z" style="fill:#333"/><path d="M122.24,163.39a5.25,5.25,0,1,1,7.42,0A5.24,5.24,0,0,1,122.24,163.39Zm6.93-6.91a4.54,4.54,0,1,0,0,6.41A4.54,4.54,0,0,0,129.17,156.48Z" style="fill:#333"/><path d="M96.49,267.67a5.24,5.24,0,1,1,7.41-7.42,5.24,5.24,0,0,1-7.41,7.42Zm6.92-6.92a4.54,4.54,0,1,0,0,6.41A4.51,4.51,0,0,0,103.41,260.75Z" style="fill:#333"/><path d="M45.88,217.42a5.24,5.24,0,1,1,7.42,0A5.23,5.23,0,0,1,45.88,217.42Zm6.92-6.91a4.54,4.54,0,1,0,0,6.41A4.54,4.54,0,0,0,52.8,210.51Z" style="fill:#333"/><path d="M36.88,176.36a5.25,5.25,0,1,1,7.42,0A5.22,5.22,0,0,1,36.88,176.36Zm6.91-6.93a4.55,4.55,0,0,0-6.43,0,4.55,4.55,0,1,0,6.43,6.43A4.51,4.51,0,0,0,43.79,169.43Z" style="fill:#333"/><path d="M25.52,134.75a5.24,5.24,0,1,1,7.42,0A5.26,5.26,0,0,1,25.52,134.75Zm6.94-6.91a4.54,4.54,0,1,0,0,6.41A4.54,4.54,0,0,0,32.46,127.84Z" style="fill:#333"/></g><g style="opacity:0.7"><g style="opacity:0.2"><polygon points="233.24 -51.12 176.24 5.91 141.25 -29.09 83.79 28.37 82.93 27.52 141.25 -30.79 176.22 4.19 231.52 -51.12 207.34 -75.31 228.48 -96.46 229.34 -95.61 209.04 -75.31 233.24 -51.12" style="fill:#333"/><path d="M85.67,25.64a3.25,3.25,0,1,1-4.62,0A3.24,3.24,0,0,1,85.67,25.64Z" style="fill:#333"/><path d="M178.26,3a3.25,3.25,0,1,1-4.64,0A3.27,3.27,0,0,1,178.26,3Z" style="fill:#333"/><polygon points="311.87 -47.38 254.84 9.65 219.87 -25.34 162.42 32.11 161.53 31.23 219.84 -27.08 254.83 7.91 310.12 -47.38 285.93 -71.56 307.09 -92.73 307.98 -91.86 287.69 -71.56 311.87 -47.38" style="fill:#333"/><path d="M164.3,29.37A3.27,3.27,0,0,1,159.68,34a3.24,3.24,0,0,1,0-4.6A3.27,3.27,0,0,1,164.3,29.37Z" style="fill:#333"/><path d="M256.87,6.76a3.27,3.27,0,1,1-4.64,0A3.29,3.29,0,0,1,256.87,6.76Z" style="fill:#333"/><polygon points="205.61 151.31 204.76 152.17 184.45 131.87 160.25 156.06 103.26 99.05 138.24 64.07 80.78 6.62 81.64 5.76 139.96 64.07 104.97 99.05 160.25 154.34 184.43 130.14 205.61 151.31" style="fill:#333"/><path d="M83.51,8.48a3.25,3.25,0,1,1-4.6-4.6,3.28,3.28,0,0,1,4.61,0A3.24,3.24,0,0,1,83.51,8.48Z" style="fill:#333"/><path d="M141.12,66.08a3.26,3.26,0,1,1,0-4.62A3.3,3.3,0,0,1,141.12,66.08Z" style="fill:#333"/><path d="M206.77,153.32a2.68,2.68,0,0,1-3.76,0,2.66,2.66,0,1,1,3.76,0Z" style="fill:#333"/><path d="M106.13,101.07a3.28,3.28,0,0,1-4.62,0,3.27,3.27,0,0,1,4.62-4.62A3.28,3.28,0,0,1,106.13,101.07Z" style="fill:#333"/><path d="M162.86,157.81a3.26,3.26,0,1,1-4.6-4.62,3.24,3.24,0,0,1,4.6,0A3.3,3.3,0,0,1,162.86,157.81Z" style="fill:#333"/><path d="M185.87,133a2,2,0,1,1-2.87-2.87,2,2,0,1,1,2.87,2.87Z" style="fill:#333"/><polygon points="358.51 75.3 357.64 76.16 337.34 55.86 313.14 80.06 256.12 23.02 291.13 -11.97 233.7 -69.39 234.56 -70.25 292.86 -11.96 257.87 23.03 313.14 78.32 337.34 54.12 358.51 75.3" style="fill:#333"/><path d="M359.66,77.33a2.62,2.62,0,0,1-3.73,0,2.65,2.65,0,1,1,3.73,0Z" style="fill:#333"/><path d="M259,25.06a3.26,3.26,0,1,1,0-4.62A3.27,3.27,0,0,1,259,25.06Z" style="fill:#333"/><path d="M315.74,81.76a3.26,3.26,0,1,1,0-4.58A3.23,3.23,0,0,1,315.74,81.76Z" style="fill:#333"/><ellipse cx="337.34" cy="55.57" rx="2.03" ry="2.03" style="fill:#333"/><polygon points="479.31 45.78 478.44 46.64 458.14 26.34 433.95 50.54 376.93 -6.5 411.9 -41.47 354.47 -98.92 355.33 -99.8 413.65 -41.47 378.67 -6.5 433.94 48.79 458.13 24.59 479.31 45.78" style="fill:#333"/><path d="M480.45,47.77A2.65,2.65,0,1,1,476.7,44a2.65,2.65,0,1,1,3.75,3.74Z" style="fill:#333"/><path d="M436.54,52.28a3.26,3.26,0,1,1,0-4.62A3.25,3.25,0,0,1,436.54,52.28Z" style="fill:#333"/><path d="M459.57,27.49a2,2,0,0,1-2.88,0,2.07,2.07,0,0,1,0-2.92,2,2,0,0,1,2.88,2.9Z" style="fill:#333"/><polygon points="351.95 40.69 351.57 41.05 342.42 31.9 331.48 42.82 305.72 17.06 321.51 1.27 295.57 -24.68 295.96 -25.09 322.31 1.27 306.52 17.06 331.5 42.04 342.4 31.14 351.95 40.69" style="fill:#333"/><path d="M322.82,2.18a1.43,1.43,0,0,1-2.07,0,1.47,1.47,0,0,1,0-2.07,1.45,1.45,0,0,1,2.07,0A1.4,1.4,0,0,1,322.82,2.18Z" style="fill:#333"/><path d="M352.49,41.6a1.22,1.22,0,0,1-1.7,0,1.21,1.21,0,0,1,1.7-1.71A1.25,1.25,0,0,1,352.49,41.6Z" style="fill:#333"/><path d="M307,18a1.46,1.46,0,1,1,0-2.07A1.47,1.47,0,0,1,307,18Z" style="fill:#333"/><path d="M332.66,43.62a1.48,1.48,0,1,1,0-2.07A1.49,1.49,0,0,1,332.66,43.62Z" style="fill:#333"/><path d="M343.05,32.43a.92.92,0,1,1,0-1.29A.91.91,0,0,1,343.05,32.43Z" style="fill:#333"/><polygon points="409.71 -58.87 410.09 -59.25 419.26 -50.08 430.2 -61.02 455.94 -35.28 440.14 -19.49 466.09 6.46 465.69 6.88 439.36 -19.45 455.16 -35.26 430.18 -60.24 419.26 -49.32 409.71 -58.87" style="fill:#333"/><path d="M464.85,5.63a1.48,1.48,0,0,1,2.07,0,1.46,1.46,0,1,1-2.07,2.07A1.47,1.47,0,0,1,464.85,5.63Z" style="fill:#333"/><polygon points="113.56 28.14 114.17 27.54 128.67 42.04 145.93 24.79 186.58 65.44 161.62 90.41 202.6 131.37 201.96 132 160.38 90.41 185.36 65.43 145.93 26 128.67 43.25 113.56 28.14" style="fill:#333"/><path d="M200.66,130a2.32,2.32,0,0,1,3.28,3.29,2.32,2.32,0,0,1-3.28-3.29Z" style="fill:#333"/><path d="M159.57,89a2.32,2.32,0,1,1,0,3.28A2.33,2.33,0,0,1,159.57,89Z" style="fill:#333"/><path d="M112.75,26.73a1.85,1.85,0,0,1,2.63,0,1.89,1.89,0,0,1,0,2.67,1.92,1.92,0,0,1-2.69,0A1.88,1.88,0,0,1,112.75,26.73Z" style="fill:#333"/><path d="M184.53,64a2.32,2.32,0,1,1,3.28,3.28A2.32,2.32,0,1,1,184.53,64Z" style="fill:#333"/><path d="M144.06,23.53a2.33,2.33,0,1,1,0,3.29A2.33,2.33,0,0,1,144.06,23.53Z" style="fill:#333"/><path d="M127.63,41.21a1.47,1.47,0,0,1,2,0,1.48,1.48,0,0,1,0,2.06,1.47,1.47,0,0,1-2.07,0A1.45,1.45,0,0,1,127.63,41.21Z" style="fill:#333"/><polygon points="311.26 27.79 311.87 28.4 297.4 42.87 314.67 60.14 273.98 100.82 249.02 75.85 208.06 116.81 207.44 116.19 249.03 74.6 273.98 99.56 313.43 60.13 296.17 42.88 311.26 27.79" style="fill:#333"/><path d="M208.85,115a2.33,2.33,0,1,1-3.27,0A2.31,2.31,0,0,1,208.85,115Z" style="fill:#333"/><path d="M250.45,73.8a2.32,2.32,0,1,1-3.28,0A2.31,2.31,0,0,1,250.45,73.8Z" style="fill:#333"/><path d="M312.69,27A1.88,1.88,0,1,1,310,29.61,1.88,1.88,0,0,1,312.69,27Z" style="fill:#333"/><path d="M275.41,98.76a2.32,2.32,0,1,1-3.28,0A2.31,2.31,0,0,1,275.41,98.76Z" style="fill:#333"/><path d="M315.89,58.28a2.33,2.33,0,1,1-3.29,0A2.32,2.32,0,0,1,315.89,58.28Z" style="fill:#333"/><path d="M298.23,41.85a1.43,1.43,0,0,1,0,2,1.41,1.41,0,0,1-2,0,1.43,1.43,0,0,1,0-2A1.45,1.45,0,0,1,298.23,41.85Z" style="fill:#333"/><polygon points="435.23 -14.98 435.85 -14.38 421.36 0.11 438.62 17.37 397.94 58.04 372.97 33.08 332 74.06 331.38 73.45 373 31.85 397.96 56.81 437.38 17.38 420.12 0.13 435.23 -14.98" style="fill:#333"/><path d="M333.36,72.11a2.33,2.33,0,1,1-3.3,3.3,2.33,2.33,0,0,1,3.3-3.3Z" style="fill:#333"/><path d="M374.43,31a2.32,2.32,0,0,1-3.28,3.28A2.32,2.32,0,1,1,374.43,31Z" style="fill:#333"/><path d="M399.38,56a2.31,2.31,0,0,1,0,3.28,2.33,2.33,0,1,1,0-3.28Z" style="fill:#333"/><path d="M439.84,15.52a2.32,2.32,0,1,1-3.28,3.28,2.35,2.35,0,0,1,0-3.3A2.33,2.33,0,0,1,439.84,15.52Z" style="fill:#333"/><path d="M422.19-.91a1.46,1.46,0,0,1,0,2.05,1.48,1.48,0,0,1-2.08,0,1.47,1.47,0,0,1,0-2A1.45,1.45,0,0,1,422.19-.91Z" style="fill:#333"/><polygon points="157.72 59.3 157.99 59.57 151.85 65.73 159.22 73.08 141.85 90.44 131.22 79.8 113.75 97.27 113.5 97.01 131.25 79.26 141.85 89.88 158.65 73.08 151.31 65.73 157.72 59.3" style="fill:#333"/><path d="M114.33,96.41a1,1,0,0,1,0,1.41,1,1,0,0,1-1.4,0,1,1,0,0,1,1.42-1.41Z" style="fill:#333"/><path d="M131.84,78.89a1,1,0,0,1,0,1.42,1,1,0,0,1-1.38,0,1,1,0,0,1,0-1.39A1,1,0,0,1,131.84,78.89Z" style="fill:#333"/><path d="M158.34,59a.79.79,0,0,1,0,1.13A.81.81,0,0,1,157.23,59,.79.79,0,0,1,158.34,59Z" style="fill:#333"/><path d="M142.47,89.53a1,1,0,0,1,0,1.42.94.94,0,0,1-1.36,0,1,1,0,0,1,0-1.37A1,1,0,0,1,142.47,89.53Z" style="fill:#333"/><path d="M159.73,72.29a1,1,0,0,1,0,1.4,1,1,0,0,1-1.42,0,1,1,0,0,1,0-1.41A1,1,0,0,1,159.73,72.29Z" style="fill:#333"/><path d="M152.18,65.32a.58.58,0,0,1,0,.86.63.63,0,0,1-.87-.9A.59.59,0,0,1,152.18,65.32Z" style="fill:#333"/><polygon points="242.99 1.06 243.26 1.34 237.09 7.5 244.45 14.84 227.1 32.2 216.45 21.57 199 39.02 198.73 38.75 216.46 21.01 227.1 31.63 243.89 14.84 236.55 7.5 242.99 1.06" style="fill:#333"/><path d="M199.57,38.17a1,1,0,1,1-1.4,0A1,1,0,0,1,199.57,38.17Z" style="fill:#333"/><path d="M217.08,20.66a1,1,0,0,1-1.41,1.42,1,1,0,0,1,0-1.4A1,1,0,0,1,217.08,20.66Z" style="fill:#333"/><path d="M243.59.7a.82.82,0,0,1,0,1.15.83.83,0,0,1-1.15,0,.81.81,0,0,1,0-1.13A.79.79,0,0,1,243.59.7Z" style="fill:#333"/><path d="M227.7,31.3a1,1,0,0,1,0,1.4,1,1,0,1,1-1.38-1.39A1,1,0,0,1,227.7,31.3Z" style="fill:#333"/><path d="M245,14a1,1,0,1,1-1.4,0A1,1,0,0,1,245,14Z" style="fill:#333"/><path d="M237.43,7.05a.62.62,0,0,1,0,.88.64.64,0,0,1-.88,0,.62.62,0,0,1,.88-.88Z" style="fill:#333"/><polygon points="225.33 91.07 225.03 91.38 218.1 84.45 209.84 92.71 190.36 73.23 202.29 61.3 182.68 41.69 182.99 41.39 202.92 61.3 190.96 73.26 209.82 92.12 218.1 83.84 225.33 91.07" style="fill:#333"/><path d="M183.62,42.33a1.11,1.11,0,1,1,0-1.58A1.13,1.13,0,0,1,183.62,42.33Z" style="fill:#333"/><path d="M203.27,62a1.09,1.09,0,0,1-1.55,0,1.11,1.11,0,1,1,1.55,0Z" style="fill:#333"/><path d="M225.73,91.77a.94.94,0,0,1-1.29,0,.93.93,0,0,1,0-1.31.91.91,0,0,1,1.29,1.29Z" style="fill:#333"/><path d="M191.34,73.91a1.11,1.11,0,1,1,0-1.56A1.1,1.1,0,0,1,191.34,73.91Z" style="fill:#333"/><path d="M210.72,93.3a1.1,1.1,0,0,1-1.56,0,1.12,1.12,0,0,1,0-1.56,1.09,1.09,0,0,1,1.58,0A1.11,1.11,0,0,1,210.72,93.3Z" style="fill:#333"/><path d="M218.58,84.83a.69.69,0,0,1-1,0,.72.72,0,0,1,0-1,.69.69,0,0,1,1,0A.67.67,0,0,1,218.58,84.83Z" style="fill:#333"/><polygon points="320.18 -13.95 320.46 -14.25 327.4 -7.31 335.68 -15.57 355.14 3.9 343.2 15.85 362.81 35.47 362.51 35.75 342.61 15.85 354.55 3.92 335.65 -14.98 327.4 -6.72 320.18 -13.95" style="fill:#333"/><path d="M361.85,34.83a1.13,1.13,0,0,1,1.6,0,1.12,1.12,0,0,1,0,1.58,1.12,1.12,0,0,1-1.58-1.58Z" style="fill:#333"/><path d="M342.21,15.19a1.08,1.08,0,0,1,1.58,0,1.14,1.14,0,0,1,0,1.59,1.08,1.08,0,0,1-1.54,0A1,1,0,0,1,342.21,15.19Z" style="fill:#333"/><path d="M354.17,3.21a1.09,1.09,0,0,1,1.57,0,1.11,1.11,0,0,1,0,1.56,1.11,1.11,0,0,1-1.57-1.58Z" style="fill:#333"/><polygon points="240.31 83.8 239.44 84.67 181.12 26.34 216.1 -8.64 160.82 -63.92 136.64 -39.72 115.47 -60.89 116.33 -61.75 136.63 -41.44 160.82 -65.64 217.83 -8.63 182.86 26.34 240.31 83.8" style="fill:#333"/><path d="M237.54,81.92a3.27,3.27,0,1,1,0,4.63A3.29,3.29,0,0,1,237.54,81.92Z" style="fill:#333"/><path d="M180,24.36a3.25,3.25,0,1,1,4.6,4.58,3.28,3.28,0,0,1-4.62,0A3.24,3.24,0,0,1,180,24.36Z" style="fill:#333"/><polygon points="207.06 117.18 206.63 117.61 179.43 90.42 161.21 90.9 161.19 90.28 179.67 89.81 207.06 117.18" style="fill:#333"/><polygon points="378.14 -6.13 371.02 0.99 344.02 -26.01 344.47 -26.44 371.02 0.13 377.71 -6.56 378.14 -6.13" style="fill:#333"/><polygon points="249.19 75.06 248.54 75.69 225.82 52.98 256.39 22.41 257.04 23.07 227.13 52.99 249.19 75.06" style="fill:#333"/><polygon points="297.52 42.57 296.89 43.2 276.59 22.92 302.41 -2.9 292.38 -12.94 293.02 -13.58 303.72 -2.88 277.9 22.94 297.52 42.57" style="fill:#333"/><polygon points="103.9 98.68 103.45 99.13 96.48 92.14 121.82 66.8 83.16 28.14 83.59 27.71 122.67 66.8 97.34 92.12 103.9 98.68" style="fill:#333"/><polygon points="121.52 -31.66 82.17 7.69 81.72 7.26 120.66 -31.68 103.69 -48.65 116.13 -61.1 116.55 -60.67 104.53 -48.65 121.52 -31.66" style="fill:#333"/><polygon points="146.07 24.8 145.66 25.23 131.28 10.87 113.78 28.37 113.35 27.94 131.28 10.01 146.07 24.8" style="fill:#333"/><polygon points="300.85 100.48 286.92 114.41 273.66 101.15 274.31 100.5 286.94 113.11 299.55 100.5 295.96 96.9 312.82 80.03 313.46 80.66 297.24 96.88 300.85 100.48" style="fill:#333"/></g><polygon points="226.03 -58.44 175.36 -7.75 144.27 -38.84 93.2 12.21 92.44 11.45 144.27 -40.39 175.36 -9.3 224.5 -58.44 203 -79.93 221.8 -98.73 222.56 -97.97 204.54 -79.93 226.03 -58.44" style="fill:#333"/><path d="M94.87,9.77a2.88,2.88,0,1,1-4.11,0A2.9,2.9,0,0,1,94.87,9.77Z" style="fill:#333"/><polygon points="295.88 -55.11 245.21 -4.46 214.12 -35.55 163.07 15.54 162.29 14.76 214.12 -37.08 245.21 -5.99 294.36 -55.11 272.85 -76.62 291.67 -95.42 292.45 -94.64 274.41 -76.59 295.88 -55.11" style="fill:#333"/><path d="M164.74,13.1a2.9,2.9,0,1,1-4.11,0A2.89,2.89,0,0,1,164.74,13.1Z" style="fill:#333"/><polygon points="201.47 121.46 200.7 122.23 182.65 104.17 161.16 125.68 110.49 75.03 141.58 43.94 90.53 -7.13 91.29 -7.9 143.12 43.94 112.03 75.03 161.14 124.14 182.65 102.65 201.47 121.46" style="fill:#333"/><path d="M144.14,45.72a2.9,2.9,0,1,1,0-4.09A2.9,2.9,0,0,1,144.14,45.72Z" style="fill:#333"/><path d="M202.49,123.25a2.35,2.35,0,1,1,0-3.33A2.38,2.38,0,0,1,202.49,123.25Z" style="fill:#333"/><path d="M113.05,76.81a2.9,2.9,0,1,1,0-4.09A2.92,2.92,0,0,1,113.05,76.81Z" style="fill:#333"/><path d="M163.47,127.23a2.9,2.9,0,1,1,0-4.1A2.89,2.89,0,0,1,163.47,127.23Z" style="fill:#333"/><path d="M183.91,105.21a1.8,1.8,0,1,1,0-2.55A1.81,1.81,0,0,1,183.91,105.21Z" style="fill:#333"/><polygon points="337.34 53.9 336.57 54.67 318.54 36.63 297.05 58.14 246.36 7.46 277.47 -23.64 226.43 -74.68 227.19 -75.44 279 -23.64 247.89 7.46 297.05 56.61 318.54 35.1 337.34 53.9" style="fill:#333"/><circle cx="336.71" cy="54.04" r="2.35" style="fill:#333"/><path d="M248.92,9.26a2.9,2.9,0,1,1,0-4.1A2.91,2.91,0,0,1,248.92,9.26Z" style="fill:#333"/><path d="M299.34,59.66a2.9,2.9,0,1,1,0-4.09A2.92,2.92,0,0,1,299.34,59.66Z" style="fill:#333"/><path d="M319.81,37.66a1.81,1.81,0,0,1-2.56-2.56,1.81,1.81,0,0,1,2.56,2.56Z" style="fill:#333"/><polygon points="444.71 27.68 443.93 28.45 425.88 10.38 404.39 31.89 353.74 -18.77 384.81 -49.86 333.76 -100.91 334.52 -101.69 386.34 -49.86 355.26 -18.77 404.39 30.36 425.88 8.85 444.71 27.68" style="fill:#333"/><path d="M445.72,29.45a2.36,2.36,0,1,1,0-3.33A2.37,2.37,0,0,1,445.72,29.45Z" style="fill:#333"/><path d="M406.7,33.45a2.93,2.93,0,0,1-4.09,0,2.9,2.9,0,1,1,4.09,0Z" style="fill:#333"/><path d="M427.15,11.41a1.8,1.8,0,1,1-2.54-2.54,1.8,1.8,0,1,1,2.54,2.54Z" style="fill:#333"/><polygon points="331.53 23.14 331.19 23.48 323.04 15.35 313.33 25.06 290.42 2.16 304.47 -11.88 281.41 -34.93 281.78 -35.29 305.18 -11.88 291.14 2.16 313.33 24.37 323.04 14.66 331.53 23.14" style="fill:#333"/><path d="M332,23.94a1.05,1.05,0,0,1-1.5,0,1.07,1.07,0,0,1,0-1.5,1.11,1.11,0,0,1,1.52,0A1.09,1.09,0,0,1,332,23.94Z" style="fill:#333"/><path d="M291.59,3a1.31,1.31,0,1,1,0-1.85A1.3,1.3,0,0,1,291.59,3Z" style="fill:#333"/><path d="M314.38,25.76a1.33,1.33,0,0,1-1.88-1.87,1.33,1.33,0,0,1,1.88,1.87Z" style="fill:#333"/><path d="M323.62,15.81a.81.81,0,0,1-1.15,0,.83.83,0,0,1,0-1.17.82.82,0,0,1,1.15,0A.83.83,0,0,1,323.62,15.81Z" style="fill:#333"/><polygon points="119.66 12 120.2 11.46 133.08 24.34 148.41 9.01 184.54 45.15 162.37 67.32 198.79 103.74 198.24 104.32 161.25 67.34 183.46 45.15 148.41 10.09 133.08 25.42 119.66 12" style="fill:#333"/><path d="M197.06,102.55a2.07,2.07,0,0,1,2.93,2.93,2.07,2.07,0,0,1-2.93-2.93Z" style="fill:#333"/><path d="M160.54,66A2.07,2.07,0,0,1,163.47,69,2.07,2.07,0,1,1,160.54,66Z" style="fill:#333"/><path d="M118.94,10.74a1.65,1.65,0,0,1,2.34,0,1.68,1.68,0,1,1-2.34,0Z" style="fill:#333"/><circle cx="184.18" cy="45.32" r="2.07" style="fill:#333"/><path d="M146.77,7.91a2,2,0,0,1,2.91,0,2.07,2.07,0,0,1,0,2.93,2,2,0,0,1-2.91,0A2.07,2.07,0,0,1,146.77,7.91Z" style="fill:#333"/><path d="M132.17,23.61a1.26,1.26,0,0,1,1.8,0,1.31,1.31,0,0,1,0,1.82,1.29,1.29,0,1,1-1.82-1.83Z" style="fill:#333"/><polygon points="295.36 11.68 295.9 12.22 283.04 25.09 298.38 40.43 262.23 76.6 240.04 54.4 203.63 90.8 203.09 90.26 240.06 53.3 262.23 75.47 297.27 40.43 281.94 25.1 295.36 11.68" style="fill:#333"/><path d="M204.35,89.18a2.07,2.07,0,1,1-2.93,0A2.09,2.09,0,0,1,204.35,89.18Z" style="fill:#333"/><path d="M241.31,52.58a2.06,2.06,0,0,1-2.93,2.91,2.06,2.06,0,1,1,2.93-2.91Z" style="fill:#333"/><path d="M296.63,11a1.67,1.67,0,1,1-2.35,2.36A1.67,1.67,0,1,1,296.63,11Z" style="fill:#333"/><path d="M263.49,74.76a2,2,0,0,1,0,2.91,2.06,2.06,0,1,1,0-2.91Z" style="fill:#333"/><path d="M299.47,38.78a2.07,2.07,0,0,1,0,2.93,2.07,2.07,0,1,1-2.93-2.93A2.08,2.08,0,0,1,299.47,38.78Z" style="fill:#333"/><path d="M283.77,24.18a1.29,1.29,0,1,1-1.81,0A1.3,1.3,0,0,1,283.77,24.18Z" style="fill:#333"/><polygon points="405.54 -26.32 406.08 -25.79 393.21 -12.91 408.55 2.42 372.39 38.57 350.22 16.4 313.81 52.8 313.27 52.28 350.23 15.3 372.39 37.47 407.45 2.43 392.1 -12.9 405.54 -26.32" style="fill:#333"/><path d="M315,51.08a2.07,2.07,0,1,1-2.93,0A2.06,2.06,0,0,1,315,51.08Z" style="fill:#333"/><path d="M351.51,14.56a2.11,2.11,0,0,1,0,2.93,2.07,2.07,0,1,1-2.93-2.93A2.11,2.11,0,0,1,351.51,14.56Z" style="fill:#333"/><path d="M373.67,36.74a2.07,2.07,0,1,1-2.93,2.93,2.07,2.07,0,0,1,2.93-2.93Z" style="fill:#333"/><path d="M409.64.78a2.06,2.06,0,1,1-2.93,0A2.06,2.06,0,0,1,409.64.78Z" style="fill:#333"/><polygon points="158.92 39.7 159.15 39.94 153.68 45.4 160.22 51.94 144.81 67.37 135.35 57.91 119.83 73.42 119.59 73.18 135.35 57.42 144.81 66.88 159.73 51.94 153.2 45.42 158.92 39.7" style="fill:#333"/><path d="M120.34,72.67a.89.89,0,1,1-1.24,0A.86.86,0,0,1,120.34,72.67Z" style="fill:#333"/><path d="M135.9,57.12a.88.88,0,0,1,0,1.24.89.89,0,0,1-1.25,0,.87.87,0,0,1,1.25-1.22Z" style="fill:#333"/><path d="M159.46,39.38a.73.73,0,0,1,0,1,.73.73,0,0,1-1,0,.7.7,0,0,1,1-1Z" style="fill:#333"/><path d="M145.35,66.56a.88.88,0,0,1,0,1.25.87.87,0,0,1-1.24,0,.88.88,0,0,1,1.24-1.24Z" style="fill:#333"/><path d="M160.68,51.23a.89.89,0,1,1-1.24,0A.88.88,0,0,1,160.68,51.23Z" style="fill:#333"/><path d="M154,45a.56.56,0,0,1,0,.77.54.54,0,0,1-.77,0,.55.55,0,0,1,0-.8A.57.57,0,0,1,154,45Z" style="fill:#333"/><polygon points="234.69 -12.07 234.91 -11.85 229.44 -6.37 235.98 0.19 220.55 15.62 211.1 6.16 195.59 21.66 195.35 21.41 211.1 5.65 220.55 15.11 235.49 0.19 228.96 -6.34 234.69 -12.07" style="fill:#333"/><path d="M196.09,20.9a.89.89,0,1,1-1.24,0A.9.9,0,0,1,196.09,20.9Z" style="fill:#333"/><path d="M211.64,5.35a.87.87,0,0,1,0,1.26.91.91,0,0,1-1.26,0,.89.89,0,0,1,0-1.25A.87.87,0,0,1,211.64,5.35Z" style="fill:#333"/><path d="M221.1,14.8a.88.88,0,0,1,0,1.26.9.9,0,0,1-1.26,0,.89.89,0,0,1,1.26-1.26Z" style="fill:#333"/><path d="M236.43-.53a.88.88,0,0,1,0,1.26.9.9,0,0,1-1.26,0,.87.87,0,0,1,0-1.24A.87.87,0,0,1,236.43-.53Z" style="fill:#333"/><polygon points="218.98 67.93 218.71 68.2 212.56 62.05 205.22 69.39 187.92 52.09 198.52 41.47 181.09 24.05 181.36 23.78 199.06 41.47 188.43 52.1 205.21 68.88 212.56 61.51 218.98 67.93" style="fill:#333"/><path d="M181.93,24.61a1,1,0,0,1-1.4,0,1,1,0,0,1,1.4-1.39A1,1,0,0,1,181.93,24.61Z" style="fill:#333"/><path d="M199.4,42.09a1,1,0,1,1,0-1.4A1,1,0,0,1,199.4,42.09Z" style="fill:#333"/><path d="M219.34,68.56a.82.82,0,0,1-1.16,0,.8.8,0,0,1,0-1.14.79.79,0,0,1,1.13,0A.81.81,0,0,1,219.34,68.56Z" style="fill:#333"/><path d="M188.8,52.69a1,1,0,0,1-1.41,0,1,1,0,0,1,0-1.4,1,1,0,0,1,1.41,0A1,1,0,0,1,188.8,52.69Z" style="fill:#333"/><path d="M206,69.92a1,1,0,0,1-1.4,0,1,1,0,0,1,0-1.4,1,1,0,0,1,1.4,0A1,1,0,0,1,206,69.92Z" style="fill:#333"/><path d="M213,62.39a.63.63,0,0,1-.87,0,.67.67,0,0,1,0-.91.61.61,0,0,1,.87,0A.58.58,0,0,1,213,62.39Z" style="fill:#333"/><polygon points="303.27 -25.41 303.54 -25.68 309.7 -19.52 317.06 -26.86 334.38 -9.54 323.74 1.08 341.16 18.51 340.9 18.77 323.2 1.08 333.84 -9.54 317.06 -26.32 309.7 -18.98 303.27 -25.41" style="fill:#333"/><path d="M340.33,18a1,1,0,0,1,1.4,0,1,1,0,0,1-1.4,1.4A1,1,0,0,1,340.33,18Z" style="fill:#333"/><path d="M322.85.48a1,1,0,0,1,1.42,0,1,1,0,0,1,0,1.42,1,1,0,0,1-1.37,0A1,1,0,0,1,322.85.48Z" style="fill:#333"/><polygon points="232.29 61.46 231.52 62.23 179.71 10.41 210.8 -20.68 161.67 -69.81 140.16 -48.3 121.35 -67.13 122.11 -67.9 140.16 -49.84 161.67 -71.34 212.32 -20.68 181.23 10.41 232.29 61.46" style="fill:#333"/><path d="M229.85,59.81a2.9,2.9,0,1,1,0,4.09A2.92,2.92,0,0,1,229.85,59.81Z" style="fill:#333"/><path d="M178.69,8.63a2.88,2.88,0,1,1,0,4.07A2.87,2.87,0,0,1,178.69,8.63Z" style="fill:#333"/><polygon points="202.76 91.14 202.38 91.52 178.19 67.34 162 67.77 162 67.23 178.41 66.8 202.76 91.14" style="fill:#333"/><polygon points="240.2 53.7 239.63 54.27 219.44 34.07 246.58 6.92 247.17 7.5 220.59 34.1 240.2 53.7" style="fill:#333"/><polygon points="283.13 24.8 282.56 25.37 264.56 7.37 287.51 -15.59 278.6 -24.5 279.17 -25.07 288.66 -15.57 265.72 7.38 283.13 24.8" style="fill:#333"/><polygon points="111.06 74.69 110.68 75.07 104.49 68.88 127 46.36 92.64 12 93.03 11.62 127.76 46.36 105.25 68.88 111.06 74.69" style="fill:#333"/><polygon points="148.57 9.04 148.19 9.42 135.42 -3.34 119.86 12.21 119.48 11.83 135.42 -4.11 148.57 9.04" style="fill:#333"/><polygon points="286.09 76.28 273.71 88.67 261.94 76.89 262.53 76.3 273.74 87.52 284.95 76.3 281.75 73.1 296.74 58.12 297.3 58.68 282.89 73.08 286.09 76.28" style="fill:#333"/><rect x="430.15" y="13.39" width="10.76" height="10.76" transform="translate(114.3 313.47) rotate(-45)" style="fill:#6e6e6e"/><rect x="198.17" y="27.79" width="10.76" height="10.76" transform="translate(36.16 153.65) rotate(-45)" style="fill:#6e6e6e"/><polygon points="198.04 112.68 190.42 105.07 198.04 97.46 205.65 105.07 198.04 112.68" style="fill:#979797"/><rect x="366.1" y="-5.03" width="10.76" height="10.76" transform="translate(108.56 262.78) rotate(-45)" style="fill:#979797"/><rect x="320.27" y="38.01" width="10.76" height="10.76" transform="translate(64.7 242.98) rotate(-45)" style="fill:#757575"/><rect x="262.41" y="22.87" width="10.76" height="10.76" transform="translate(58.45 197.63) rotate(-45)" style="fill:#7e7e7e"/><path d="M404.45,6.35a5.25,5.25,0,1,1,7.42,0A5.23,5.23,0,0,1,404.45,6.35Zm6.91-6.92A4.54,4.54,0,1,0,405,5.86a4.54,4.54,0,0,0,6.41-6.43Z" style="fill:#333"/><path d="M280.65,48a5.24,5.24,0,1,1,7.42,0A5.26,5.26,0,0,1,280.65,48ZM287.57,41a4.55,4.55,0,1,0,0,6.41A4.56,4.56,0,0,0,287.57,41Z" style="fill:#333"/><path d="M144,13.2a5.25,5.25,0,1,1,7.42,0A5.27,5.27,0,0,1,144,13.2Zm6.93-6.93a4.55,4.55,0,1,0,0,6.42A4.56,4.56,0,0,0,150.88,6.27Z" style="fill:#333"/><path d="M179.78,49.05a5.31,5.31,0,0,1,0-7.44,5.25,5.25,0,1,1,0,7.44Zm6.93-6.93a4.54,4.54,0,1,0,0,6.42A4.55,4.55,0,0,0,186.71,42.12Z" style="fill:#333"/><path d="M247.87,69.93a5.25,5.25,0,1,1,7.42,0A5.26,5.26,0,0,1,247.87,69.93ZM254.8,63a4.55,4.55,0,1,0,0,6.41A4.54,4.54,0,0,0,254.8,63Z" style="fill:#333"/><path d="M158.29,71.08a5.25,5.25,0,1,1,7.42,0A5.27,5.27,0,0,1,158.29,71.08Zm6.93-6.93a4.55,4.55,0,1,0,0,6.42A4.58,4.58,0,0,0,165.22,64.15Z" style="fill:#333"/><path d="M199.54,94a5.25,5.25,0,1,1,7.42,0A5.27,5.27,0,0,1,199.54,94ZM206.45,87a4.54,4.54,0,1,0,0,6.41A4.54,4.54,0,0,0,206.45,87Z" style="fill:#333"/><path d="M178.64,108a5.25,5.25,0,1,1,7.42,0A5.23,5.23,0,0,1,178.64,108Zm6.92-6.91a4.54,4.54,0,1,0,0,6.41A4.54,4.54,0,0,0,185.56,101.09Z" style="fill:#333"/><path d="M138.54,47.14a5.25,5.25,0,1,1,7.42,0A5.27,5.27,0,0,1,138.54,47.14Zm6.92-6.93a4.55,4.55,0,1,0,0,6.42A4.56,4.56,0,0,0,145.46,40.21Z" style="fill:#333"/><path d="M89.06,15.42a5.24,5.24,0,1,1,7.42,0A5.23,5.23,0,0,1,89.06,15.42ZM96,8.5a4.55,4.55,0,1,0,0,6.42A4.56,4.56,0,0,0,96,8.5Z" style="fill:#333"/><path d="M107.08,78.59a5.25,5.25,0,1,1,7.42,0A5.26,5.26,0,0,1,107.08,78.59ZM114,71.67a4.55,4.55,0,1,0,0,6.41A4.55,4.55,0,0,0,114,71.67Z" style="fill:#333"/><path d="M157.75,128.79a5.25,5.25,0,1,1,7.42,0A5.27,5.27,0,0,1,157.75,128.79Zm6.93-6.93a4.55,4.55,0,1,0,0,6.42A4.55,4.55,0,0,0,164.68,121.86Z" style="fill:#333"/><path d="M197.38,125.65a5.24,5.24,0,1,1,7.41,0A5.25,5.25,0,0,1,197.38,125.65Zm6.92-6.92a4.55,4.55,0,1,0,0,6.41A4.56,4.56,0,0,0,204.3,118.73Z" style="fill:#333"/><path d="M401.43,35.42A5.25,5.25,0,1,1,408.85,28a5.25,5.25,0,0,1-7.42,7.42Zm6.92-6.93a4.54,4.54,0,1,0,0,6.42A4.52,4.52,0,0,0,408.35,28.49Z" style="fill:#333"/></g></svg>