<svg id="965d2331-68f1-438d-a82a-3429fc901d7a" data-name="Layer 1" xmlns="http://www.w3.org/2000/svg" viewBox="0 0 1009.13 326.69"><title>ba7</title><g style="opacity:0.15"><path d="M169.55-34a1,1,0,0,1-.23.84L133.73,8.55a1,1,0,0,1-1,.34l-53.93-10a1,1,0,0,1-.78-.67L59.71-53.58a1,1,0,0,1,.19-1L95.48-96.34a1,1,0,0,1,1-.34l53.92,10a1,1,0,0,1,.79.67l18.34,51.77A1.16,1.16,0,0,1,169.55-34Zm-37,40.78,34.81-40.83L149.42-84.72,96.67-94.54,61.86-53.71,79.8-3.07Z" style="fill:#353535"/><path d="M171.84-28.43a1,1,0,0,1-.29.91L130,13.41a1,1,0,0,1-1,.26L72.75-2A1.07,1.07,0,0,1,72-2.7L57.39-59.27a1,1,0,0,1,.27-1L99.25-101.2a1,1,0,0,1,1-.26l56.22,15.64a1,1,0,0,1,.72.73l14.64,56.57S171.84-28.46,171.84-28.43Zm-42.9,39.94,40.73-40.09L155.34-84,100.27-99.3,59.54-59.21,73.88-3.8Z" style="fill:#353535"/><path d="M163.49-83.59l10.27,61.31a1,1,0,0,1-.37,1L125.53,18.21a1,1,0,0,1-1,.17L66.38-3.4a1,1,0,0,1-.66-.8L55.46-65.5a1,1,0,0,1,.36-1L103.69-106a1,1,0,0,1,1-.18l58.12,21.78A1,1,0,0,1,163.49-83.59Zm8.13,61.06L161.55-82.66l-57-21.36L57.6-65.26,67.66-5.13l57,21.36Z" style="fill:#353535"/><path d="M170-81.51s0,.05,0,.09l5.19,65.92a1,1,0,0,1-.44.93L120.39,22.88a1,1,0,0,1-1,.08L59.77-5.51a1,1,0,0,1-.58-.85L54-72.28a1,1,0,0,1,.45-.94l54.39-37.45a1,1,0,0,1,1-.08l59.58,28.47A1.06,1.06,0,0,1,170-81.51Zm3.09,65.57L168-80.67l-58.5-27.95L56.1-71.85,61.2-7.12l58.51,28Z" style="fill:#353535"/><path d="M176.74-78.71a1.1,1.1,0,0,1,0,.18l-.61,70.34a1.05,1.05,0,0,1-.53.89L114.51,27.35a1,1,0,0,1-1,0L53-8.36a1,1,0,0,1-.51-.9l.61-70.34a1,1,0,0,1,.52-.89l61.12-34.65a1,1,0,0,1,1,0l60.51,35.7A1,1,0,0,1,176.74-78.71ZM174.08-8.8l.6-69.15L115.21-113,55.13-79l-.6,69.15L114,25.25Z" style="fill:#353535"/><path d="M183.61-75.11a1.17,1.17,0,0,1,0,.27L176.45-.35a1,1,0,0,1-.6.84l-68,31.05a1.05,1.05,0,0,1-1-.1L46-12a1,1,0,0,1-.43-.94l7.16-74.49a1.07,1.07,0,0,1,.6-.85l68-31a1.06,1.06,0,0,1,1,.1l60.81,43.44A1.07,1.07,0,0,1,183.61-75.11Zm-9.16,74,7.05-73.3L121.66-117.2,54.77-86.64l-7.06,73.3,59.84,42.75Z" style="fill:#353535"/><path d="M190.55-70.67a1.09,1.09,0,0,1,0,.36L176.05,8a1,1,0,0,1-.68.79l-74.92,26.6a1,1,0,0,1-1-.19L39-16.5a1,1,0,0,1-.34-1l14.5-78.28a1.06,1.06,0,0,1,.67-.79l74.92-26.6a1,1,0,0,1,1,.19L190.2-71.28A1,1,0,0,1,190.55-70.67ZM174.12,7,188.4-70.1,128.89-121,55.1-94.8,40.81-17.69l59.51,50.9Z" style="fill:#353535"/><path d="M197.5-65.31a1.16,1.16,0,0,1,0,.45L174.85,16.75a1,1,0,0,1-.74.73L92.24,38.72a1,1,0,0,1-1-.27L32-21.92a1,1,0,0,1-.26-1l22.63-81.62a1,1,0,0,1,.74-.72L137-126.51a1,1,0,0,1,1,.28l59.24,60.36A1,1,0,0,1,197.5-65.31ZM173,15.62l22.31-80.46-58.4-59.52-80.72,21L33.89-22.95,92.3,36.57Z" style="fill:#353535"/><path d="M204.36-59a1.06,1.06,0,0,1-.05.53l-31.55,84.4a1,1,0,0,1-.8.66L83.23,41.52a1,1,0,0,1-1-.36L25.08-28.31a1,1,0,0,1-.17-1l31.54-84.4a1,1,0,0,1,.8-.65L146-129.31a1,1,0,0,1,1,.36l57.19,69.47A1,1,0,0,1,204.36-59ZM171,24.65l31.13-83.27-56.42-68.55L58.18-112.44,27.05-29.17,83.48,39.38Z" style="fill:#353535"/><path d="M211.05-51.66A1,1,0,0,1,211-51L169.7,35.48a1,1,0,0,1-.85.58L73.43,43.65a1,1,0,0,1-.93-.44L18.33-35.72a1,1,0,0,1-.08-1l41.26-86.52a1,1,0,0,1,.85-.58l95.42-7.59a1,1,0,0,1,.94.44l54.16,78.93A1.12,1.12,0,0,1,211.05-51.66Zm-43,85.71,40.75-85.44-53.49-77.94-94.23,7.49L20.38-36.4,73.86,41.54Z" style="fill:#353535"/><path d="M217.46-43.26a1.05,1.05,0,0,1-.13.69L165.58,45.3a1.06,1.06,0,0,1-.9.51L62.85,45a1,1,0,0,1-.89-.52L11.88-44.19a1,1,0,0,1,0-1l51.74-87.87a1.06,1.06,0,0,1,.9-.51l101.83.81a1,1,0,0,1,.9.52L217.34-43.6A1.06,1.06,0,0,1,217.46-43.26Zm-53.36,87L215.24-43.1l-49.49-87.63-100.64-.79L14-44.69l49.5,87.63Z" style="fill:#353535"/><path d="M223.47-33.77a1,1,0,0,1-.18.77l-63,88.32a1.07,1.07,0,0,1-.95.43L51.52,45.45a1,1,0,0,1-.84-.6L5.82-53.76a1.06,1.06,0,0,1,.1-1l63-88.31a1,1,0,0,1,.94-.43l107.84,10.29a1,1,0,0,1,.85.6L223.39-34A.79.79,0,0,1,223.47-33.77ZM159,53.63l62.29-87.35L176.9-131.24,70.25-141.42,8-54.07,52.31,43.45Z" style="fill:#353535"/><path d="M229-23.16a1,1,0,0,1-.23.84L153.79,65.44a1.06,1.06,0,0,1-1,.35L39.48,44.88a1,1,0,0,1-.79-.67L.3-64.46a1,1,0,0,1,.19-1l74.94-87.76a1.05,1.05,0,0,1,1-.35l113.34,20.91a1,1,0,0,1,.78.67l38.4,108.67A.85.85,0,0,1,229-23.16ZM152.6,63.64l74.17-86.85-38-107.53L76.61-151.43,2.45-64.58,40.44,43Z" style="fill:#353535"/><path d="M233.8-11.4a1,1,0,0,1-.29.91L146,75.56a1,1,0,0,1-1,.26L26.77,43.16a1,1,0,0,1-.72-.74L-4.57-76.3a1.06,1.06,0,0,1,.28-1l87.56-86a1,1,0,0,1,1-.26l118.17,32.66a1,1,0,0,1,.73.74L233.78-11.49A.29.29,0,0,1,233.8-11.4ZM144.92,73.67l86.71-85.22L201.31-129.11l-117-32.35L-2.41-76.24,27.9,41.32Z" style="fill:#353535"/><path d="M216.4-127.15h0L237.84,1.51a1,1,0,0,1-.37,1L136.7,85.56a1,1,0,0,1-1,.17L13.47,40.16a1,1,0,0,1-.65-.8h0L-8.62-89.3a1.06,1.06,0,0,1,.36-1L92.51-173.35a1,1,0,0,1,1-.17l122.21,45.57A1,1,0,0,1,216.4-127.15ZM235.7,1.26,214.46-126.22,93.37-171.37-6.48-89,14.76,38.43,135.85,83.58Z" style="fill:#353535"/><path d="M230.13-122.77s0,.06,0,.09L240.93,15.66a1,1,0,0,1-.45.93L126,95.29a1.05,1.05,0,0,1-1,.09L-.34,35.74a1,1,0,0,1-.58-.85L-11.71-103.44a1,1,0,0,1,.44-.94l114.5-78.7a1,1,0,0,1,1-.08l125.29,59.63A1,1,0,0,1,230.13-122.77Zm8.69,138-10.7-137.14L103.91-181-9.6-103,1.09,34.13,125.3,93.25Z" style="fill:#353535"/><path d="M244.27-116.86a1.09,1.09,0,0,1,0,.18L242.89,30.93a1,1,0,0,1-.52.89L113.72,104.61a1,1,0,0,1-1,0L-14.56,29.79a1,1,0,0,1-.51-.9l1.39-147.61a1.07,1.07,0,0,1,.53-.89L115.49-192.4a1,1,0,0,1,1,0l127.25,74.81A1,1,0,0,1,244.27-116.86ZM240.83,30.31l1.38-146.41L116-190.31-11.61-118.1-13,28.31l126.22,74.21Z" style="fill:#353535"/><path d="M258.71-109.28a1.22,1.22,0,0,1,0,.27L243.56,47.29a1,1,0,0,1-.6.84L99.88,113.35a1.05,1.05,0,0,1-1-.1L-29.07,22.17a1,1,0,0,1-.43-1l15.16-156.3a1,1,0,0,1,.6-.84l143.08-65.22a1.05,1.05,0,0,1,1,.1L258.29-110A1.07,1.07,0,0,1,258.71-109.28ZM241.56,46.49l15-155.11L129.65-199l-142,64.73-15,155.11,127,90.39Z" style="fill:#353535"/><path d="M273.31-99.91a1.09,1.09,0,0,1,0,.36L242.75,64.68a1,1,0,0,1-.67.79L84.39,121.32a1,1,0,0,1-1-.19L-43.75,12.74a1,1,0,0,1-.34-1l30.56-164.24a1.06,1.06,0,0,1,.67-.79l157.68-55.85a1,1,0,0,1,1,.19L273-100.53A1,1,0,0,1,273.31-99.91ZM240.82,63.72,271.16-99.35,145-207-11.61-151.51-41.95,11.56,84.27,119.17Z" style="fill:#353535"/><path d="M287.91-88.63a.94.94,0,0,1,0,.44L240.28,83a1,1,0,0,1-.74.72L67.25,128.33a1,1,0,0,1-1-.28L-58.42,1.4a1,1,0,0,1-.26-1l47.62-171.22a1,1,0,0,1,.74-.73L162-216.12a1,1,0,0,1,1,.28L287.63-89.19A1,1,0,0,1,287.91-88.63ZM238.44,81.91l47.3-170.07L161.9-214-9.23-169.7-56.52.38,67.31,126.18Z" style="fill:#353535"/><path d="M302.35-75.32a1,1,0,0,1-.06.53L236,102.25a1,1,0,0,1-.8.66L48.44,134.17a1.06,1.06,0,0,1-1-.36L-72.91-12a1,1,0,0,1-.17-1L-6.74-190a1,1,0,0,1,.79-.66L180.77-222a1,1,0,0,1,1,.36L302.12-75.81A1,1,0,0,1,302.35-75.32ZM234.23,101,300.15-75,180.53-219.82-5-188.76-70.93-12.83,48.69,132Z" style="fill:#353535"/><path d="M316.41-59.88a1.11,1.11,0,0,1-.09.62L229.6,122.21a1,1,0,0,1-.85.59L28,138.62a1,1,0,0,1-.93-.45L-87-27.49a1.06,1.06,0,0,1-.09-1L-.39-210a1,1,0,0,1,.85-.59L201.24-226.4a1,1,0,0,1,.94.44L316.24-60.3A1.1,1.1,0,0,1,316.41-59.88ZM228,120.78,314.2-59.62,200.81-224.29,1.22-208.57-85-28.17,28.4,136.51Z" style="fill:#353535"/><path d="M329.88-42.21a1.08,1.08,0,0,1-.13.7L221,142.77a1,1,0,0,1-.9.51L5.87,141.43A1.05,1.05,0,0,1,5,140.9L-100.54-45.24a1,1,0,0,1,0-1L8.2-230.56a1,1,0,0,1,.9-.51l214.24,1.86a1,1,0,0,1,.9.52L329.76-42.55A1.06,1.06,0,0,1,329.88-42.21ZM219.54,141.21,327.66-42,222.73-227.15,9.67-229-98.45-45.74,6.49,139.36Z" style="fill:#353535"/><path d="M342.51-22.23a1,1,0,0,1-.18.77L210,163.76a1,1,0,0,1-.94.43L-17.81,142.36a1.07,1.07,0,0,1-.84-.6l-94.57-207a1.08,1.08,0,0,1,.1-1L19.2-251.55a1,1,0,0,1,.94-.43L247-230.15a1,1,0,0,1,.84.6L342.43-22.49A.79.79,0,0,1,342.51-22.23ZM208.68,162.07,340.3-22.18l-94.07-206L20.53-249.86-111.09-65.61l94.08,206Z" style="fill:#353535"/><path d="M354.05.11a1,1,0,0,1-.23.84L196.42,185a1,1,0,0,1-1,.34L-43,141.15a1.06,1.06,0,0,1-.79-.67l-81-228.2a1,1,0,0,1,.19-1l157.4-184a1,1,0,0,1,1-.34L272.2-228.94a1,1,0,0,1,.78.67L354-.07A1.16,1.16,0,0,1,354.05.11ZM195.23,183.18,351.86.06,271.23-227,34-271-122.64-87.85-42,139.22Z" style="fill:#353535"/><path d="M364.21,24.85a1,1,0,0,1-.3.91L180,206.2a1,1,0,0,1-1,.26L-69.54,137.54a1,1,0,0,1-.72-.74L-135-112.55a1.06,1.06,0,0,1,.28-1L49.17-294a1,1,0,0,1,1-.26l248.58,68.92a1,1,0,0,1,.73.74L364.19,24.77S364.2,24.82,364.21,24.85ZM179,204.3,362,24.71l-64.41-248.2L50.2-292.09l-183,179.6L-68.41,135.7Z" style="fill:#353535"/><path d="M372.68,52a1,1,0,0,1-.36,1L160.73,227.17a1.06,1.06,0,0,1-1,.17l-257-96.09a1.06,1.06,0,0,1-.66-.8l-45.45-270.26h0a1,1,0,0,1,.37-1L68.49-314.95a1,1,0,0,1,1-.17L326.56-219a1,1,0,0,1,.66.8L372.68,52ZM159.87,225.19,370.54,51.78,325.28-217.31,69.34-313-141.33-139.56l45.27,269.08Z" style="fill:#353535"/><path d="M356-209s0,.06,0,.09L379.15,81.69a1,1,0,0,1-.45.93l-240.39,165a1,1,0,0,1-1,.08L-126.23,122a1,1,0,0,1-.58-.86l-23.12-290.63a1,1,0,0,1,.44-.93l240.39-165a1,1,0,0,1,1-.08L355.44-209.79A1,1,0,0,1,356-209ZM377,81.26,354-208.18,91.58-333.34-147.82-169l23,289.45L137.63,245.55Z" style="fill:#353535"/><path d="M385.69-196.61a1.09,1.09,0,0,1,0,.18l-2.45,310.15a1,1,0,0,1-.52.9L112.67,267.16a1,1,0,0,1-1,0L-156,109.54a1,1,0,0,1-.5-.9L-154-201.51a1,1,0,0,1,.53-.9L116.54-354.95a1.07,1.07,0,0,1,1,0L385.19-197.33A1.05,1.05,0,0,1,385.69-196.61Zm-4.5,309.72,2.44-309L117-352.85l-269,152-2.44,309,266.58,157Z" style="fill:#353535"/><path d="M416-180.68a.75.75,0,0,1,0,.26L384.63,148.05a1,1,0,0,1-.6.84L83.69,285.51a1,1,0,0,1-1-.1l-269-191.84a1.06,1.06,0,0,1-.43-.94l31.35-328.47a1,1,0,0,1,.6-.84L145.53-373.3a1,1,0,0,1,1,.1l269,191.84A1,1,0,0,1,416-180.68ZM382.63,147.26,413.87-180l-268-191.15L-153.42-235-184.65,92.23l268,191.15Z" style="fill:#353535"/><path d="M446.6-161a1,1,0,0,1,0,.35l-63.68,345.2a1,1,0,0,1-.67.79l-331,116.94a1,1,0,0,1-1-.19L-217,73.83a1,1,0,0,1-.35-1l63.68-345.2a1.06,1.06,0,0,1,.67-.79l331-116.94a1,1,0,0,1,1,.19L446.25-161.62A1.08,1.08,0,0,1,446.6-161ZM381,183.59l63.46-344L178.07-387.91-151.77-271.37l-63.46,344L51.15,300.13Z" style="fill:#353535"/><path d="M477.22-137.31a1,1,0,0,1,0,.45L377.71,223.07a1,1,0,0,1-.74.72L15.37,317a1,1,0,0,1-1-.28L-247.73,50.07a1,1,0,0,1-.26-1l99.5-359.92a1,1,0,0,1,.73-.73l361.6-93.24a1,1,0,0,1,1,.27l262.1,266.69A1,1,0,0,1,477.22-137.31ZM375.87,221.94l99.18-358.78L213.78-402.67l-360.44,92.94L-245.83,49.05,15.44,314.88Z" style="fill:#353535"/><path d="M507.49-109.36a1.11,1.11,0,0,1-.05.54L368.62,263.4a1,1,0,0,1-.79.66L-24,329.35a1,1,0,0,1-1-.37L-278,22.06a1,1,0,0,1-.17-1l138.81-372.22a1,1,0,0,1,.8-.66l391.86-65.29a1,1,0,0,1,1,.36l253,306.93A1,1,0,0,1,507.49-109.36ZM366.89,262.11,505.29-109,253-415-137.68-349.9-276.07,21.2l252.29,306Z" style="fill:#353535"/></g><g style="opacity:0.45"><path d="M-14.23-123.63a1,1,0,0,1,.13.23L13.66-53.9a1,1,0,0,1-.15,1L-32.68,5.87a1,1,0,0,1-1,.38l-74-10.75a1,1,0,0,1-.81-.64l-27.77-69.49a1,1,0,0,1,.15-1l46.2-58.75a1,1,0,0,1,1-.39l74,10.75A1,1,0,0,1-14.23-123.63ZM11.52-53.69-15.8-122.08l-72.78-10.57L-134-74.84l27.31,68.38L-33.94,4.12Z" style="fill:#424242"/><path d="M-6-122.86a1.07,1.07,0,0,1,.16.32l23,76.22a1.06,1.06,0,0,1-.24,1l-54.4,58a1.07,1.07,0,0,1-1,.3L-115.9-5.28a1,1,0,0,1-.75-.71l-23-76.23a1,1,0,0,1,.23-1l54.41-58a1,1,0,0,1,1-.3l77.38,18.25A1.07,1.07,0,0,1-6-122.86ZM15-46.29-7.67-121.37l-76.22-18-53.59,57.11,22.64,75.08,76.21,18Z" style="fill:#424242"/><path d="M2.6-121.28a.93.93,0,0,1,.19.4L20.07-38a1,1,0,0,1-.32,1l-63,56.4a1.08,1.08,0,0,1-1,.21L-124.62-6.89a1,1,0,0,1-.68-.77l-17.29-82.91a1.05,1.05,0,0,1,.32-1l63-56.4a1,1,0,0,1,1-.21L2.1-121.65A1,1,0,0,1,2.6-121.28ZM17.93-38.13l-17-81.74L-78.3-146l-62.14,55.6,17,81.75,79.18,26.13Z" style="fill:#424242"/><path d="M11.6-118.81a1,1,0,0,1,.2.5L22.43-28.84a1,1,0,0,1-.41.95L-50,26a1,1,0,0,1-1,.12L-133.7-9.39a1.05,1.05,0,0,1-.62-.83l-10.63-89.47a1.05,1.05,0,0,1,.41-1l72-53.93a1.06,1.06,0,0,1,1-.12l82.66,35.55A1,1,0,0,1,11.6-118.81Zm8.7,89.62L9.82-117.48l-81.57-35.07-71.07,53.21,10.49,88.28L-50.77,24Z" style="fill:#424242"/><path d="M20.91-115.36a1,1,0,0,1,.2.59l3,95.81a1,1,0,0,1-.49.91L-57.74,32.42a1.07,1.07,0,0,1-1,0l-84.3-45.34a1,1,0,0,1-.55-.87l-3-95.81a1,1,0,0,1,.49-.91l81.34-50.47a1,1,0,0,1,1,0l84.31,45.33A1.05,1.05,0,0,1,20.91-115.36ZM22-19.5l-2.94-94.61-83.25-44.77L-144.51-109l2.93,94.61,83.26,44.77Z" style="fill:#424242"/><path d="M30.45-110.83a1,1,0,0,1,.2.68L24.92-8.35a1,1,0,0,1-.57.87L-66.53,38.46a1,1,0,0,1-1-.05L-152.7-17.46a1,1,0,0,1-.47-.92l5.74-101.81a1,1,0,0,1,.56-.86L-56-167a1.05,1.05,0,0,1,1,.06l85.15,55.86A1,1,0,0,1,30.45-110.83ZM22.89-9.06l5.66-100.61-84.14-55.21-89.81,45.41-5.67,100.61,84.14,55.21Z" style="fill:#424242"/><path d="M40.14-105.15a1,1,0,0,1,.2.76L24.82,3a1,1,0,0,1-.64.81L-76.39,44.06a1.06,1.06,0,0,1-1-.15l-85-67.1a1,1,0,0,1-.38-1l15.51-107.36a1,1,0,0,1,.64-.81l100.58-40.27a1,1,0,0,1,1,.15L40-105.35A.89.89,0,0,1,40.14-105.15ZM22.86,2.09,38.2-104.09l-84.11-66.36-99.46,39.83L-160.72-24.44-76.6,41.91Z" style="fill:#424242"/><path d="M49.89-98.24a1.06,1.06,0,0,1,.18.86L23.67,15a1.07,1.07,0,0,1-.71.76L-87.36,49.07a1.07,1.07,0,0,1-1-.24l-83.91-79a1,1,0,0,1-.3-1l26.4-112.35a1,1,0,0,1,.7-.75L-35.16-177.6a1,1,0,0,1,1,.24l83.92,79ZM21.79,13.91,47.92-97.27l-83.05-78.18-109.17,33L-170.43-31.26l83.05,78.17Z" style="fill:#424242"/><path d="M59.58-90a1,1,0,0,1,.15.94L21.34,27.55a1,1,0,0,1-.78.69l-120,25.12a1,1,0,0,1-1-.33L-182-38.46a1,1,0,0,1-.21-1l38.39-116.61a1,1,0,0,1,.77-.68l120-25.12a1,1,0,0,1,1,.32l81.61,91.5Zm-40,116.34,38-115.48-80.82-90.6-118.83,24.87-38,115.47,80.81,90.61Z" style="fill:#424242"/><path d="M-8.93-184.91h0l78,104.54a1,1,0,0,1,.12,1l-51.5,120a1,1,0,0,1-.83.62L-112.64,56.78a1,1,0,0,1-1-.41h0l-78-104.53a1.06,1.06,0,0,1-.13-1l51.51-120a1,1,0,0,1,.82-.62L-9.88-185.32A1.05,1.05,0,0,1-8.93-184.91Zm76,105.3L-10.23-183.19l-128.32,15.35-51,118.92,77.29,103.58L16,39.31Z" style="fill:#424242"/><path d="M5.28-187.31l0,.08,73,118a1.07,1.07,0,0,1,0,1L12.63,54.24a1,1,0,0,1-.88.54l-138.68,4.41a1.09,1.09,0,0,1-.92-.49l-73-118a1,1,0,0,1,0-1l65.7-122.42a1,1,0,0,1,.88-.54L4.42-187.72A1,1,0,0,1,5.28-187.31Zm71,118.67-72.34-117-137.5,4.36L-198.75-59.9l72.35,117L11.09,52.73Z" style="fill:#424242"/><path d="M20.56-188.53a.75.75,0,0,1,.09.15L87.05-56.54a1,1,0,0,1-.06,1L6,68.14a1,1,0,0,1-.92.46L-142.3,60.41a1,1,0,0,1-.87-.56L-209.57-72a1.05,1.05,0,0,1,.06-1l81-123.65a1,1,0,0,1,.92-.47l147.39,8.19A1,1,0,0,1,20.56-188.53ZM84.93-56.15,19.07-186.91-127.12-195-207.45-72.39l65.86,130.77L4.6,66.5Z" style="fill:#424242"/><path d="M36.86-188.42a1.16,1.16,0,0,1,.14.24L95.14-42.31a1,1,0,0,1-.15,1L-2.3,82.25a1,1,0,0,1-1,.38L-158.7,60.29a1,1,0,0,1-.81-.64L-217.66-86.23a1.07,1.07,0,0,1,.15-1l97.3-123.53a1,1,0,0,1,1-.38L36.18-188.82A1,1,0,0,1,36.86-188.42ZM93-42.09,35.3-186.86-119-209-215.51-86.44l57.7,144.76L-3.56,80.5Z" style="fill:#424242"/><path d="M54.13-186.78a1,1,0,0,1,.17.32l48.09,160a1,1,0,0,1-.24,1L-12.41,96.43a1,1,0,0,1-1,.3l-162.66-38.1a1,1,0,0,1-.75-.7l-48.1-160a1.07,1.07,0,0,1,.24-1L-110.11-225a1,1,0,0,1,1-.3L53.54-187.17A1,1,0,0,1,54.13-186.78ZM100.24-26.45,52.49-185.29-109-223.11l-113.74,121L-175,56.76-13.51,94.57Z" style="fill:#424242"/><path d="M72.28-183.44a.93.93,0,0,1,.19.4L108.6-9a1,1,0,0,1-.32,1L-24.43,110.51a1,1,0,0,1-1,.21L-194.29,55.28a1,1,0,0,1-.69-.78l-36.14-174a1.07,1.07,0,0,1,.32-1L-98.08-239a1.06,1.06,0,0,1,1-.21L71.78-183.81A1,1,0,0,1,72.28-183.44ZM106.46-9.19,70.56-182-97.15-237.11-229-119.34-193.08,53.5l167.71,55.07Z" style="fill:#424242"/><path d="M91.21-178.23a1,1,0,0,1,.2.5L113.57,10a1,1,0,0,1-.41,1L-38.48,124.32a1,1,0,0,1-1,.13L-213.31,50a1.07,1.07,0,0,1-.62-.83l-22.16-187.76a1.05,1.05,0,0,1,.41-.95L-84-252.86a1.06,1.06,0,0,1,1-.12l173.8,74.42A1,1,0,0,1,91.21-178.23ZM111.45,9.68l-22-186.57-172.7-74L-234-138.21l22,186.57,172.7,74Z" style="fill:#424242"/><path d="M110.79-170.94a1.07,1.07,0,0,1,.2.58l6.08,201.05a1.06,1.06,0,0,1-.49.91L-54.64,137.65a1,1,0,0,1-1,0L-233,42.7a1,1,0,0,1-.55-.88l-6.07-201a1,1,0,0,1,.49-.91L-67.88-266.19a1.05,1.05,0,0,1,1,0l177.3,95A1.22,1.22,0,0,1,110.79-170.94ZM115,30.15l-6-199.84L-67.3-264.11-237.5-158.68l6,199.84,176.24,94.42Z" style="fill:#424242"/><path d="M130.85-161.41a1,1,0,0,1,.21.68L118.86,52.89a1,1,0,0,1-.57.87L-73,150.28a1,1,0,0,1-1-.06L-253.11,33.12a1,1,0,0,1-.46-.92l12.2-213.63a1,1,0,0,1,.56-.86l191.29-96.52a1,1,0,0,1,1,.06L130.59-161.66A1.24,1.24,0,0,1,130.85-161.41Zm-14,213.59L129-160.25-49.13-276.7l-190.21,96L-251.47,31.72-73.39,148.16Z" style="fill:#424242"/><path d="M151.24-149.44a1,1,0,0,1,.19.77L118.7,76.59a1,1,0,0,1-.64.81L-93.61,162a1,1,0,0,1-1-.15L-273.57,21.1a1,1,0,0,1-.38-1l32.74-225.26a1,1,0,0,1,.64-.81l211.66-84.56a1,1,0,0,1,1,.15l178.93,140.7A1.21,1.21,0,0,1,151.24-149.44ZM116.74,75.7,149.3-148.38l-178-140-210.56,84.12L-271.82,19.85l178,140Z" style="fill:#424242"/><path d="M171.73-134.87a1,1,0,0,1,.18.85l-55.58,235.7a1,1,0,0,1-.71.75l-232.16,70a1,1,0,0,1-1-.24L-294.13,6.47a1,1,0,0,1-.3-1l55.58-235.69a1,1,0,0,1,.71-.75L-6-300.95a1,1,0,0,1,1,.24L171.61-135A.53.53,0,0,1,171.73-134.87ZM114.46,100.62l55.3-234.53L-5.95-298.8l-231,69.65L-292.28,5.38l175.72,164.88Z" style="fill:#424242"/><path d="M192.1-117.53a1,1,0,0,1,.15.94L111.5,128a1,1,0,0,1-.77.69L-141.8,181.38a1,1,0,0,1-1-.33l-171.78-192a1,1,0,0,1-.21-1L-234-256.58a1,1,0,0,1,.78-.68L19.29-309.91a1,1,0,0,1,1,.32L192-117.6ZM109.72,126.83l80.38-243.5-171-191.09-251.36,52.4-80.38,243.5,171,191.09Z" style="fill:#424242"/><path d="M212.08-97.26a1,1,0,0,1,.12,1L103.94,155.53a1,1,0,0,1-.83.62L-169.4,188.53a1,1,0,0,1-.95-.41L-334.59-31.27h0a1,1,0,0,1-.13-1l108.27-251.76a1,1,0,0,1,.83-.62l272.5-32.38a1,1,0,0,1,.95.41L212.08-97.26ZM102.27,154.17,210.06-96.5,46.53-314.94-224.79-282.7-332.58-32-169,186.4Z" style="fill:#424242"/><path d="M77.65-321.67a.35.35,0,0,1,0,.08L231.42-73.86a1,1,0,0,1,0,1L93.37,184a1,1,0,0,1-.87.54l-291.81,9.05a1.06,1.06,0,0,1-.91-.49L-353.94-54.67a1.07,1.07,0,0,1,0-1l138.08-256.78A1,1,0,0,1-215-313l291.8-9.05A1.05,1.05,0,0,1,77.65-321.67ZM229.35-73.28,76.26-320l-290.61,9L-351.86-55.26l153.09,246.72,290.6-9Z" style="fill:#424242"/><path d="M109.71-324.21a.56.56,0,0,1,.1.15L249.75-47.27a1,1,0,0,1-.06,1L79.55,213.1a1,1,0,0,1-.93.46l-310.08-17.47a1,1,0,0,1-.86-.56L-372.26-81.27a1,1,0,0,1,.05-1l170.15-259.33a1,1,0,0,1,.92-.46l310.08,17.46A1,1,0,0,1,109.71-324.21ZM247.63-46.87,108.23-322.6-200.66-340-370.15-81.67l139.4,275.73,308.9,17.4Z" style="fill:#424242"/><path d="M143.93-323.94a1,1,0,0,1,.13.23L266.7-17.39a1,1,0,0,1-.14,1L62.2,242.69a1.05,1.05,0,0,1-1,.39l-327-47.27a1,1,0,0,1-.82-.64L-389.22-111.14a1,1,0,0,1,.15-1l204.36-259.06a1,1,0,0,1,1-.38l327,47.26A1,1,0,0,1,143.93-323.94ZM264.56-17.17,142.36-322.38l-325.82-47.1L-387.08-111.36l122.2,305.21L60.94,240.94Z" style="fill:#424242"/><path d="M180.17-320.48a1.07,1.07,0,0,1,.16.32l101.57,336a1,1,0,0,1-.24,1L41.07,272.45a1,1,0,0,1-1,.29l-342.17-80.4a1,1,0,0,1-.75-.71l-101.58-336a1,1,0,0,1,.24-1L-163.58-401a1,1,0,0,1,1-.3l342.16,80.41A1.11,1.11,0,0,1,180.17-320.48ZM279.75,15.87,178.52-319l-341-80.13L-402.26-144.4-301,190.46,40,270.59Z" style="fill:#424242"/><path d="M218.25-313.45a1,1,0,0,1,.18.4L294.92,52.46a1,1,0,0,1-.32,1L15.92,302a1,1,0,0,1-1,.21L-340.26,185.28a1,1,0,0,1-.69-.77L-417.44-181a1.07,1.07,0,0,1,.32-1l278.68-248.57a1.06,1.06,0,0,1,1-.21L217.74-313.82A1.06,1.06,0,0,1,218.25-313.45ZM292.78,52.3,216.53-312l-354-116.56L-415.29-180.83-339,183.5,15,300.07Z" style="fill:#424242"/><path d="M258-302.47a1,1,0,0,1,.2.49L305.33,92.47a1,1,0,0,1-.41,1L-13.46,331a1,1,0,0,1-1,.12L-380,174.27a1,1,0,0,1-.62-.83L-427.84-221a1,1,0,0,1,.41-1L-109-459.55a1.05,1.05,0,0,1,1-.12L257.53-302.81A1,1,0,0,1,258-302.47ZM303.2,92.12l-47-393.26L-108.29-457.53-425.72-220.66l47,393.27L-14.22,329Z" style="fill:#424242"/></g></svg>