<svg id="b8109a04-a19b-40ba-b801-e74c53f65091" data-name="teist" xmlns="http://www.w3.org/2000/svg" viewBox="0 0 87.2 87.2"><title>c</title><path d="M87.18,42.28a43.6,43.6,0,1,0-42.26,44.9A43.64,43.64,0,0,0,87.18,42.28ZM44.64,78A34.38,34.38,0,1,1,78,42.56,34.4,34.4,0,0,1,44.64,78Z" style="fill:#fbfefa"/><path d="M49.59,52.31a23.31,23.31,0,0,1-3.71.44c-3.25.09-5.55-.67-6.9-2.3s-2.08-4-2.17-7a10.77,10.77,0,0,1,1.87-7q2-2.7,6.24-2.82a15.65,15.65,0,0,1,3.6.27,26.09,26.09,0,0,1,3,.81L53.26,27a22.81,22.81,0,0,0-9.36-1.58,18,18,0,0,0-7.27,1.63A16.15,16.15,0,0,0,28,36.82a19.63,19.63,0,0,0-1,6.93,23.9,23.9,0,0,0,1.21,7,14.56,14.56,0,0,0,3.31,5.52,15,15,0,0,0,5.6,3.59,20.65,20.65,0,0,0,8,1.13,26.94,26.94,0,0,0,5.5-.68A22.53,22.53,0,0,0,54.8,59l-1.58-7.78A15.89,15.89,0,0,1,49.59,52.31Z" style="fill:#fbfefa"/></svg>