<svg id="d4772840-bf6e-4a13-9697-a5023f9e2b79" data-name="teist" xmlns="http://www.w3.org/2000/svg" viewBox="0 0 78 70.2"><title>case</title><path id="83d3e6af-25d9-4852-a179-7484a68bcc6c" data-name="money_round" d="M70.2,23.4H7.8A7.8,7.8,0,0,0,0,31.2V62.4a7.8,7.8,0,0,0,7.8,7.8H70.2A7.8,7.8,0,0,0,78,62.4V31.2A7.8,7.8,0,0,0,70.2,23.4ZM14.26,31.2,7.8,37.66C7.8,31.31,9.3,31.2,14.26,31.2ZM7.8,55.94l6.46,6.46C7.92,62.4,7.8,60.92,7.8,55.94ZM25.29,62.4,9.69,46.8l15.6-15.6H52.71l15.6,15.6L52.71,62.4Zm38.45,0,6.46-6.46C70.2,62.28,68.72,62.4,63.74,62.4ZM70.2,37.66,63.74,31.2C70.09,31.2,70.2,32.7,70.2,37.66ZM46.8,46.8A7.8,7.8,0,1,1,39,39,7.8,7.8,0,0,1,46.8,46.8ZM7.8,11.7V7.8A7.8,7.8,0,0,1,15.6,0H62.4a7.8,7.8,0,0,1,7.8,7.8v3.9a3.9,3.9,0,0,1-7.8,0,3.91,3.91,0,0,0-3.9-3.9h-39a3.91,3.91,0,0,0-3.9,3.9,3.9,3.9,0,0,1-7.8,0Z" style="fill:#fff"/></svg>