<svg id="f81e6596-df59-400d-bcf2-a42b2001e740" data-name="teist" xmlns="http://www.w3.org/2000/svg" viewBox="0 0 110.68 92.66"><title>tlg</title><path d="M5.54,38.22A17,17,0,0,0,.9,41.11c-1.36,1.18-1.13,2.77.37,3.81a11.59,11.59,0,0,0,3.1,1.46Q15.89,50,27.44,53.58a1.83,1.83,0,0,1,1.37,1.34c.91,2.93,1.89,5.84,2.83,8.76l6.9,21.23c.52,1.61.94,2,2.63,2.07a6.07,6.07,0,0,0,4.89-1.89c4-4,8.11-7.87,12.14-11.83.58-.58,1-.67,1.62-.12.87.74,1.84,1.38,2.77,2.07,7.11,5.25,14.18,10.56,21.34,15.73,3.81,2.75,8.19,2.57,9.48-3.3,2.06-9.33,4-18.68,6-28q4.94-23.19,9.86-46.38c.54-2.55,1-5.11,1.41-7,0-3.59-1.3-5.79-3.6-6.15a7.72,7.72,0,0,0-3.8.43Q63.68,15.72,24.11,31C17.92,33.41,11.7,35.73,5.54,38.22ZM33.13,51.56Q60,34.66,86.86,17.71a8.9,8.9,0,0,1,2.74-1.14c.5-.12,1.12.24,1.68.38-.21.53-.28,1.21-.65,1.55-3.62,3.34-7.28,6.63-10.94,9.92Q61.88,44.5,44.08,60.59a2.26,2.26,0,0,0-.67,1.34c-.57,5.81-1.1,11.62-1.65,17.43,0,.29-.14.58-.2.87l-.26,0q-2-6.24-4.06-12.46c-1.57-4.82-3.13-9.63-4.74-14.44A1.25,1.25,0,0,1,33.13,51.56Z" style="fill:#fbfefa"/></svg>