<svg id="839009c1-2457-4e33-b65c-f359aecb6393" data-name="Design" xmlns="http://www.w3.org/2000/svg" viewBox="0 0 288 288"><title>vo5</title><polygon points="31.01 143.84 31.01 128.38 40.68 111.45 40.68 94.52 45.51 86.05 45.51 77.59 50.35 69.12 50.35 43.73 55.18 35.27 55.18 -0.25 56.14 -0.25 56.14 35.52 51.31 43.98 51.31 69.38 46.47 77.84 46.47 86.31 41.64 94.77 41.64 111.7 31.97 128.63 31.97 143.84 31.01 143.84" style="fill:#333"/><polygon points="31.01 143.84 31.01 102.98 35.84 94.52 35.84 52.19 40.68 43.73 40.68 -0.03 41.64 -0.03 41.64 43.98 36.81 52.45 36.81 94.77 31.97 103.24 31.97 143.84 31.01 143.84" style="fill:#333"/><polygon points="46.47 43.98 46.47 -0.03 45.51 -0.03 45.51 43.73 40.68 52.19 40.68 69.12 35.84 77.59 35.84 119.91 31.07 128.27 31.91 128.74 36.81 120.17 36.81 77.84 41.64 69.38 41.64 52.45 46.47 43.98" style="fill:#333"/><polygon points="31.97 43.98 31.97 -0.03 31.01 -0.03 31.01 43.73 26.18 52.19 26.18 120.04 27.14 120.04 27.14 52.45 31.97 43.98" style="fill:#333"/><polygon points="25.2 143.84 16.51 128.63 16.51 111.45 21.34 102.98 21.34 44.34 16.51 44.34 16.51 27.05 11.68 18.59 11.68 -0.21 12.64 -0.21 12.64 18.34 17.47 26.8 17.47 43.38 22.3 43.38 22.3 103.24 17.47 111.7 17.47 128.38 26.3 143.84 25.2 143.84" style="fill:#333"/><polygon points="16.51 143.84 16.51 128.63 11.68 120.17 11.68 86.31 6.84 77.84 6.84 60.91 2.01 52.45 2.01 43.98 -7.66 27.06 -7.66 18.94 -12.49 18.94 -12.49 0.03 -11.53 0.03 -11.53 17.98 -6.7 17.98 -6.7 26.8 2.97 43.73 2.97 52.19 7.8 60.66 7.8 77.59 12.64 86.05 12.64 119.91 17.47 128.38 17.47 143.84 16.51 143.84" style="fill:#333"/><polygon points="21.34 143.84 21.34 120.17 16.51 111.7 16.51 86.31 11.68 77.84 11.68 60.91 6.84 52.45 6.84 35.52 2.01 27.06 2.01 -0.25 2.97 -0.25 2.97 26.8 7.8 35.27 7.8 52.19 12.64 60.66 12.64 77.59 17.47 86.05 17.47 111.45 22.3 119.91 22.3 143.84 21.34 143.84" style="fill:#333"/><polygon points="11.68 143.84 11.68 102.98 16.44 94.64 11.68 86.31 11.68 52.19 16.51 43.73 16.51 35.27 21.34 26.8 21.34 1.66 20.39 -0.01 21.5 -0.01 22.3 1.41 22.3 27.06 17.47 35.52 17.47 43.98 12.64 52.45 12.64 86.05 17.54 94.64 12.64 103.24 12.64 143.84 11.68 143.84" style="fill:#333"/><polygon points="26.18 143.84 26.18 94.77 21.34 86.31 21.34 69.38 16.51 60.91 16.51 52.8 11.88 52.8 6.84 43.98 6.84 -0.01 7.8 -0.01 7.8 43.73 12.44 51.84 17.47 51.84 17.47 60.66 22.3 69.12 22.3 86.05 27.14 94.52 27.14 143.84 26.18 143.84" style="fill:#333"/><polygon points="26.18 143.84 26.18 86.05 35.84 69.12 35.84 18.59 31.07 10.24 31.91 9.76 36.81 18.34 36.81 69.38 27.14 86.31 27.14 143.84 26.18 143.84" style="fill:#333"/><polygon points="11.68 143.84 11.68 103.24 2.01 86.31 2.01 60.91 -2.82 52.45 -2.82 -0.01 -1.86 -0.01 -1.86 52.2 2.97 60.66 2.97 86.05 12.64 102.98 12.64 143.84 11.68 143.84" style="fill:#333"/><polygon points="6.84 143.84 6.84 120.17 2.01 111.7 2.01 103.24 -2.82 94.77 -2.82 86.66 -7.66 86.66 -7.66 43.86 -6.7 43.86 -6.7 85.7 -1.86 85.7 -1.86 94.52 2.97 102.98 2.97 111.45 7.8 119.91 7.8 143.84 6.84 143.84" style="fill:#333"/><polygon points="31.01 143.84 31.01 119.91 35.84 111.45 35.84 102.98 40.68 94.52 40.68 86.05 45.51 77.59 45.51 9.87 51.16 -0.03 52.26 -0.03 46.47 10.13 46.47 77.84 41.64 86.31 41.64 94.77 36.81 103.24 36.81 111.7 31.97 120.17 31.97 143.84 31.01 143.84" style="fill:#333"/><polygon points="21.34 143.84 21.34 128.63 16.44 120.04 21.34 111.45 21.34 60.66 26.18 52.19 26.18 -0.25 27.14 -0.25 27.14 52.45 22.3 60.91 22.3 111.7 17.54 120.04 22.3 128.38 22.3 143.84 21.34 143.84" style="fill:#333"/><polygon points="2.01 143.84 2.01 128.63 -2.82 120.17 -2.82 111.7 -7.66 103.24 -7.66 86.31 -12.49 77.84 -12.49 18.46 -11.53 18.46 -11.53 77.59 -6.7 86.05 -6.7 102.98 -1.86 111.45 -1.86 119.91 2.97 128.38 2.97 143.84 2.01 143.84" style="fill:#333"/><polygon points="7.8 136.97 7.8 94.52 2.97 86.05 2.97 68.77 -1.86 68.77 -1.86 60.66 -6.7 52.19 -6.7 -0.01 -7.66 -0.01 -7.66 52.45 -2.82 60.91 -2.82 69.73 2.01 69.73 2.01 86.31 6.84 94.77 6.84 136.97 7.8 136.97" style="fill:#333"/><polygon points="31.01 143.84 31.01 159.31 40.68 176.24 40.68 193.16 45.51 201.63 45.51 210.09 50.35 218.56 50.35 243.95 55.18 252.42 55.18 288.5 56.14 288.5 56.14 252.16 51.31 243.7 51.31 218.3 46.47 209.84 46.47 201.37 41.64 192.91 41.64 175.98 31.97 159.05 31.97 143.84 31.01 143.84" style="fill:#333"/><polygon points="31.01 143.84 31.01 184.7 35.84 193.16 35.84 235.49 40.68 243.95 40.68 288.56 41.64 288.56 41.64 243.7 36.81 235.23 36.81 192.91 31.97 184.44 31.97 143.84 31.01 143.84" style="fill:#333"/><polygon points="46.47 243.7 46.47 288.56 45.51 288.56 45.51 243.95 40.68 235.49 40.68 218.56 35.84 210.09 35.84 167.77 31.07 159.42 31.91 158.94 36.81 167.52 36.81 209.84 41.64 218.3 41.64 235.23 46.47 243.7" style="fill:#333"/><polygon points="31.97 243.7 31.97 288.56 31.01 288.56 31.01 243.95 26.18 235.49 26.18 167.64 27.14 167.64 27.14 235.23 31.97 243.7" style="fill:#333"/><polygon points="25.2 143.84 16.51 159.05 16.51 176.24 21.34 184.7 21.34 243.34 16.51 243.34 16.51 260.63 11.68 269.94 11.68 289.87 12.64 289.87 12.64 270.2 17.47 260.88 17.47 244.31 22.3 244.31 22.3 184.44 17.47 175.98 17.47 159.31 26.3 143.84 25.2 143.84" style="fill:#333"/><polygon points="16.51 143.84 16.51 159.05 11.68 167.52 11.68 201.37 6.84 209.84 6.84 226.77 2.01 235.23 2.01 243.7 -7.66 260.63 -7.66 268.74 -12.49 268.74 -12.49 287.65 -11.53 287.65 -11.53 269.7 -6.7 269.7 -6.7 260.88 2.97 243.95 2.97 235.49 7.8 227.02 7.8 210.09 12.64 201.63 12.64 167.77 17.47 159.31 17.47 143.84 16.51 143.84" style="fill:#333"/><polygon points="21.34 143.84 21.34 167.52 16.51 175.98 16.51 201.37 11.68 209.84 11.68 226.77 6.84 235.23 6.84 252.16 2.01 260.63 2.01 288.5 2.97 288.5 2.97 260.88 7.8 252.42 7.8 235.49 12.64 227.02 12.64 210.09 17.47 201.63 17.47 176.24 22.3 167.77 22.3 143.84 21.34 143.84" style="fill:#333"/><polygon points="11.68 143.84 11.68 184.7 16.44 193.04 11.68 201.37 11.68 235.49 16.51 243.95 16.51 252.42 21.34 260.88 21.34 286.02 20.2 288 21.31 288 22.3 286.28 22.3 260.63 17.47 252.16 17.47 243.7 12.64 235.23 12.64 201.63 17.54 193.04 12.64 184.44 12.64 143.84 11.68 143.84" style="fill:#333"/><polygon points="26.18 143.84 26.18 192.91 21.34 201.37 21.34 218.3 16.51 226.77 16.51 234.88 11.88 234.88 6.84 243.7 6.84 288.54 7.8 288.54 7.8 243.95 12.44 235.84 17.47 235.84 17.47 227.02 22.3 218.56 22.3 201.63 27.14 193.16 27.14 143.84 26.18 143.84" style="fill:#333"/><polygon points="26.18 143.84 26.18 201.63 35.84 218.56 35.84 269.09 31.07 277.45 31.91 277.92 36.81 269.35 36.81 218.3 27.14 201.37 27.14 143.84 26.18 143.84" style="fill:#333"/><polygon points="11.68 143.84 11.68 184.44 2.01 201.37 2.01 226.77 -2.82 235.23 -2.82 287.69 -1.86 287.69 -1.86 235.49 2.97 227.02 2.97 201.63 12.64 184.7 12.64 143.84 11.68 143.84" style="fill:#333"/><polygon points="6.84 143.84 6.84 167.52 2.01 175.98 2.01 184.44 -2.82 192.91 -2.82 201.02 -7.66 201.02 -7.66 243.82 -6.7 243.82 -6.7 201.98 -1.86 201.98 -1.86 193.16 2.97 184.7 2.97 176.24 7.8 167.77 7.8 143.84 6.84 143.84" style="fill:#333"/><polygon points="31.01 143.84 31.01 167.77 35.84 176.24 35.84 184.7 40.68 193.16 40.68 201.63 45.51 210.09 45.51 277.81 51.32 288 52.42 288 46.47 277.56 46.47 209.84 41.64 201.37 41.64 192.91 36.81 184.44 36.81 175.98 31.97 167.52 31.97 143.84 31.01 143.84" style="fill:#333"/><polygon points="21.34 143.84 21.34 159.05 16.44 167.64 21.34 176.24 21.34 227.02 26.18 235.49 26.18 288.5 27.14 288.5 27.14 235.23 22.3 226.77 22.3 175.98 17.54 167.64 22.3 159.31 22.3 143.84 21.34 143.84" style="fill:#333"/><polygon points="2.01 143.84 2.01 159.05 -2.82 167.52 -2.82 175.98 -7.66 184.44 -7.66 201.38 -12.49 209.84 -12.49 269.22 -11.53 269.22 -11.53 210.09 -6.7 201.63 -6.7 184.7 -1.86 176.24 -1.86 167.77 2.97 159.31 2.97 143.84 2.01 143.84" style="fill:#333"/><polygon points="7.8 150.71 7.8 193.16 2.97 201.63 2.97 218.91 -1.86 218.91 -1.86 227.02 -6.7 235.49 -6.7 287.69 -7.66 287.69 -7.66 235.23 -2.82 226.77 -2.82 217.95 2.01 217.95 2.01 201.37 6.84 192.91 6.84 150.71 7.8 150.71" style="fill:#333"/></svg>